<!-- Created with Inkscape (http://www.inkscape.org/) -->
<svg id="svg1" width="1274.7" height="905.33" sodipodi:docname="pdb_presentation_biarnesa_mde.pdf" version="1.1" viewBox="0 0 1274.7 905.33" xmlns="http://www.w3.org/2000/svg" xmlns:inkscape="http://www.inkscape.org/namespaces/inkscape" xmlns:sodipodi="http://sodipodi.sourceforge.net/DTD/sodipodi-0.dtd" xmlns:xlink="http://www.w3.org/1999/xlink">
 <sodipodi:namedview id="namedview1" bordercolor="#666666" borderopacity="1.0" inkscape:deskcolor="#d1d1d1" inkscape:pagecheckerboard="0" inkscape:pageopacity="0.0" inkscape:showpageshadow="2" pagecolor="#ffffff">
  <inkscape:page id="page1" x="0" y="0" width="1274.6667" height="905.33331" bleed="0" inkscape:label="37" margin="0"/>
 </sodipodi:namedview>
 <g id="g1" inkscape:groupmode="layer" inkscape:label="37">
  <path id="path1" transform="scale(1.3333)" d="m0 0h956v679h-956z"/>
  <path id="path2" transform="scale(1.3333)" d="m32.176 21.773-10.414-10.418-10.414 10.418 1.488 1.489 8.926-8.93 7.437 7.441-7.437 7.442-1.489-1.488 5.954-5.954-1.489-1.488-5.953 5.953-1.484-1.488 5.949-5.953-1.488-1.488-7.438 7.441 7.438 7.441z" fill="#fff"/>
  <path id="path3" transform="scale(1.3333)" d="m344.96 452.6h-3.949v12.828c0 1.41-0.039 1.984-0.285 2.675-0.868 2.395-3.774 2.395-4.293 2.395-2.813 0-3.965-1.254-4.352-2.523-0.211-0.622-0.211-1.079-0.211-2.336v-13.039h-3.988v12.617c0 2.254 0 3.238 0.328 4.32 1.113 3.484 4.68 4.813 8.082 4.813 5.187 0 7.625-2.735 8.32-4.872 0.328-1.046 0.348-1.949 0.348-3.757zm4.297 6.187v15.02h3.637v-6.524c0-2.582 0.328-3.84 1.41-4.742 0.75-0.633 1.5-0.691 1.898-0.691 2.219 0 2.641 1.867 2.641 3.519v8.438h3.543v-10.457c0-2.946-1.676-5.008-4.867-5.008-0.602 0-3.274 0.176-4.625 2.215v-1.77zm30.933 8.227c0-4.086-1.64-8.672-7.379-8.672-3.906 0-7.542 2.484-7.542 7.863 0 4.984 3.25 8.051 7.718 8.051 3.93 0 6.125-2.184 7.332-3.817l-3.074-1.773c-0.293 0.52-1.371 2.078-3.93 2.078-3.484 0-4.175-2.98-4.234-3.73zm-10.992-2.641c0.129-0.598 0.692-3.156 3.672-3.156 2.817 0 3.297 2.406 3.356 3.156zm22.5-5.586v19.914h3.602v-6.125c1.621 1.5 3.179 1.68 4.082 1.68 1.137 0 3.578-0.274 5.351-2.758 1.442-2.02 1.5-4.273 1.5-5.082 0-3.008-1.23-4.953-2.019-5.895-1.711-2.003-3.836-2.179-4.797-2.179-2.285 0-3.52 1.16-4.117 1.793v-1.348zm10.84 7.453c0 3.754-2.195 4.598-3.601 4.598-2.442 0-3.696-2.078-3.696-4.633 0-2.066 1.055-4.414 3.602-4.414 1.746 0 3.695 1.324 3.695 4.449zm21.859 0c-0.023-5.719-4.472-7.898-7.742-7.898-5.316 0-7.687 4.293-7.687 7.898 0 3.66 2.336 8.016 7.804 8.016 5.102 0 7.625-3.992 7.625-8.016zm-11.675-0.097c0-3.028 1.773-4.563 3.875-4.563 2.754 0 4.047 2.43 4.047 4.836 0 2.285-1.235 4.539-3.872 4.539-2.582 0-4.05-2.172-4.05-4.812zm18.32 7.664v-21.207h-3.672v21.207zm7.414-17.368v-3.629h-3.578v3.629zm0 17.368v-15.02h-3.578v15.02zm13.844-5.856c-0.27 0.715-1.082 2.945-3.637 2.945-2.43 0-3.777-2.074-3.777-4.691 0-2.488 1.254-4.648 3.695-4.648 1.945 0 3 1.253 3.426 2.546l3.211-1.503c-0.574-1.407-2.555-4.258-6.461-4.258-4.953 0-7.602 4.047-7.602 7.957 0 4.469 3 7.957 7.426 7.957 3 0 5.734-1.715 6.777-4.684zm19.605-0.937c0-4.086-1.64-8.672-7.379-8.672-3.906 0-7.543 2.484-7.543 7.863 0 4.984 3.25 8.051 7.719 8.051 3.93 0 6.125-2.184 7.332-3.817l-3.07-1.773c-0.297 0.52-1.375 2.078-3.934 2.078-3.48 0-4.176-2.98-4.234-3.73zm-10.992-2.641c0.129-0.598 0.695-3.156 3.672-3.156 2.816 0 3.297 2.406 3.355 3.156zm26.102-7.934v-3.629h-3.578v3.629zm0 17.368v-15.02h-3.578v15.02zm17.48 0v-21.207h-3.578v7.418c-0.984-1.231-2.793-1.676-4.023-1.676-3.543 0-6.817 2.875-6.817 8.261 0 5.469 3.52 7.653 6.664 7.653 2.676 0 3.883-1.528 4.176-1.891v1.442zm-10.664-7.602c0-2.523 1.348-4.531 3.602-4.531 2.793 0 3.461 2.605 3.461 4.894 0 2.793-1.536 4.41-3.485 4.41-2.637 0-3.578-2.546-3.578-4.773zm28.617 0.809c0-4.086-1.64-8.672-7.379-8.672-3.906 0-7.543 2.484-7.543 7.863 0 4.984 3.25 8.051 7.719 8.051 3.93 0 6.125-2.184 7.332-3.817l-3.07-1.773c-0.297 0.52-1.375 2.078-3.93 2.078-3.484 0-4.18-2.98-4.238-3.73zm-10.992-2.641c0.129-0.598 0.695-3.156 3.672-3.156 2.816 0 3.297 2.406 3.355 3.156zm13.816-5.586v15.02h3.637v-6.524c0-2.582 0.328-3.84 1.41-4.742 0.75-0.633 1.5-0.691 1.899-0.691 2.219 0 2.64 1.867 2.64 3.519v8.438h3.543v-10.457c0-2.946-1.675-5.008-4.867-5.008-0.601 0-3.273 0.176-4.625 2.215v-1.77zm15.11 2.559h2.191v8.941c0 2.465 1.024 3.637 4.235 3.637 1.234 0 2.101-0.176 2.582-0.235v-3.039c-0.446 0.118-0.985 0.188-1.5 0.188-0.153 0-0.93 0-1.352-0.457-0.328-0.363-0.363-1.02-0.363-1.598v-7.437h3.215v-2.559h-3.215v-5.351h-3.602v5.351h-2.191zm14.805-4.907v-3.629h-3.579v3.629zm0 17.368v-15.02h-3.579v15.02zm2.101-12.461h2.195v8.941c0 2.465 1.02 3.637 4.235 3.637 1.23 0 2.097-0.176 2.578-0.235v-3.039c-0.445 0.118-0.985 0.188-1.5 0.188-0.152 0-0.926 0-1.348-0.457-0.328-0.363-0.363-1.02-0.363-1.598v-7.437h3.211v-2.559h-3.211v-5.351h-3.602v5.351h-2.195zm24.93 12.461c-0.602-0.961-0.66-1.289-0.66-2.43v-8.777c0-2.641-1.899-4.258-6.309-4.258-6.312 0-6.512 3.836-6.582 4.832l3.672 0.211c0-0.785 0.293-2.25 3.027-2.25 2.25 0 2.582 1.101 2.582 2.25-0.953 0.332-2.371 0.695-4.625 1.105-2.847 0.516-5.336 1.809-5.336 5.082 0 2.524 2.039 4.602 5.453 4.602 1.844 0 3.426-0.754 4.422-1.539l0.086 1.172zm-4.27-5.469c0 1.89-2.043 2.734-3.683 2.734-1.809 0-2.465-0.844-2.465-1.828 0-1.504 1.64-1.832 3.297-2.078 1.382-0.211 2.25-0.539 2.851-0.832zm11.055-11.899v-3.629h-3.578v3.629zm0 17.368v-15.02h-3.578v15.02zm3.91-15.02v15.02h3.484v-6.43c0-0.867 0-1.621 0.27-2.465 0.867-2.758 3.754-2.758 4.504-2.758v-3.695h-0.305c-0.715 0-3.332 0.094-4.469 2.465v-2.137zm24.047 8.227c0-4.086-1.641-8.672-7.379-8.672-3.906 0-7.543 2.484-7.543 7.863 0 4.984 3.25 8.051 7.719 8.051 3.93 0 6.125-2.184 7.332-3.817l-3.074-1.773c-0.293 0.52-1.371 2.078-3.93 2.078-3.484 0-4.176-2.98-4.234-3.73zm-10.992-2.641c0.129-0.598 0.691-3.156 3.672-3.156 2.816 0 3.297 2.406 3.355 3.156zm-278.57 24.457v19.918h3.602v-6.129c1.617 1.504 3.18 1.68 4.082 1.68 1.137 0 3.578-0.27 5.348-2.758 1.445-2.02 1.504-4.273 1.504-5.082 0-3.004-1.231-4.953-2.02-5.891-1.711-2.008-3.836-2.183-4.797-2.183-2.289 0-3.519 1.16-4.117 1.797v-1.352zm10.84 7.453c0 3.754-2.195 4.602-3.601 4.602-2.442 0-3.696-2.078-3.696-4.637 0-2.066 1.055-4.414 3.602-4.414 1.746 0 3.695 1.328 3.695 4.449zm21.856 0c-0.02-5.715-4.469-7.898-7.743-7.898-5.312 0-7.683 4.297-7.683 7.898 0 3.66 2.336 8.016 7.801 8.016 5.105 0 7.625-3.992 7.625-8.016zm-11.672-0.094c0-3.027 1.773-4.566 3.871-4.566 2.758 0 4.047 2.43 4.047 4.836 0 2.289-1.231 4.543-3.871 4.543-2.578 0-4.047-2.172-4.047-4.813zm28.23 7.664v-15.023h-3.613v6.703c0 1.137-0.02 2.547-0.563 3.602-0.269 0.539-1.171 1.679-2.921 1.679-2.579 0-2.942-1.89-2.942-3.336v-8.648h-3.625v9.438c0 1.382 0.059 2.757 0.867 3.964 0.598 0.903 1.829 1.985 4.329 1.985 2.605 0 4.105-1.211 4.855-1.903v1.539zm3.903-15.023v15.023h3.484v-6.433c0-0.867 0-1.617 0.269-2.465 0.868-2.758 3.754-2.758 4.504-2.758v-3.695h-0.304c-0.715 0-3.332 0.094-4.469 2.465v-2.137zm22.972 15.023v-21.207h-3.668v21.207zm16.907 0c-0.598-0.964-0.657-1.293-0.657-2.429v-8.781c0-2.641-1.902-4.258-6.312-4.258-6.313 0-6.512 3.836-6.582 4.836l3.672 0.211c0-0.789 0.293-2.254 3.027-2.254 2.254 0 2.582 1.101 2.582 2.254-0.949 0.328-2.371 0.691-4.621 1.101-2.852 0.516-5.34 1.809-5.34 5.082 0 2.524 2.043 4.602 5.457 4.602 1.84 0 3.426-0.75 4.422-1.539l0.082 1.175zm-4.27-5.468c0 1.886-2.043 2.734-3.684 2.734-1.808 0-2.464-0.848-2.464-1.832 0-1.504 1.644-1.832 3.296-2.078 1.383-0.211 2.254-0.539 2.852-0.832zm26.039-0.387c-0.269 0.715-1.078 2.945-3.637 2.945-2.425 0-3.777-2.078-3.777-4.695 0-2.488 1.258-4.648 3.695-4.648 1.95 0 3.004 1.257 3.426 2.546l3.215-1.503c-0.574-1.407-2.559-4.258-6.465-4.258-4.949 0-7.602 4.047-7.602 7.957 0 4.472 3.004 7.957 7.426 7.957 3.004 0 5.739-1.715 6.782-4.684zm20.148-1.715c-0.023-5.715-4.468-7.898-7.742-7.898-5.316 0-7.683 4.297-7.683 7.898 0 3.66 2.332 8.016 7.8 8.016 5.102 0 7.625-3.992 7.625-8.016zm-11.671-0.094c0-3.027 1.769-4.566 3.871-4.566 2.757 0 4.047 2.43 4.047 4.836 0 2.289-1.231 4.543-3.872 4.543-2.582 0-4.046-2.172-4.046-4.813zm14.586-7.359v15.023h3.601v-6.316c0-1.676 0.039-3.777 1.504-5.047 0.75-0.621 1.535-0.715 1.898-0.715 1.95 0 2.465 1.68 2.465 2.852v9.226h3.567v-7.066c0-1.195 0.035-2.43 0.726-3.508 0.809-1.328 2.102-1.539 2.676-1.539 2.391 0 2.52 2.348 2.52 2.922v9.191h3.566v-10.281c0-3.605-2.121-5.187-5.16-5.187-2.348 0-3.871 1.043-4.832 2.277-0.848-1.504-2.465-2.277-4.176-2.277-2.313 0-4.086 1.289-4.719 2.125v-1.68zm26.277 0v15.023h3.601v-6.316c0-1.676 0.04-3.777 1.504-5.047 0.75-0.621 1.536-0.715 1.899-0.715 1.949 0 2.465 1.68 2.465 2.852v9.226h3.566v-7.066c0-1.195 0.035-2.43 0.727-3.508 0.808-1.328 2.101-1.539 2.675-1.539 2.391 0 2.52 2.348 2.52 2.922v9.191h3.566v-10.281c0-3.605-2.121-5.187-5.16-5.187-2.348 0-3.871 1.043-4.832 2.277-0.848-1.504-2.465-2.277-4.176-2.277-2.312 0-4.086 1.289-4.718 2.125v-1.68zm39.926 15.023v-15.023h-3.614v6.703c0 1.137-0.023 2.547-0.562 3.602-0.27 0.539-1.176 1.679-2.922 1.679-2.582 0-2.945-1.89-2.945-3.336v-8.648h-3.625v9.438c0 1.382 0.058 2.757 0.867 3.964 0.598 0.903 1.832 1.985 4.328 1.985 2.605 0 4.109-1.211 4.859-1.903v1.539zm3.863-15.023v15.023h3.637v-6.527c0-2.582 0.328-3.836 1.41-4.742 0.75-0.633 1.5-0.691 1.898-0.691 2.219 0 2.641 1.867 2.641 3.523v8.437h3.543v-10.457c0-2.945-1.68-5.011-4.867-5.011-0.602 0-3.274 0.175-4.625 2.218v-1.773zm20.512-2.348v-3.625h-3.578v3.625zm0 17.371v-15.023h-3.578v15.023zm13.843-5.855c-0.269 0.715-1.078 2.945-3.636 2.945-2.43 0-3.778-2.078-3.778-4.695 0-2.488 1.254-4.648 3.696-4.648 1.945 0 3.004 1.257 3.425 2.546l3.215-1.503c-0.574-1.407-2.558-4.258-6.465-4.258-4.949 0-7.601 4.047-7.601 7.957 0 4.472 3.004 7.957 7.426 7.957 3.004 0 5.738-1.715 6.781-4.684zm19.317 5.855c-0.602-0.964-0.66-1.293-0.66-2.429v-8.781c0-2.641-1.899-4.258-6.309-4.258-6.312 0-6.512 3.836-6.582 4.836l3.672 0.211c0-0.789 0.293-2.254 3.027-2.254 2.25 0 2.582 1.101 2.582 2.254-0.953 0.328-2.371 0.691-4.625 1.101-2.847 0.516-5.336 1.809-5.336 5.082 0 2.524 2.039 4.602 5.453 4.602 1.844 0 3.426-0.75 4.422-1.539l0.086 1.175zm-4.27-5.468c0 1.886-2.043 2.734-3.687 2.734-1.805 0-2.461-0.848-2.461-1.832 0-1.504 1.64-1.832 3.297-2.078 1.383-0.211 2.25-0.539 2.851-0.832zm5.649-6.996h2.191v8.941c0 2.465 1.02 3.641 4.234 3.641 1.235 0 2.102-0.176 2.583-0.235v-3.039c-0.446 0.117-0.985 0.188-1.5 0.188-0.153 0-0.93 0-1.352-0.461-0.328-0.364-0.363-1.02-0.363-1.594v-7.441h3.215v-2.559h-3.215v-5.352h-3.602v5.352h-2.191zm14.804-4.907v-3.625h-3.578v3.625zm0 17.371v-15.023h-3.578v15.023zm18.465-7.57c-0.019-5.715-4.468-7.898-7.742-7.898-5.312 0-7.684 4.297-7.684 7.898 0 3.66 2.336 8.016 7.801 8.016 5.106 0 7.625-3.992 7.625-8.016zm-11.672-0.094c0-3.027 1.774-4.566 3.871-4.566 2.758 0 4.047 2.43 4.047 4.836 0 2.289-1.23 4.543-3.871 4.543-2.578 0-4.047-2.172-4.047-4.813zm14.586-7.359v15.023h3.637v-6.527c0-2.582 0.332-3.836 1.41-4.742 0.75-0.633 1.5-0.691 1.899-0.691 2.218 0 2.64 1.867 2.64 3.523v8.437h3.543v-10.457c0-2.945-1.679-5.011-4.867-5.011-0.598 0-3.273 0.175-4.625 2.218v-1.773zm-285.15 38.27c0-4.082-1.645-8.672-7.379-8.672-3.906 0-7.543 2.488-7.543 7.863 0 4.988 3.25 8.051 7.719 8.051 3.929 0 6.121-2.184 7.332-3.813l-3.074-1.773c-0.293 0.515-1.372 2.078-3.93 2.078-3.485 0-4.176-2.981-4.235-3.734zm-10.992-2.641c0.129-0.598 0.691-3.156 3.672-3.156 2.812 0 3.293 2.406 3.351 3.156zm13.816-5.586v15.023h3.637v-6.523c0-2.582 0.328-3.84 1.406-4.742 0.75-0.633 1.5-0.692 1.899-0.692 2.218 0 2.64 1.864 2.64 3.52v8.437h3.543v-10.457c0-2.945-1.676-5.011-4.867-5.011-0.598 0-3.274 0.175-4.621 2.218v-1.773zm26.102-6.184v21.207h3.964v-7.207h4.047c5.524 0 7.754-3.097 7.754-6.945 0-4.355-3.156-7.055-7.543-7.055zm3.964 3.391h3.028c1.922 0 4.691 0.117 4.691 3.547 0 2.488-1.422 3.812-4.234 3.812h-3.485zm27.356 17.816c-0.598-0.96-0.656-1.289-0.656-2.429v-8.778c0-2.64-1.903-4.261-6.313-4.261-6.312 0-6.511 3.84-6.582 4.836l3.672 0.211c0-0.786 0.293-2.254 3.027-2.254 2.254 0 2.582 1.105 2.582 2.254-0.949 0.328-2.371 0.691-4.621 1.105-2.851 0.516-5.339 1.805-5.339 5.078 0 2.524 2.042 4.602 5.457 4.602 1.839 0 3.425-0.75 4.421-1.535l0.082 1.171zm-4.27-5.468c0 1.89-2.043 2.734-3.683 2.734-1.809 0-2.465-0.844-2.465-1.832 0-1.5 1.645-1.828 3.297-2.074 1.383-0.215 2.254-0.543 2.851-0.836zm15.95-9.555-2.817 11.211-3.367-11.211h-3.871l5.43 15.328c-0.118 0.387-0.446 1.586-2.426 1.586-0.305 0-0.633 0-0.996-0.059v3.122c0.574 0.128 0.996 0.21 2.133 0.21 1.171 0 2.136-0.14 3.062-0.89 1.266-1.035 2.016-3.699 2.559-5.598l3.988-13.699zm18.195 2.348c-2.25-2.618-5.277-2.793-6.449-2.793-3.602 0-6.453 1.914-6.453 4.894 0 3.543 4.047 4.297 5.218 4.508l1.868 0.328c1.382 0.246 2.214 0.574 2.214 1.442 0 0.66-0.773 1.773-2.941 1.773-2.254 0-3.602-0.961-4.32-1.926l-2.707 2.196c0.843 0.871 3.058 2.699 7.215 2.699 4.14 0 6.753-2.371 6.753-5.129 0-2.442-1.746-3.789-4.023-4.211l-2.438-0.445c-2.16-0.391-3.062-0.696-3.062-1.692 0-1.351 1.805-1.562 2.5-1.562 1.734 0 3.27 0.695 4.082 2.289zm25.562 12.675v-21.207h-3.578v7.418c-0.984-1.234-2.793-1.679-4.023-1.679-3.543 0-6.816 2.875-6.816 8.261 0 5.469 3.519 7.653 6.664 7.653 2.675 0 3.882-1.524 4.175-1.891v1.445zm-10.664-7.605c0-2.523 1.352-4.531 3.602-4.531 2.793 0 3.461 2.605 3.461 4.894 0 2.793-1.535 4.414-3.484 4.414-2.637 0-3.579-2.547-3.579-4.777zm28.618 0.809c0-4.082-1.641-8.672-7.375-8.672-3.911 0-7.547 2.488-7.547 7.863 0 4.988 3.25 8.051 7.722 8.051 3.926 0 6.121-2.184 7.332-3.813l-3.074-1.773c-0.293 0.515-1.375 2.078-3.933 2.078-3.481 0-4.176-2.981-4.235-3.734zm-10.993-2.641c0.133-0.598 0.696-3.156 3.676-3.156 2.813 0 3.293 2.406 3.352 3.156zm22.985-11.77v21.207h9.758c5.468 0 7.144-3.121 7.144-6.007 0-3.664-2.555-5.258-4.504-5.621 2.559-0.352 3.52-2.641 3.52-4.379 0-2.735-1.985-5.2-6.43-5.2zm3.929 3.239h4.118c1.593 0 3.777 0.457 3.777 2.617 0 2.101-2.125 2.676-3.895 2.676h-4zm0 8.261h4.411c1.652 0 4.504 0.368 4.504 3.336 0 1.559-0.985 2.946-3.684 2.946h-5.231zm30.27 2.911c0-4.082-1.641-8.672-7.379-8.672-3.906 0-7.543 2.488-7.543 7.863 0 4.988 3.25 8.051 7.719 8.051 3.93 0 6.125-2.184 7.332-3.813l-3.074-1.773c-0.293 0.515-1.371 2.078-3.93 2.078-3.484 0-4.176-2.981-4.234-3.734zm-10.992-2.641c0.129-0.598 0.691-3.156 3.672-3.156 2.816 0 3.297 2.406 3.355 3.156zm7.91-11.77h-4.484l-1.5 3.993h2.734zm19.031 21.207c-0.597-0.96-0.656-1.289-0.656-2.429v-8.778c0-2.64-1.902-4.261-6.313-4.261-6.308 0-6.511 3.84-6.582 4.836l3.672 0.211c0-0.786 0.297-2.254 3.028-2.254 2.254 0 2.582 1.105 2.582 2.254-0.95 0.328-2.371 0.691-4.621 1.105-2.852 0.516-5.34 1.805-5.34 5.078 0 2.524 2.043 4.602 5.457 4.602 1.84 0 3.426-0.75 4.422-1.535l0.082 1.171zm-4.269-5.468c0 1.89-2.043 2.734-3.684 2.734-1.808 0-2.465-0.844-2.465-1.832 0-1.5 1.645-1.828 3.297-2.074 1.387-0.215 2.254-0.543 2.852-0.836zm7.457-9.555v15.023h3.484v-6.429c0-0.871 0-1.621 0.27-2.465 0.867-2.758 3.754-2.758 4.504-2.758v-3.699h-0.305c-0.715 0-3.332 0.094-4.469 2.465v-2.137zm10.597 0v15.023h3.637v-6.523c0-2.582 0.328-3.84 1.406-4.742 0.75-0.633 1.5-0.692 1.903-0.692 2.215 0 2.636 1.864 2.636 3.52v8.437h3.543v-10.457c0-2.945-1.675-5.011-4.867-5.011-0.597 0-3.273 0.175-4.621 2.218v-1.773z" fill="#c4191c"/>
  <path id="path5" transform="scale(1.3333)" d="m335.62 230.48v49.797h32.777v8.297h-41.902v-58.094zm28.461 7.969v9.379h-0.328c-1.668-1.504-4.984-3.402-9.293-3.402-8.551 0-15.52 6.886-15.52 15.512 0 8.558 6.887 15.609 15.52 15.609 4.977 0 8.297-2.746 9.211-4.152h0.41v3.484h8.621v-44.399h-29.363v7.969zm-9.293 29.047c-4.316 0-7.719-3.402-7.719-7.723 0-4.316 3.321-7.722 7.719-7.722 4.238 0 7.543 3.406 7.543 7.64 0 4.403-3.305 7.805-7.543 7.805z" fill="#fff"/>
  <path id="path6" transform="scale(1.3333)" d="m437.5 256.96c5.152-1.828 8.391-5.809 8.391-11.875 0-9.297-7.063-14.602-17.34-14.602h-21v58.094h23.98c10.289 0 18.09-7.133 18.09-17.344 0-7.054-4.402-12.207-12.121-14.273zm-9.289-18.684c4.398 0 8.797 1.915 8.797 7.559 0 5.563-4.399 7.805-8.797 7.805h-11.531v-15.364zm-11.531 42.004v-17.933h14.605c4.891 0 9.207 3.16 9.207 8.968 0 5.481-4.398 8.965-9.125 8.965zm48.535-39.339c3.648 0 6.547-2.911 6.547-6.477 0-3.652-2.899-6.563-6.547-6.563-3.649 0-6.555 2.911-6.555 6.563 0 3.566 2.906 6.477 6.555 6.477zm-4.563 4.484h9.129v43.152h-9.129zm53.254-6.645v14.438h-0.41c-2.16-1.985-6.476-4.485-12.109-4.485-11.203 0-20.328 9.051-20.328 20.34 0 11.207 9.043 20.34 20.328 20.34 6.465 0 10.863-3.57 12.027-5.398h0.492v4.562h9.125v-58.094h-38.406v8.297zm-12.187 42.157c-6.723 0-12.039-5.387-12.039-12.11 0-6.726 5.234-12.125 12.039-12.125 6.637 0 11.941 5.399 11.941 12.043 0 6.805-5.304 12.192-11.941 12.192zm73.09-33.27c0-9.555-7.719-17.184-17.176-17.184h-24.895v58.094h9.129v-23.566h10.957l13.758 24.32 7.555-4.402-11.942-20.586c7.297-1.996 12.614-8.719 12.614-16.676zm-17.844-8.887c4.891 0 8.715 4.063 8.715 8.969 0 4.895-3.906 8.953-8.715 8.953h-15.098v-17.922zm62.891 33.121 0.332 2.653-0.25 0.082-26.137-44.153h-11.121v58.094h9.129v-42.414l-0.246-1.652 0.246-0.082 26.054 44.148h11.11v-58.094h-9.117zm18.332 16.676h39.816v-8.297h-30.691v-14.527l0.246-0.246c2.57 1.91 6.722 3.812 11.695 3.812 10.863 0 20.074-8.625 20.074-19.832 0-11.293-9.035-20.668-20.32-20.668-8.879 0-20.902 6.231-20.902 23.579zm20.574-51.203c6.547 0 11.945 5.387 11.945 12.113 0 6.559-5.398 11.946-11.945 11.946-6.555 0-11.871-5.387-11.871-11.946 0-6.726 5.316-12.113 11.871-12.113zm45.289 1.16c-0.492-0.176-1.652-0.34-2.406-0.34-4.481 0-7.133 3.239-7.133 6.399 0 2.816 1.41 4.644 3.566 5.972l12.039 7.559c5.465 3.402 8.457 7.547 8.457 13.684 0 10.797-9.457 17.605-18.172 17.605-9.289 0-15.261-5.812-17.668-12.453l7.133-4.238c1.832 3.488 4.235 8.133 10.535 8.133 5.149 0 8.879-3.239 8.879-7.711 0-3.403-1.324-5.809-4.07-7.473l-12.691-7.547c-4.059-2.418-6.805-6.644-6.805-12.617 0-10.715 9.469-15.856 16.176-15.856 1.586 0 3.238 0.247 4.07 0.493zm53.426 0.246v14.438h-0.411c-2.16-1.985-6.476-4.485-12.105-4.485-11.203 0-20.332 9.051-20.332 20.34 0 11.207 9.047 20.34 20.332 20.34 6.461 0 10.863-3.57 12.023-5.398h0.493v4.562h9.125v-58.094h-38.407v8.297zm-12.188 42.157c-6.723 0-12.035-5.387-12.035-12.11 0-6.726 5.23-12.125 12.035-12.125 6.641 0 11.942 5.399 11.942 12.043 0 6.805-5.301 12.192-11.942 12.192z" fill="#fff"/>
 </g>
</svg>
