<!-- Created with Inkscape (http://www.inkscape.org/) -->
<svg id="svg1" width="1274.7" height="905.33" sodipodi:docname="pdb_presentation_biarnesa_mde.pdf" version="1.1" viewBox="0 0 1274.7 905.33" xmlns="http://www.w3.org/2000/svg" xmlns:inkscape="http://www.inkscape.org/namespaces/inkscape" xmlns:sodipodi="http://sodipodi.sourceforge.net/DTD/sodipodi-0.dtd" xmlns:xlink="http://www.w3.org/1999/xlink">
 <sodipodi:namedview id="namedview1" bordercolor="#666666" borderopacity="1.0" inkscape:deskcolor="#d1d1d1" inkscape:pagecheckerboard="0" inkscape:pageopacity="0.0" inkscape:showpageshadow="2" pagecolor="#ffffff">
  <inkscape:page id="page195" x="-1.2011969e-05" y="0" width="1274.6667" height="905.33331" bleed="0" inkscape:label="47" margin="0"/>
 </sodipodi:namedview>
 <g id="g195" transform="translate(-12945)" inkscape:groupmode="layer" inkscape:label="47">
  <rect id="rect230" x="12945" width="1274.7" height="905.33" fill="#c4191c" stroke-dashoffset="34.016" stroke-linecap="round" stroke-linejoin="round" stroke-width="1.1792" style="paint-order:markers stroke fill"/>
  <path id="path198" transform="matrix(1.3333 0 0 1.3333 12945 0)" d="m148.72 155.58v14.434h-0.41c-2.157-1.981-6.477-4.481-12.106-4.481-11.203 0-20.332 9.047-20.332 20.336 0 11.211 9.047 20.34 20.332 20.34 6.465 0 10.863-3.566 12.024-5.399h0.492v4.567h9.129v-58.094h-38.41v8.297zm-12.188 42.156c-6.722 0-12.035-5.386-12.035-12.113 0-6.723 5.231-12.121 12.035-12.121 6.641 0 11.942 5.398 11.942 12.039 0 6.809-5.301 12.195-11.942 12.195zm40.395-12.523v20.164h-9.125v-58.094h21.328c10.367 0 18.91 8.379 18.91 18.918 0 10.457-8.457 19.012-18.91 19.012zm11.699-8.309c5.641 0 10.285-4.894 10.285-10.621 0-5.808-4.562-10.703-10.285-10.703h-11.699v21.324zm66.629-12.441c0-9.551-7.719-17.18-17.176-17.18h-24.894v58.094h9.129v-23.567h10.957l13.757 24.317 7.555-4.402-11.941-20.582c7.297-1.997 12.613-8.723 12.613-16.68zm-17.844-8.883c4.891 0 8.715 4.059 8.715 8.965 0 4.894-3.906 8.957-8.715 8.957h-15.097v-17.922zm24.977 49.797h39.812v-8.297h-30.687v-14.531l0.246-0.246c2.57 1.914 6.723 3.812 11.695 3.812 10.863 0 20.074-8.625 20.074-19.832 0-11.289-9.035-20.668-20.32-20.668-8.879 0-20.906 6.235-20.906 23.578zm20.574-51.207c6.547 0 11.941 5.387 11.941 12.113 0 6.559-5.394 11.945-11.941 11.945-6.559 0-11.871-5.386-11.871-11.945 0-6.726 5.312-12.113 11.871-12.113zm45.289 1.164c-0.496-0.176-1.656-0.34-2.406-0.34-4.481 0-7.133 3.238-7.133 6.395 0 2.816 1.406 4.648 3.566 5.972l12.036 7.559c5.468 3.402 8.461 7.547 8.461 13.683 0 10.797-9.458 17.606-18.172 17.606-9.293 0-15.262-5.809-17.668-12.453l7.132-4.235c1.829 3.485 4.235 8.133 10.536 8.133 5.148 0 8.879-3.238 8.879-7.711 0-3.402-1.325-5.808-4.071-7.476l-12.691-7.547c-4.059-2.418-6.805-6.641-6.805-12.617 0-10.715 9.465-15.856 16.176-15.856 1.586 0 3.238 0.25 4.07 0.496z" fill="#fff"/>
  <path id="path199" transform="matrix(1.3333 0 0 1.3333 12945 0)" d="m383.25 147.28v49.797h32.777v8.297h-41.906v-58.094zm28.457 7.969v9.375h-0.328c-1.664-1.5-4.984-3.402-9.289-3.402-8.551 0-15.52 6.89-15.52 15.515 0 8.555 6.887 15.61 15.52 15.61 4.973 0 8.293-2.747 9.207-4.157h0.41v3.489h8.625v-44.399h-29.363v7.969zm-9.289 29.047c-4.316 0-7.719-3.406-7.719-7.723 0-4.32 3.321-7.723 7.719-7.723 4.234 0 7.543 3.403 7.543 7.641 0 4.399-3.309 7.805-7.543 7.805z" fill="#fff"/>
  <path id="path200" transform="matrix(1.3333 0 0 1.3333 12945 0)" d="m472.43 155.34c-0.492-0.176-1.653-0.34-2.403-0.34-4.48 0-7.132 3.238-7.132 6.395 0 2.816 1.406 4.648 3.566 5.972l12.035 7.559c5.469 3.402 8.457 7.547 8.457 13.683 0 10.797-9.453 17.606-18.168 17.606-9.293 0-15.265-5.809-17.668-12.453l7.133-4.235c1.828 3.485 4.234 8.133 10.535 8.133 5.149 0 8.879-3.238 8.879-7.711 0-3.402-1.324-5.808-4.07-7.476l-12.695-7.547c-4.059-2.418-6.801-6.641-6.801-12.617 0-10.715 9.465-15.856 16.176-15.856 1.582 0 3.238 0.25 4.07 0.496zm47.797 50.875c16.257 0 29.281-13.039 29.281-29.879 0-16.855-13.024-29.883-29.281-29.883-16.27 0-29.293 13.028-29.293 29.883 0 16.84 13.023 29.879 29.293 29.879zm0-8.473c-10.371 0-20-8.133-20-21.406 0-13.285 9.629-21.418 20-21.418s19.992 8.133 19.992 21.418c0 13.273-9.621 21.406-19.992 21.406zm45.867-12.523v20.164h-9.125v-58.094h21.328c10.367 0 18.91 8.379 18.91 18.918 0 10.457-8.461 19.012-18.91 19.012zm11.695-8.309c5.645 0 10.289-4.894 10.289-10.621 0-5.808-4.562-10.703-10.289-10.703h-11.695v21.324zm57.242-21.324v14.434h-0.41c-2.156-1.981-6.472-4.481-12.105-4.481-11.203 0-20.328 9.047-20.328 20.336 0 11.211 9.043 20.34 20.328 20.34 6.465 0 10.863-3.566 12.023-5.399h0.492v4.567h9.129v-58.094h-38.406v8.297zm-12.187 42.156c-6.723 0-12.035-5.386-12.035-12.113 0-6.723 5.23-12.121 12.035-12.121 6.64 0 11.941 5.398 11.941 12.039 0 6.809-5.301 12.195-11.941 12.195zm-464.57 66.739c0.246 18.097-9.375 24.906-21.411 24.906-12.023 0-21.656-6.809-21.398-24.906v-34.024h9.129v34.024c-0.176 10.785 4.469 16.429 12.269 16.429 8.047 0 12.45-5.644 12.282-16.429v-34.024h9.129zm46.293 7.394 0.328 2.652-0.246 0.082-26.137-44.152h-11.121v58.094h9.129v-42.414l-0.246-1.653 0.246-0.082 26.054 44.149h11.106v-58.094h-9.113zm41.472-12.289c0 16.516 13.446 29.965 30.031 29.965 10.454 0 19.825-5.563 24.731-13.863l-7.227-4.071c-3.812 5.645-10.453 9.469-17.504 9.469-11.613 0-20.742-9.211-20.742-21.5 0-12.285 9.129-21.5 20.742-21.5 7.051 0 13.692 3.828 17.504 9.461l7.227-4.063c-4.906-8.296-14.277-13.859-24.731-13.859-16.585 0-30.031 13.449-30.031 29.961zm66.871-25.23 30.692 8.214 2.074-8.05-30.688-8.215zm14.934 55.031c12.437 0 22.476-9.883 22.476-22.828 0-12.946-10.039-22.828-22.476-22.828-12.445 0-22.488 9.882-22.488 22.828 0 12.945 10.043 22.828 22.488 22.828zm0-8.395c-7.309 0-13.688-5.55-13.688-14.433s6.379-14.446 13.688-14.446c7.297 0 13.691 5.563 13.691 14.446s-6.394 14.433-13.691 14.433zm39.07-12.601v20.16h-9.129v-58.094h21.328c10.372 0 18.911 8.383 18.911 18.922 0 10.453-8.461 19.012-18.911 19.012zm11.696-8.309c5.64 0 10.285-4.894 10.285-10.621 0-5.812-4.563-10.703-10.285-10.703h-11.696v21.324zm71.101-30.457c-8.883 0-16.098 2.652-21.41 6.563v52.363h33.937c13.528-7.465 17.094-17.836 17.094-28.387 0-17.183-11.121-30.539-29.621-30.539zm-12.285 50.629v-39.094c3.156-2.074 7.309-3.238 12.285-3.238 12.188 0 20.328 8.887 20.328 22.242 0 9.047-3.074 15.36-10.465 20.09zm50.617 8.297h39.813v-8.297h-30.688v-14.527l0.246-0.246c2.571 1.91 6.723 3.812 11.696 3.812 10.863 0 20.07-8.625 20.07-19.832 0-11.293-9.031-20.668-20.317-20.668-8.878 0-20.906 6.231-20.906 23.578zm20.574-51.203c6.547 0 11.942 5.386 11.942 12.113 0 6.559-5.395 11.945-11.942 11.945-6.558 0-11.871-5.386-11.871-11.945 0-6.727 5.313-12.113 11.871-12.113zm101.04-7.723c3.895 26.477-8.621 47.555-24.718 58.926h-7.227l-18.828-56.356 9.375-2.406 15.93 48.305c9.961-6.805 20.156-24.985 16.929-46.649zm15.684 11.289c3.645 0 6.543-2.91 6.543-6.476 0-3.649-2.898-6.563-6.543-6.563-3.652 0-6.559 2.914-6.559 6.563 0 3.566 2.907 6.476 6.559 6.476zm-4.566 4.485h9.129v43.152h-9.129zm57.992 26.476 0.328 2.652-0.246 0.082-26.137-44.152h-11.121v58.094h9.129v-42.414l-0.246-1.653 0.246-0.082 26.055 44.149h11.109v-58.094h-9.117zm-321.39 75.781c0.246 18.094-9.375 24.903-21.41 24.903-12.023 0-21.656-6.809-21.399-24.903v-34.023h9.129v34.023c-0.175 10.786 4.469 16.43 12.27 16.43 8.047 0 12.445-5.644 12.281-16.43v-34.023h9.129zm46.293 7.391 0.328 2.652-0.246 0.082-26.137-44.148h-11.121v58.094h9.125v-42.414l-0.246-1.657 0.246-0.082 26.055 44.153h11.109v-58.094h-9.113zm43.219 16.68h39.816v-8.297h-30.687v-14.531l0.246-0.247c2.566 1.914 6.719 3.813 11.695 3.813 10.863 0 20.07-8.625 20.07-19.832 0-11.289-9.031-20.668-20.316-20.668-8.883 0-20.906 6.23-20.906 23.578zm20.578-51.207c6.543 0 11.941 5.386 11.941 12.113 0 6.559-5.398 11.945-11.941 11.945-6.559 0-11.871-5.386-11.871-11.945 0-6.727 5.312-12.113 11.871-12.113zm45.285 1.164c-0.492-0.176-1.652-0.34-2.402-0.34-4.481 0-7.133 3.238-7.133 6.394 0 2.817 1.406 4.649 3.566 5.973l12.035 7.559c5.465 3.402 8.458 7.546 8.458 13.683 0 10.797-9.454 17.606-18.172 17.606-9.289 0-15.262-5.809-17.664-12.453l7.132-4.235c1.829 3.485 4.235 8.133 10.532 8.133 5.152 0 8.882-3.238 8.882-7.711 0-3.402-1.328-5.809-4.07-7.477l-12.695-7.546c-4.059-2.418-6.805-6.641-6.805-12.618 0-10.714 9.469-15.855 16.18-15.855 1.582 0 3.238 0.25 4.07 0.496zm18.5 21.078c0 16.512 13.445 29.961 30.031 29.961 10.453 0 19.828-5.563 24.731-13.86l-7.227-4.074c-3.812 5.645-10.453 9.473-17.504 9.473-11.613 0-20.738-9.215-20.738-21.5 0-12.289 9.125-21.5 20.738-21.5 7.051 0 13.692 3.824 17.504 9.457l7.227-4.059c-4.903-8.297-14.278-13.863-24.731-13.863-16.586 0-30.031 13.453-30.031 29.965zm103.79 4.894c0.246 18.094-9.375 24.903-21.41 24.903-12.024 0-21.656-6.809-21.399-24.903v-34.023h9.129v34.023c-0.175 10.786 4.469 16.43 12.27 16.43 8.047 0 12.445-5.644 12.281-16.43v-34.023h9.129zm51.02-34.023h-46.465v8.297h18.676v49.797h9.113v-49.797h18.676zm-349.27 82.34c-8.879 0-16.094 2.652-21.406 6.558v52.368h33.937c13.524-7.465 17.09-17.84 17.09-28.391 0-17.18-11.121-30.535-29.621-30.535zm-12.281 50.629v-39.094c3.156-2.078 7.308-3.238 12.281-3.238 12.191 0 20.332 8.882 20.332 22.238 0 9.051-3.074 15.363-10.465 20.094zm50.609 8.297h39.817v-8.297h-30.688v-14.532l0.246-0.246c2.566 1.914 6.719 3.817 11.695 3.817 10.864 0 20.071-8.629 20.071-19.836 0-11.289-9.032-20.668-20.317-20.668-8.883 0-20.906 6.234-20.906 23.578zm20.578-51.204c6.543 0 11.942 5.387 11.942 12.11 0 6.562-5.399 11.949-11.942 11.949-6.558 0-11.871-5.387-11.871-11.949 0-6.723 5.313-12.11 11.871-12.11zm82.047 29.457 18.16-36.347h10.371v58.094h-9.125l0.34-44.153h-0.34l-16.097 33.86h-7.133l-16.094-33.86h-0.328l0.328 44.153h-9.125l-0.082-58.094h10.367l18.418 36.347zm37.746 21.747h39.817v-8.297h-30.692v-14.532l0.25-0.246c2.567 1.914 6.719 3.817 11.695 3.817 10.864 0 20.071-8.629 20.071-19.836 0-11.289-9.031-20.668-20.317-20.668-8.882 0-20.906 6.234-20.906 23.578zm20.578-51.204c6.543 0 11.942 5.387 11.942 12.11 0 6.562-5.399 11.949-11.942 11.949-6.558 0-11.875-5.387-11.875-11.949 0-6.723 5.317-12.11 11.875-12.11zm65.207 34.528 0.328 2.652-0.246 0.082-26.14-44.152h-11.117v58.094h9.125v-42.415l-0.247-1.656 0.247-0.082 26.054 44.153h11.11v-58.094h-9.114zm36.325-33.367c-0.493-0.176-1.653-0.34-2.403-0.34-4.48 0-7.133 3.238-7.133 6.394 0 2.817 1.407 4.649 3.567 5.977l12.035 7.558c5.469 3.403 8.457 7.543 8.457 13.684 0 10.797-9.453 17.602-18.168 17.602-9.293 0-15.266-5.809-17.668-12.45l7.133-4.238c1.828 3.484 4.234 8.133 10.535 8.133 5.148 0 8.879-3.238 8.879-7.711 0-3.402-1.328-5.809-4.07-7.477l-12.696-7.543c-4.058-2.418-6.8-6.644-6.8-12.617 0-10.715 9.464-15.855 16.175-15.855 1.582 0 3.239 0.246 4.071 0.492zm20.988-8.051h9.129v24.726h26.793v-24.726h9.125v58.094h-9.125v-25.067h-26.793v25.067h-9.129zm-301.3 83.172h-46.469v8.297h18.676v49.796h9.117v-49.796h18.676zm37.82 8.297v14.433h-0.41c-2.16-1.98-6.476-4.48-12.109-4.48-11.203 0-20.328 9.047-20.328 20.336 0 11.207 9.043 20.339 20.328 20.339 6.465 0 10.863-3.566 12.027-5.398h0.492v4.566h9.125v-58.093h-38.406v8.297zm-12.187 42.156c-6.723 0-12.039-5.387-12.039-12.114 0-6.722 5.234-12.121 12.039-12.121 6.637 0 11.941 5.399 11.941 12.039 0 6.809-5.304 12.196-11.941 12.196zm73.254-16.43c0.246 18.094-9.375 24.902-21.41 24.902-12.024 0-21.657-6.808-21.399-24.902v-34.023h9.129v34.023c-0.176 10.785 4.469 16.43 12.27 16.43 8.046 0 12.445-5.645 12.281-16.43v-34.023h9.129zm63.136 2.32 18.157-36.343h10.371v58.093h-9.125l0.34-44.152h-0.34l-16.098 33.859h-7.129l-16.097-33.859h-0.329l0.329 44.152h-9.125l-0.082-58.093h10.367l18.422 36.343zm37.743 21.75h39.816v-8.3h-30.687v-14.528l0.246-0.246c2.566 1.914 6.722 3.813 11.695 3.813 10.863 0 20.07-8.625 20.07-19.832 0-11.289-9.031-20.668-20.316-20.668-8.883 0-20.906 6.23-20.906 23.578zm20.578-51.207c6.543 0 11.941 5.387 11.941 12.114 0 6.558-5.398 11.945-11.941 11.945-6.559 0-11.871-5.387-11.871-11.945 0-6.727 5.312-12.114 11.871-12.114zm49.437-7.722c-8.879 0-16.093 2.652-21.406 6.562v52.367h33.938c13.523-7.464 17.089-17.839 17.089-28.39 0-17.184-11.121-30.539-29.621-30.539zm-12.281 50.629v-39.09c3.156-2.078 7.309-3.238 12.281-3.238 12.192 0 20.332 8.882 20.332 22.238 0 9.047-3.074 15.363-10.464 20.09zm50.609 8.3h39.817v-8.3h-30.688v-14.528l0.246-0.246c2.571 1.914 6.723 3.813 11.696 3.813 10.863 0 20.074-8.625 20.074-19.832 0-11.289-9.035-20.668-20.32-20.668-8.879 0-20.907 6.23-20.907 23.578zm20.579-51.207c6.546 0 11.941 5.387 11.941 12.114 0 6.558-5.395 11.945-11.941 11.945-6.559 0-11.872-5.387-11.872-11.945 0-6.727 5.313-12.114 11.872-12.114zm25.543 22.243c0 16.511 13.445 29.96 30.031 29.96 10.453 0 19.828-5.562 24.73-13.859l-7.226-4.074c-3.813 5.644-10.453 9.473-17.504 9.473-11.613 0-20.739-9.215-20.739-21.5 0-12.29 9.126-21.5 20.739-21.5 7.051 0 13.691 3.824 17.504 9.457l7.226-4.059c-4.902-8.301-14.277-13.863-24.73-13.863-16.586 0-30.031 13.449-30.031 29.965zm68.117-18.672c3.648 0 6.547-2.91 6.547-6.481 0-3.648-2.899-6.558-6.547-6.558-3.649 0-6.559 2.91-6.559 6.558 0 3.571 2.91 6.481 6.559 6.481zm-4.563 4.48h9.125v43.156h-9.125zm57.992 26.477 0.329 2.652-0.247 0.082-26.136-44.148h-11.121v58.093h9.125v-42.414l-0.246-1.656 0.246-0.082 26.054 44.152h11.11v-58.093h-9.114z" fill="#fff"/>
 </g>
</svg>
