<!-- Created with Inkscape (http://www.inkscape.org/) -->
<svg id="svg1" width="1274.7" height="904" sodipodi:docname="pdb_presentation_biarnesa_mde.pdf" version="1.1" viewBox="0 0 1274.7 904" xmlns="http://www.w3.org/2000/svg" xmlns:inkscape="http://www.inkscape.org/namespaces/inkscape" xmlns:sodipodi="http://sodipodi.sourceforge.net/DTD/sodipodi-0.dtd" xmlns:xlink="http://www.w3.org/1999/xlink">
 <defs id="defs1">
  <clipPath id="clipPath62">
   <path id="path62" d="m50.934 143.18h842.78v495.99h-842.78z"/>
  </clipPath>
  <clipPath id="clipPath64">
   <path id="path64" d="m50.934 143.18h842.78v495.99h-842.78z"/>
  </clipPath>
  <clipPath id="clipPath66">
   <path id="path66" d="m50.934 143.18h842.78v495.99h-842.78z"/>
  </clipPath>
  <clipPath id="clipPath68">
   <path id="path68" transform="scale(1 -1.001)" d="m50.934 143.18h842.78v495.99h-842.78z"/>
  </clipPath>
  <clipPath id="clipPath70">
   <path id="path70" transform="scale(1 -1.001)" d="m50.934 143.18h842.78v495.99h-842.78z"/>
  </clipPath>
  <clipPath id="clipPath72">
   <path id="path72" transform="scale(1 -1.001)" d="m50.934 143.18h842.78v495.99h-842.78z"/>
  </clipPath>
  <clipPath id="clipPath74">
   <path id="path74" transform="scale(1 -1.001)" d="m50.934 143.18h842.78v495.99h-842.78z"/>
  </clipPath>
  <clipPath id="clipPath75">
   <path id="path75" transform="scale(1 -1.001)" d="m0 0h956v678h-956z"/>
  </clipPath>
  <clipPath id="clipPath77">
   <path id="path77" transform="matrix(1.3333 0 0 1.3333 7768 0)" d="m50.934 143.18h842.78v495.99h-842.78z"/>
  </clipPath>
  <clipPath id="clipPath79">
   <path id="path79" transform="scale(1 -1.001)" d="m50.934 143.18h842.78v495.99h-842.78z"/>
  </clipPath>
  <clipPath id="clipPath81">
   <path id="path81" transform="scale(1 -1.001)" d="m50.934 143.18h842.78v495.99h-842.78z"/>
  </clipPath>
  <clipPath id="clipPath83">
   <path id="path83" transform="scale(1 -1.001)" d="m50.934 143.18h842.78v495.99h-842.78z"/>
  </clipPath>
  <clipPath id="clipPath85">
   <path id="path85" transform="scale(1 -1.001)" d="m50.934 143.18h842.78v495.99h-842.78z"/>
  </clipPath>
  <clipPath id="clipPath87">
   <path id="path87" transform="scale(1 -1.001)" d="m50.934 143.18h842.78v495.99h-842.78z"/>
  </clipPath>
 </defs>
 <sodipodi:namedview id="namedview1" bordercolor="#666666" borderopacity="1.0" inkscape:deskcolor="#d1d1d1" inkscape:pagecheckerboard="0" inkscape:pageopacity="0.0" inkscape:showpageshadow="2" pagecolor="#ffffff">
  <inkscape:page id="page55" x="0" y="0" width="1274.6667" height="904" bleed="0" inkscape:label="43" margin="0"/>
 </sodipodi:namedview>
 <g id="g55" transform="translate(-7768)" inkscape:groupmode="layer" inkscape:label="43">
  <rect id="rect232-3-7-0" x="7768" width="1274.7" height="904" fill="#fff" stroke-dashoffset="34.016" stroke-linecap="round" stroke-linejoin="round" stroke-width="1.1792" style="paint-order:markers stroke fill"/>
  <path id="path56" transform="matrix(1.3333 0 0 1.3333 7768 0)" d="m32.176 21.742-10.414-10.402-10.41 10.402 1.484 1.485 8.926-8.915 7.441 7.43-7.441 7.43-1.489-1.484 5.954-5.946-1.489-1.484-5.949 5.941-1.488-1.484 5.949-5.945-1.488-1.485-7.438 7.43 7.438 7.43z" fill="#323232"/>
  <path id="path61" transform="matrix(1.3333 0 0 1.3333 7768 0)" d="m84.73 492h3.672v5.027c-0.605 0.2-1.183 0.336-1.738 0.411-0.547 0.086-1.144 0.128-1.793 0.128-1.512 0-2.676-0.445-3.496-1.347-0.82-0.895-1.23-2.16-1.23-3.797 0-1.606 0.457-2.863 1.382-3.773 0.93-0.903 2.207-1.36 3.825-1.36 1.046 0 2.035 0.199 2.968 0.598l-0.574 1.359c-0.808-0.375-1.617-0.562-2.43-0.562-1.074 0-1.921 0.34-2.546 1.008-0.618 0.675-0.926 1.593-0.926 2.753 0 1.219 0.277 2.153 0.832 2.789 0.562 0.633 1.375 0.95 2.429 0.95 0.524 0 1.086-0.063 1.688-0.2v-2.578h-2.063zm9.215 5.566c-1.183 0-2.105-0.339-2.769-1.031-0.656-0.683-0.985-1.629-0.985-2.836 0-1.23 0.305-2.203 0.914-2.906 0.618-0.707 1.465-1.066 2.547-1.066 1 0 1.789 0.304 2.368 0.914 0.578 0.605 0.871 1.437 0.871 2.496v0.867h-5.047c0.023 0.738 0.218 1.301 0.586 1.699 0.379 0.395 0.906 0.586 1.586 0.586 0.445 0 0.859-0.035 1.242-0.117 0.39-0.082 0.808-0.227 1.258-0.434v1.313c-0.403 0.187-0.801 0.324-1.2 0.398-0.398 0.078-0.855 0.117-1.371 0.117zm-0.293-6.621c-0.515 0-0.929 0.164-1.234 0.493-0.305 0.324-0.488 0.793-0.551 1.406h3.438c-8e-3 -0.621-0.16-1.094-0.457-1.418-0.289-0.317-0.688-0.481-1.196-0.481zm-1.035-2.003v-0.176c0.262-0.317 0.524-0.672 0.801-1.067 0.281-0.386 0.504-0.726 0.668-1.007h1.863v0.152c-0.242 0.277-0.597 0.633-1.066 1.078-0.469 0.441-0.867 0.781-1.195 1.02zm12.801 4.687c0 1.238-0.316 2.203-0.949 2.895-0.637 0.699-1.516 1.042-2.641 1.042-0.711 0-1.344-0.156-1.89-0.48-0.54-0.316-0.954-0.773-1.243-1.371s-0.433-1.293-0.433-2.086c0-1.223 0.312-2.18 0.937-2.871 0.633-0.684 1.52-1.031 2.664-1.031 1.094 0 1.957 0.351 2.594 1.054s0.961 1.653 0.961 2.848zm-5.504 0c0 1.754 0.648 2.625 1.938 2.625 1.273 0 1.91-0.871 1.91-2.625 0-1.723-0.641-2.59-1.922-2.59-0.68 0-1.172 0.223-1.477 0.668-0.301 0.445-0.449 1.09-0.449 1.922zm13.738 3.797h-1.617v-4.664c0-0.574-0.113-1.008-0.328-1.289-0.223-0.285-0.562-0.434-1.023-0.434-0.625 0-1.082 0.207-1.372 0.61-0.289 0.398-0.433 1.066-0.433 2.003v3.774h-1.609v-7.559h1.257l0.235 0.985h0.082c0.203-0.356 0.504-0.633 0.902-0.832 0.406-0.192 0.848-0.293 1.324-0.293 1.168 0 1.938 0.398 2.313 1.195h0.105c0.227-0.375 0.543-0.668 0.95-0.879 0.406-0.211 0.871-0.316 1.398-0.316 0.906 0 1.562 0.234 1.969 0.691 0.414 0.457 0.621 1.148 0.621 2.074v4.934h-1.606v-4.664c0-0.574-0.113-1.008-0.34-1.289-0.218-0.285-0.558-0.434-1.019-0.434-0.629 0-1.086 0.199-1.375 0.586-0.289 0.395-0.434 0.992-0.434 1.793zm10.325 0.14c-1.184 0-2.106-0.339-2.77-1.031-0.656-0.683-0.984-1.629-0.984-2.836 0-1.23 0.304-2.203 0.914-2.906 0.617-0.707 1.468-1.066 2.547-1.066 1 0 1.789 0.304 2.367 0.914 0.578 0.605 0.871 1.437 0.871 2.496v0.867h-5.047c0.023 0.738 0.219 1.301 0.59 1.699 0.375 0.395 0.902 0.586 1.582 0.586 0.445 0 0.859-0.035 1.242-0.117 0.391-0.082 0.813-0.227 1.258-0.434v1.313c-0.399 0.187-0.801 0.324-1.199 0.398-0.399 0.078-0.856 0.117-1.371 0.117zm-0.293-6.621c-0.516 0-0.926 0.164-1.231 0.493-0.308 0.324-0.492 0.793-0.555 1.406h3.438c-8e-3 -0.621-0.16-1.094-0.457-1.418-0.289-0.317-0.688-0.481-1.195-0.481zm-1.032-2.003v-0.176c0.258-0.317 0.52-0.672 0.797-1.067 0.281-0.386 0.504-0.726 0.668-1.007h1.863v0.152c-0.242 0.277-0.597 0.633-1.066 1.078-0.469 0.441-0.867 0.781-1.195 1.02zm8.907 7.324c0.398 0 0.789-0.059 1.183-0.188v1.207c-0.183 0.082-0.41 0.145-0.691 0.199-0.281 0.055-0.574 0.082-0.867 0.082-1.528 0-2.289-0.8-2.289-2.414v-4.066h-1.032v-0.715l1.102-0.586 0.551-1.605h0.996v1.687h2.148v1.219h-2.148v4.043c0 0.395 0.093 0.68 0.285 0.867 0.191 0.184 0.445 0.27 0.762 0.27zm6.527-6.539c0.328 0 0.598 0.023 0.809 0.07l-0.165 1.5c-0.226-0.051-0.46-0.082-0.703-0.082-0.652 0-1.172 0.211-1.57 0.633-0.402 0.418-0.602 0.961-0.602 1.629v3.949h-1.605v-7.559h1.254l0.211 1.325h0.082c0.258-0.446 0.59-0.797 0.988-1.067 0.403-0.262 0.836-0.398 1.301-0.398zm3.809 7.699h-1.606v-7.559h1.606zm-1.7-9.563c0-0.285 0.075-0.507 0.235-0.668 0.156-0.152 0.379-0.234 0.668-0.234s0.511 0.082 0.668 0.234c0.156 0.161 0.234 0.383 0.234 0.668 0 0.278-0.078 0.493-0.234 0.645-0.157 0.16-0.379 0.234-0.668 0.234s-0.512-0.074-0.668-0.234c-0.16-0.152-0.235-0.367-0.235-0.645zm7.008 8.414c0.672 0 1.152-0.191 1.445-0.585 0.293-0.387 0.446-0.977 0.446-1.77v-0.246c0-0.938-0.153-1.606-0.457-2.016-0.301-0.41-0.789-0.621-1.469-0.621-0.57 0-1.008 0.235-1.313 0.692-0.3 0.457-0.445 1.109-0.445 1.957 0 1.73 0.598 2.589 1.793 2.589zm-0.457 1.289c-0.937 0-1.676-0.339-2.207-1.031-0.523-0.683-0.785-1.644-0.785-2.883 0-1.222 0.266-2.183 0.797-2.882 0.543-0.692 1.285-1.043 2.23-1.043 0.477 0 0.903 0.093 1.278 0.269 0.379 0.176 0.711 0.457 1.011 0.856h0.059l0.176-0.985h1.336v10.922h-1.618v-3.211c0-0.191 4e-3 -0.398 0.024-0.621 0.012-0.223 0.027-0.398 0.047-0.527h-0.082c-0.481 0.762-1.235 1.136-2.266 1.136zm11.524-0.14-0.223-0.996h-0.082c-0.231 0.351-0.551 0.633-0.961 0.832-0.41 0.203-0.879 0.304-1.41 0.304-0.914 0-1.602-0.222-2.051-0.679-0.457-0.457-0.684-1.149-0.684-2.074v-4.946h1.621v4.664c0 0.582 0.118 1.016 0.352 1.301 0.242 0.293 0.617 0.434 1.125 0.434 0.672 0 1.164-0.2 1.481-0.598 0.32-0.402 0.48-1.082 0.48-2.039v-3.762h1.617v7.559zm6.867 0.14c-1.18 0-2.106-0.339-2.766-1.031-0.66-0.683-0.988-1.629-0.988-2.836 0-1.23 0.305-2.203 0.918-2.906 0.613-0.707 1.465-1.066 2.543-1.066 1 0 1.789 0.304 2.371 0.914 0.578 0.605 0.867 1.437 0.867 2.496v0.867h-5.043c0.023 0.738 0.215 1.301 0.586 1.699 0.375 0.395 0.902 0.586 1.582 0.586 0.445 0 0.859-0.035 1.246-0.117s0.809-0.227 1.254-0.434v1.313c-0.398 0.187-0.797 0.324-1.195 0.398-0.399 0.078-0.86 0.117-1.375 0.117zm-0.293-6.621c-0.516 0-0.926 0.164-1.231 0.493-0.304 0.324-0.492 0.793-0.551 1.406h3.438c-0.012-0.621-0.164-1.094-0.457-1.418-0.293-0.317-0.691-0.481-1.199-0.481zm12.011 6.621c-1.183 0-2.105-0.339-2.769-1.031-0.656-0.683-0.984-1.629-0.984-2.836 0-1.23 0.304-2.203 0.914-2.906 0.617-0.707 1.464-1.066 2.546-1.066 1 0 1.79 0.304 2.368 0.914 0.578 0.605 0.867 1.437 0.867 2.496v0.867h-5.043c0.023 0.738 0.219 1.301 0.586 1.699 0.375 0.395 0.906 0.586 1.586 0.586 0.445 0 0.859-0.035 1.242-0.117 0.391-0.082 0.809-0.227 1.254-0.434v1.313c-0.399 0.187-0.797 0.324-1.195 0.398-0.399 0.078-0.856 0.117-1.372 0.117zm-0.293-6.621c-0.519 0-0.929 0.164-1.234 0.493-0.305 0.324-0.488 0.793-0.551 1.406h3.438c-8e-3 -0.621-0.16-1.094-0.457-1.418-0.289-0.317-0.688-0.481-1.196-0.481zm7.872 5.321c0.402 0 0.793-0.059 1.187-0.188v1.207c-0.183 0.082-0.41 0.145-0.691 0.199-0.282 0.055-0.575 0.082-0.871 0.082-1.524 0-2.286-0.8-2.286-2.414v-4.066h-1.035v-0.715l1.106-0.586 0.551-1.605h0.996v1.687h2.148v1.219h-2.148v4.043c0 0.395 0.093 0.68 0.281 0.867 0.195 0.184 0.449 0.27 0.762 0.27zm12.718 1.16h-1.621v-4.664c0-0.574-0.109-1.008-0.328-1.289-0.219-0.285-0.558-0.434-1.019-0.434-0.629 0-1.086 0.207-1.372 0.61-0.292 0.398-0.433 1.066-0.433 2.003v3.774h-1.609v-7.559h1.257l0.235 0.985h0.082c0.199-0.356 0.504-0.633 0.902-0.832 0.402-0.192 0.848-0.293 1.324-0.293 1.164 0 1.938 0.398 2.313 1.195h0.105c0.227-0.375 0.543-0.668 0.95-0.879 0.406-0.211 0.871-0.316 1.398-0.316 0.906 0 1.562 0.234 1.969 0.691 0.414 0.457 0.621 1.148 0.621 2.074v4.934h-1.606v-4.664c0-0.574-0.117-1.008-0.34-1.289-0.222-0.285-0.562-0.434-1.023-0.434-0.625 0-1.082 0.199-1.371 0.586-0.289 0.395-0.434 0.992-0.434 1.793zm13.727-3.797c0 1.238-0.317 2.203-0.949 2.895-0.633 0.699-1.512 1.042-2.641 1.042-0.711 0-1.34-0.156-1.887-0.48-0.539-0.316-0.957-0.773-1.242-1.371-0.293-0.598-0.437-1.293-0.437-2.086 0-1.223 0.312-2.18 0.941-2.871 0.633-0.684 1.52-1.031 2.66-1.031 1.094 0 1.961 0.351 2.594 1.054 0.641 0.703 0.961 1.653 0.961 2.848zm-5.5 0c0 1.754 0.644 2.625 1.933 2.625 1.274 0 1.915-0.871 1.915-2.625 0-1.723-0.641-2.59-1.926-2.59-0.68 0-1.172 0.223-1.477 0.668-0.301 0.445-0.445 1.09-0.445 1.922zm9.91 3.937c-0.949 0-1.687-0.339-2.219-1.019-0.523-0.684-0.785-1.652-0.785-2.895 0-1.23 0.266-2.191 0.797-2.882 0.539-0.692 1.281-1.043 2.23-1.043 0.993 0 1.75 0.371 2.274 1.101h0.082c-0.078-0.543-0.117-0.972-0.117-1.289v-2.754h1.621v10.641h-1.266l-0.285-0.996h-0.07c-0.516 0.762-1.27 1.136-2.262 1.136zm0.422-1.3c0.664 0 1.144-0.18 1.441-0.551 0.305-0.375 0.461-0.977 0.469-1.816v-0.223c0-0.949-0.156-1.629-0.469-2.027-0.304-0.403-0.789-0.61-1.453-0.61-0.562 0-0.996 0.235-1.301 0.692-0.304 0.457-0.46 1.109-0.46 1.957 0 0.839 0.148 1.476 0.449 1.921 0.293 0.442 0.738 0.657 1.324 0.657zm11.09 1.16-0.223-0.996h-0.082c-0.23 0.351-0.551 0.633-0.965 0.832-0.406 0.203-0.875 0.304-1.406 0.304-0.914 0-1.602-0.222-2.055-0.679s-0.679-1.149-0.679-2.074v-4.946h1.621v4.664c0 0.582 0.117 1.016 0.351 1.301 0.239 0.293 0.614 0.434 1.125 0.434 0.672 0 1.164-0.2 1.477-0.598 0.32-0.402 0.484-1.082 0.484-2.039v-3.762h1.617v7.559zm5.168 0h-1.606v-10.641h1.606zm7.043 0-0.328-1.055h-0.047c-0.371 0.465-0.739 0.781-1.102 0.949-0.371 0.164-0.847 0.246-1.433 0.246-0.747 0-1.321-0.199-1.735-0.597-0.418-0.403-0.621-0.973-0.621-1.711 0-0.777 0.285-1.363 0.867-1.758 0.578-0.398 1.457-0.613 2.637-0.656l1.316-0.035v-0.41c0-0.481-0.113-0.844-0.339-1.079-0.231-0.238-0.582-0.363-1.059-0.363-0.383 0-0.754 0.059-1.113 0.176-0.352 0.113-0.692 0.246-1.02 0.398l-0.527-1.148c0.414-0.211 0.859-0.367 1.347-0.481 0.493-0.117 0.954-0.175 1.383-0.175 0.965 0 1.692 0.211 2.184 0.632 0.492 0.418 0.738 1.075 0.738 1.969v5.098zm-2.395-1.09c0.578 0 1.047-0.164 1.399-0.492 0.355-0.328 0.539-0.785 0.539-1.371v-0.657l-0.973 0.036c-0.762 0.035-1.312 0.164-1.656 0.386-0.344 0.231-0.516 0.575-0.516 1.032 0 0.339 0.098 0.597 0.293 0.785 0.203 0.187 0.508 0.281 0.914 0.281zm7.391 1.09h-1.606v-7.559h1.606zm-1.699-9.563c0-0.285 0.074-0.507 0.234-0.668 0.156-0.152 0.379-0.234 0.668-0.234s0.512 0.082 0.668 0.234c0.156 0.161 0.234 0.383 0.234 0.668 0 0.278-0.078 0.493-0.234 0.645-0.156 0.16-0.379 0.234-0.668 0.234s-0.512-0.074-0.668-0.234c-0.16-0.152-0.234-0.367-0.234-0.645zm7.839 1.864c0.329 0 0.598 0.023 0.809 0.07l-0.164 1.5c-0.231-0.051-0.465-0.082-0.703-0.082-0.652 0-1.176 0.211-1.574 0.633-0.399 0.418-0.598 0.961-0.598 1.629v3.949h-1.606v-7.559h1.254l0.211 1.325h0.082c0.258-0.446 0.586-0.797 0.985-1.067 0.406-0.262 0.84-0.398 1.304-0.398zm5.512 7.839c-1.18 0-2.105-0.339-2.769-1.031-0.657-0.683-0.985-1.629-0.985-2.836 0-1.23 0.305-2.203 0.914-2.906 0.618-0.707 1.469-1.066 2.547-1.066 1 0 1.789 0.304 2.371 0.914 0.578 0.605 0.867 1.437 0.867 2.496v0.867h-5.043c0.024 0.738 0.215 1.301 0.586 1.699 0.375 0.395 0.903 0.586 1.582 0.586 0.446 0 0.86-0.035 1.247-0.117 0.386-0.082 0.808-0.227 1.253-0.434v1.313c-0.398 0.187-0.796 0.324-1.195 0.398-0.402 0.078-0.859 0.117-1.375 0.117zm-0.293-6.621c-0.515 0-0.926 0.164-1.23 0.493-0.305 0.324-0.492 0.793-0.551 1.406h3.437c-0.011-0.621-0.164-1.094-0.461-1.418-0.289-0.317-0.687-0.481-1.195-0.481zm54.625 1.137h1.141c0.754 0 1.308-0.14 1.652-0.422 0.344-0.285 0.516-0.707 0.516-1.265 0-0.563-0.188-0.961-0.563-1.207-0.367-0.246-0.922-0.375-1.664-0.375h-1.082zm0 1.348v3.996h-1.629v-9.996h2.828c1.289 0 2.243 0.246 2.86 0.726 0.617 0.489 0.929 1.215 0.929 2.18 0 1.254-0.644 2.141-1.937 2.66l2.828 4.43h-1.867l-2.391-3.996zm10.457 4.136c-1.183 0-2.105-0.339-2.769-1.031-0.657-0.683-0.985-1.629-0.985-2.836 0-1.23 0.305-2.203 0.914-2.906 0.618-0.707 1.469-1.066 2.547-1.066 1 0 1.789 0.304 2.371 0.914 0.575 0.605 0.868 1.437 0.868 2.496v0.867h-5.047c0.023 0.738 0.218 1.301 0.59 1.699 0.374 0.395 0.902 0.586 1.582 0.586 0.445 0 0.859-0.035 1.242-0.117 0.39-0.082 0.812-0.227 1.258-0.434v1.313c-0.399 0.187-0.801 0.324-1.2 0.398-0.398 0.078-0.855 0.117-1.371 0.117zm-0.293-6.621c-0.515 0-0.926 0.164-1.23 0.493-0.309 0.324-0.492 0.793-0.555 1.406h3.438c-8e-3 -0.621-0.161-1.094-0.457-1.418-0.29-0.317-0.688-0.481-1.196-0.481zm6.664 6.481h-1.605v-10.641h1.605zm3.91 0h-1.605v-7.559h1.605zm-1.699-9.563c0-0.285 0.074-0.507 0.235-0.668 0.156-0.152 0.379-0.234 0.668-0.234s0.511 0.082 0.668 0.234c0.156 0.161 0.234 0.383 0.234 0.668 0 0.278-0.078 0.493-0.234 0.645-0.157 0.16-0.379 0.234-0.668 0.234s-0.512-0.074-0.668-0.234c-0.161-0.152-0.235-0.367-0.235-0.645zm7.051 9.703c-1.141 0-2.012-0.328-2.602-0.996-0.597-0.668-0.894-1.628-0.894-2.882 0-1.27 0.309-2.25 0.93-2.93 0.625-0.684 1.523-1.031 2.695-1.031 0.801 0 1.519 0.152 2.16 0.445l-0.48 1.289c-0.68-0.262-1.243-0.398-1.692-0.398-1.304 0-1.957 0.875-1.957 2.613 0 0.844 0.156 1.484 0.481 1.91 0.328 0.422 0.808 0.633 1.441 0.633 0.711 0 1.391-0.176 2.031-0.527v1.394c-0.289 0.176-0.597 0.293-0.925 0.363-0.325 0.078-0.715 0.117-1.188 0.117zm8.629-0.14-0.328-1.055h-0.047c-0.367 0.465-0.734 0.781-1.102 0.949-0.371 0.164-0.843 0.246-1.433 0.246-0.742 0-1.321-0.199-1.735-0.597-0.418-0.403-0.621-0.973-0.621-1.711 0-0.777 0.285-1.363 0.867-1.758 0.579-0.398 1.458-0.613 2.641-0.656l1.313-0.035v-0.41c0-0.481-0.114-0.844-0.34-1.079-0.231-0.238-0.582-0.363-1.055-0.363-0.387 0-0.758 0.059-1.117 0.176-0.352 0.113-0.692 0.246-1.02 0.398l-0.527-1.148c0.414-0.211 0.863-0.367 1.348-0.481 0.496-0.117 0.953-0.175 1.386-0.175 0.961 0 1.688 0.211 2.18 0.632 0.492 0.418 0.742 1.075 0.742 1.969v5.098zm-2.391-1.09c0.578 0 1.043-0.164 1.395-0.492 0.359-0.328 0.539-0.785 0.539-1.371v-0.657l-0.973 0.036c-0.761 0.035-1.312 0.164-1.656 0.386-0.344 0.231-0.516 0.575-0.516 1.032 0 0.339 0.098 0.597 0.293 0.785 0.203 0.187 0.508 0.281 0.918 0.281zm8.594-0.07c0.398 0 0.793-0.059 1.184-0.188v1.207c-0.18 0.082-0.41 0.145-0.692 0.199-0.281 0.055-0.57 0.082-0.867 0.082-1.523 0-2.289-0.8-2.289-2.414v-4.066h-1.031v-0.715l1.101-0.586 0.555-1.605h0.996v1.687h2.145v1.219h-2.145v4.043c0 0.395 0.094 0.68 0.281 0.867 0.196 0.184 0.45 0.27 0.762 0.27zm7.785-0.996c0 0.746-0.269 1.312-0.808 1.711-0.543 0.394-1.317 0.585-2.325 0.585-1.004 0-1.812-0.152-2.429-0.457v-1.394c0.894 0.418 1.718 0.621 2.488 0.621 0.992 0 1.488-0.297 1.488-0.902 0-0.188-0.054-0.34-0.164-0.469-0.109-0.129-0.289-0.262-0.539-0.399-0.25-0.14-0.601-0.292-1.055-0.468-0.867-0.332-1.46-0.668-1.773-1.008-0.305-0.34-0.457-0.785-0.457-1.324 0-0.637 0.262-1.137 0.785-1.5 0.524-0.356 1.238-0.539 2.137-0.539 0.891 0 1.73 0.183 2.523 0.539l-0.515 1.207c-0.825-0.332-1.512-0.504-2.067-0.504-0.843 0-1.265 0.246-1.265 0.726 0 0.235 0.105 0.434 0.328 0.598 0.215 0.164 0.695 0.395 1.441 0.68 0.625 0.246 1.078 0.469 1.363 0.668 0.286 0.199 0.497 0.429 0.633 0.691 0.141 0.27 0.211 0.582 0.211 0.938zm8.43 2.296c-1.145 0-2.012-0.328-2.606-0.996-0.597-0.668-0.89-1.628-0.89-2.882 0-1.27 0.305-2.25 0.926-2.93 0.625-0.684 1.523-1.031 2.699-1.031 0.797 0 1.515 0.152 2.156 0.445l-0.48 1.289c-0.68-0.262-1.243-0.398-1.688-0.398-1.308 0-1.961 0.875-1.961 2.613 0 0.844 0.16 1.484 0.481 1.91 0.328 0.422 0.808 0.633 1.445 0.633 0.707 0 1.387-0.176 2.027-0.527v1.394c-0.289 0.176-0.597 0.293-0.926 0.363-0.324 0.078-0.714 0.117-1.183 0.117zm8.625-0.14-0.328-1.055h-0.047c-0.367 0.465-0.734 0.781-1.102 0.949-0.371 0.164-0.843 0.246-1.429 0.246-0.746 0-1.325-0.199-1.739-0.597-0.414-0.403-0.621-0.973-0.621-1.711 0-0.777 0.289-1.363 0.867-1.758 0.579-0.398 1.457-0.613 2.641-0.656l1.313-0.035v-0.41c0-0.481-0.114-0.844-0.34-1.079-0.227-0.238-0.578-0.363-1.055-0.363-0.383 0-0.758 0.059-1.113 0.176-0.356 0.113-0.696 0.246-1.024 0.398l-0.527-1.148c0.414-0.211 0.863-0.367 1.352-0.481 0.492-0.117 0.953-0.175 1.382-0.175 0.961 0 1.688 0.211 2.18 0.632 0.496 0.418 0.742 1.075 0.742 1.969v5.098zm-2.391-1.09c0.578 0 1.043-0.164 1.395-0.492 0.359-0.328 0.539-0.785 0.539-1.371v-0.657l-0.973 0.036c-0.758 0.035-1.312 0.164-1.652 0.386-0.348 0.231-0.52 0.575-0.52 1.032 0 0.339 0.098 0.597 0.293 0.785 0.203 0.187 0.508 0.281 0.918 0.281zm7.387 1.09h-1.605v-10.641h1.605zm3.91 0h-1.609v-10.641h1.609zm3.91 0h-1.605v-7.559h1.605zm-1.699-9.563c0-0.285 0.074-0.507 0.234-0.668 0.157-0.152 0.379-0.234 0.668-0.234s0.512 0.082 0.668 0.234c0.157 0.161 0.235 0.383 0.235 0.668 0 0.278-0.078 0.493-0.235 0.645-0.156 0.16-0.379 0.234-0.668 0.234s-0.511-0.074-0.668-0.234c-0.16-0.152-0.234-0.367-0.234-0.645zm10.395 2.004v0.879l-1.289 0.235c0.117 0.164 0.214 0.363 0.293 0.597 0.078 0.231 0.117 0.477 0.117 0.738 0 0.774-0.27 1.391-0.809 1.84-0.539 0.446-1.285 0.668-2.23 0.668-0.243 0-0.461-0.015-0.657-0.058-0.343 0.211-0.515 0.465-0.515 0.75 0 0.176 0.078 0.304 0.234 0.398 0.164 0.09 0.465 0.129 0.902 0.129h1.317c0.836 0 1.469 0.184 1.898 0.539 0.438 0.352 0.657 0.86 0.657 1.524 0 0.859-0.356 1.519-1.067 1.98-0.703 0.469-1.722 0.703-3.062 0.703-1.032 0-1.825-0.183-2.367-0.551-0.54-0.359-0.813-0.879-0.813-1.558 0-0.461 0.148-0.852 0.449-1.172 0.293-0.309 0.707-0.527 1.231-0.656-0.211-0.094-0.387-0.239-0.528-0.446-0.14-0.199-0.211-0.41-0.211-0.632 0-0.282 0.075-0.516 0.235-0.715 0.164-0.2 0.402-0.399 0.715-0.586-0.395-0.168-0.711-0.446-0.95-0.821-0.246-0.378-0.363-0.824-0.363-1.336 0-0.82 0.258-1.453 0.774-1.91 0.515-0.449 1.253-0.679 2.214-0.679 0.211 0 0.438 0.019 0.672 0.047 0.235 0.035 0.41 0.066 0.539 0.093zm-5.946 8.731c0 0.351 0.157 0.621 0.469 0.808 0.313 0.188 0.75 0.282 1.313 0.282 0.875 0 1.527-0.129 1.96-0.387 0.426-0.25 0.645-0.582 0.645-0.996 0-0.328-0.117-0.563-0.352-0.703-0.234-0.133-0.675-0.2-1.312-0.2h-1.223c-0.461 0-0.828 0.106-1.101 0.317-0.266 0.219-0.399 0.512-0.399 0.879zm0.692-6.282c0 0.469 0.121 0.833 0.363 1.09 0.242 0.258 0.594 0.387 1.055 0.387 0.929 0 1.398-0.496 1.398-1.5 0-0.492-0.117-0.867-0.351-1.137-0.231-0.261-0.575-0.398-1.047-0.398-0.469 0-0.825 0.137-1.067 0.398-0.234 0.27-0.351 0.657-0.351 1.16zm10.492-2.589c0.328 0 0.598 0.023 0.808 0.07l-0.164 1.5c-0.23-0.051-0.464-0.082-0.703-0.082-0.652 0-1.175 0.211-1.574 0.633-0.398 0.418-0.598 0.961-0.598 1.629v3.949h-1.605v-7.559h1.254l0.211 1.325h0.082c0.258-0.446 0.586-0.797 0.984-1.067 0.406-0.262 0.84-0.398 1.305-0.398zm6.941 7.699-0.328-1.055h-0.047c-0.371 0.465-0.738 0.781-1.105 0.949-0.367 0.164-0.844 0.246-1.43 0.246-0.746 0-1.324-0.199-1.738-0.597-0.414-0.403-0.621-0.973-0.621-1.711 0-0.777 0.289-1.363 0.871-1.758 0.574-0.398 1.457-0.613 2.637-0.656l1.316-0.035v-0.41c0-0.481-0.117-0.844-0.34-1.079-0.23-0.238-0.582-0.363-1.058-0.363-0.383 0-0.754 0.059-1.114 0.176-0.351 0.113-0.691 0.246-1.019 0.398l-0.528-1.148c0.411-0.211 0.86-0.367 1.348-0.481 0.492-0.117 0.953-0.175 1.383-0.175 0.965 0 1.691 0.211 2.183 0.632 0.493 0.418 0.739 1.075 0.739 1.969v5.098zm-2.394-1.09c0.578 0 1.043-0.164 1.394-0.492 0.36-0.328 0.543-0.785 0.543-1.371v-0.657l-0.976 0.036c-0.758 0.035-1.309 0.164-1.653 0.386-0.347 0.231-0.515 0.575-0.515 1.032 0 0.339 0.097 0.597 0.293 0.785 0.203 0.187 0.508 0.281 0.914 0.281zm9.621 1.23c-0.957 0-1.699-0.339-2.231-1.031h-0.093c0.062 0.633 0.093 1.02 0.093 1.16v3.094h-1.605v-10.922h1.301c0.039 0.141 0.113 0.481 0.222 1.008h0.082c0.5-0.762 1.254-1.148 2.266-1.148 0.938 0 1.668 0.347 2.191 1.031 0.532 0.68 0.797 1.641 0.797 2.871 0 1.238-0.269 2.203-0.808 2.895-0.532 0.699-1.274 1.042-2.215 1.042zm-0.387-6.527c-0.644 0-1.113 0.188-1.41 0.563-0.289 0.375-0.434 0.972-0.434 1.793v0.234c0 0.926 0.145 1.594 0.434 2.004 0.297 0.418 0.773 0.621 1.434 0.621 0.562 0 0.988-0.223 1.289-0.68 0.304-0.457 0.457-1.113 0.457-1.957 0-0.847-0.153-1.488-0.457-1.922-0.301-0.433-0.739-0.656-1.313-0.656zm11.945 6.387h-1.621v-4.652c0-0.575-0.117-1.008-0.351-1.301-0.235-0.285-0.606-0.434-1.113-0.434-0.68 0-1.184 0.207-1.504 0.61-0.313 0.398-0.469 1.078-0.469 2.027v3.75h-1.606v-10.641h1.606v2.707c0 0.434-0.027 0.891-0.082 1.383h0.105c0.219-0.363 0.524-0.644 0.914-0.844 0.391-0.199 0.848-0.304 1.364-0.304 1.836 0 2.757 0.925 2.757 2.765zm3.844 0h-1.609v-7.559h1.609zm-1.703-9.563c0-0.285 0.078-0.507 0.234-0.668 0.157-0.152 0.379-0.234 0.672-0.234 0.285 0 0.508 0.082 0.668 0.234 0.157 0.161 0.235 0.383 0.235 0.668 0 0.278-0.078 0.493-0.235 0.645-0.16 0.16-0.383 0.234-0.668 0.234-0.293 0-0.515-0.074-0.672-0.234-0.156-0.152-0.234-0.367-0.234-0.645zm7.008 8.414c0.672 0 1.152-0.191 1.441-0.585 0.297-0.387 0.45-0.977 0.45-1.77v-0.246c0-0.938-0.157-1.606-0.461-2.016-0.297-0.41-0.786-0.621-1.465-0.621-0.571 0-1.008 0.235-1.313 0.692-0.301 0.457-0.445 1.109-0.445 1.957 0 1.73 0.598 2.589 1.793 2.589zm-0.457 1.289c-0.938 0-1.676-0.339-2.207-1.031-0.524-0.683-0.785-1.644-0.785-2.883 0-1.222 0.265-2.183 0.797-2.882 0.539-0.692 1.281-1.043 2.23-1.043 0.477 0 0.902 0.093 1.277 0.269s0.711 0.457 1.012 0.856h0.059l0.175-0.985h1.336v10.922h-1.617v-3.211c0-0.191 4e-3 -0.398 0.024-0.621 0.011-0.223 0.027-0.398 0.047-0.527h-0.082c-0.481 0.762-1.235 1.136-2.266 1.136zm11.523-0.14-0.222-0.996h-0.082c-0.231 0.351-0.551 0.633-0.965 0.832-0.406 0.203-0.875 0.304-1.406 0.304-0.915 0-1.602-0.222-2.055-0.679s-0.68-1.149-0.68-2.074v-4.946h1.621v4.664c0 0.582 0.117 1.016 0.352 1.301 0.238 0.293 0.613 0.434 1.125 0.434 0.672 0 1.164-0.2 1.48-0.598 0.317-0.402 0.481-1.082 0.481-2.039v-3.762h1.617v7.559zm6.867 0.14c-1.179 0-2.105-0.339-2.769-1.031-0.656-0.683-0.984-1.629-0.984-2.836 0-1.23 0.304-2.203 0.914-2.906 0.617-0.707 1.468-1.066 2.547-1.066 1 0 1.789 0.304 2.371 0.914 0.578 0.605 0.867 1.437 0.867 2.496v0.867h-5.043c0.023 0.738 0.215 1.301 0.586 1.699 0.375 0.395 0.902 0.586 1.582 0.586 0.445 0 0.859-0.035 1.242-0.117 0.391-0.082 0.813-0.227 1.258-0.434v1.313c-0.399 0.187-0.797 0.324-1.199 0.398-0.399 0.078-0.856 0.117-1.372 0.117zm-0.292-6.621c-0.516 0-0.926 0.164-1.231 0.493-0.305 0.324-0.492 0.793-0.551 1.406h3.434c-8e-3 -0.621-0.16-1.094-0.457-1.418-0.289-0.317-0.688-0.481-1.195-0.481zm10.152 4.325c0 0.746-0.274 1.312-0.813 1.711-0.539 0.394-1.312 0.585-2.32 0.585-1.004 0-1.812-0.152-2.43-0.457v-1.394c0.891 0.418 1.719 0.621 2.489 0.621 0.988 0 1.488-0.297 1.488-0.902 0-0.188-0.055-0.34-0.164-0.469-0.11-0.129-0.289-0.262-0.539-0.399-0.254-0.14-0.606-0.292-1.055-0.468-0.871-0.332-1.461-0.668-1.773-1.008-0.305-0.34-0.457-0.785-0.457-1.324 0-0.637 0.261-1.137 0.785-1.5 0.523-0.356 1.234-0.539 2.137-0.539 0.89 0 1.73 0.183 2.519 0.539l-0.516 1.207c-0.82-0.332-1.507-0.504-2.062-0.504-0.844 0-1.27 0.246-1.27 0.726 0 0.235 0.11 0.434 0.332 0.598 0.215 0.164 0.696 0.395 1.442 0.68 0.625 0.246 1.078 0.469 1.359 0.668 0.289 0.199 0.5 0.429 0.633 0.691 0.141 0.27 0.215 0.582 0.215 0.938zm66.844 2.156h-1.618v-9.996h5.641v1.383h-4.023v3.117h3.765v1.394h-3.765zm10.402 0-0.328-1.055h-0.047c-0.371 0.465-0.738 0.781-1.105 0.949-0.368 0.164-0.844 0.246-1.43 0.246-0.746 0-1.324-0.199-1.738-0.597-0.415-0.403-0.622-0.973-0.622-1.711 0-0.777 0.29-1.363 0.868-1.758 0.578-0.398 1.461-0.613 2.64-0.656l1.313-0.035v-0.41c0-0.481-0.114-0.844-0.34-1.079-0.227-0.238-0.578-0.363-1.055-0.363-0.383 0-0.758 0.059-1.113 0.176-0.352 0.113-0.691 0.246-1.02 0.398l-0.531-1.148c0.414-0.211 0.863-0.367 1.352-0.481 0.492-0.117 0.953-0.175 1.383-0.175 0.96 0 1.691 0.211 2.183 0.632 0.492 0.418 0.738 1.075 0.738 1.969v5.098zm-2.395-1.09c0.579 0 1.043-0.164 1.395-0.492 0.359-0.328 0.539-0.785 0.539-1.371v-0.657l-0.973 0.036c-0.757 0.035-1.308 0.164-1.652 0.386-0.348 0.231-0.516 0.575-0.516 1.032 0 0.339 0.094 0.597 0.293 0.785 0.203 0.187 0.508 0.281 0.914 0.281zm7.391 1.09h-1.605v-7.559h1.605zm-1.699-9.563c0-0.285 0.074-0.507 0.234-0.668 0.153-0.152 0.375-0.234 0.668-0.234 0.285 0 0.508 0.082 0.668 0.234 0.156 0.161 0.235 0.383 0.235 0.668 0 0.278-0.079 0.493-0.235 0.645-0.16 0.16-0.383 0.234-0.668 0.234-0.293 0-0.515-0.074-0.668-0.234-0.16-0.152-0.234-0.367-0.234-0.645zm7.871 1.864c0.941 0 1.672 0.347 2.195 1.031 0.531 0.68 0.797 1.641 0.797 2.871 0 1.242-0.266 2.215-0.797 2.906-0.535 0.692-1.277 1.031-2.23 1.031s-1.696-0.339-2.227-1.031h-0.105l-0.293 0.891h-1.211v-10.641h1.609v2.531c0 0.188-0.012 0.469-0.035 0.833-0.019 0.371-0.031 0.605-0.035 0.703h0.07c0.516-0.75 1.27-1.125 2.262-1.125zm-0.422 1.312c-0.648 0-1.121 0.195-1.406 0.574-0.281 0.375-0.43 1.016-0.434 1.911v0.105c0 0.926 0.145 1.594 0.434 2.004 0.297 0.418 0.773 0.621 1.43 0.621 0.57 0 1.003-0.223 1.304-0.68 0.293-0.449 0.446-1.101 0.446-1.957 0-1.715-0.594-2.578-1.774-2.578zm6.891 6.387h-1.61v-10.641h1.61zm5.613 0.14c-1.184 0-2.106-0.339-2.77-1.031-0.656-0.683-0.984-1.629-0.984-2.836 0-1.23 0.305-2.203 0.914-2.906 0.617-0.707 1.469-1.066 2.547-1.066 1 0 1.789 0.304 2.367 0.914 0.578 0.605 0.871 1.437 0.871 2.496v0.867h-5.047c0.024 0.738 0.219 1.301 0.586 1.699 0.379 0.395 0.907 0.586 1.586 0.586 0.446 0 0.86-0.035 1.242-0.117 0.391-0.082 0.809-0.227 1.258-0.434v1.313c-0.402 0.187-0.8 0.324-1.199 0.398-0.398 0.078-0.855 0.117-1.371 0.117zm-0.293-6.621c-0.516 0-0.926 0.164-1.234 0.493-0.305 0.324-0.489 0.793-0.551 1.406h3.437c-7e-3 -0.621-0.16-1.094-0.457-1.418-0.289-0.317-0.687-0.481-1.195-0.481zm11.75 6.621c-1.145 0-2.012-0.328-2.602-0.996-0.597-0.668-0.894-1.628-0.894-2.882 0-1.27 0.309-2.25 0.93-2.93 0.621-0.684 1.523-1.031 2.695-1.031 0.797 0 1.516 0.152 2.16 0.445l-0.48 1.289c-0.68-0.262-1.246-0.398-1.692-0.398-1.308 0-1.957 0.875-1.957 2.613 0 0.844 0.156 1.484 0.481 1.91 0.328 0.422 0.808 0.633 1.441 0.633 0.711 0 1.387-0.176 2.031-0.527v1.394c-0.293 0.176-0.597 0.293-0.926 0.363-0.324 0.078-0.718 0.117-1.187 0.117zm10.598-3.937c0 1.238-0.317 2.203-0.95 2.895-0.636 0.699-1.515 1.042-2.64 1.042-0.715 0-1.344-0.156-1.891-0.48-0.539-0.316-0.953-0.773-1.242-1.371s-0.434-1.293-0.434-2.086c0-1.223 0.309-2.18 0.938-2.871 0.633-0.684 1.519-1.031 2.664-1.031 1.094 0 1.957 0.351 2.594 1.054 0.636 0.703 0.961 1.653 0.961 2.848zm-5.504 0c0 1.754 0.648 2.625 1.937 2.625 1.274 0 1.91-0.871 1.91-2.625 0-1.723-0.64-2.59-1.921-2.59-0.68 0-1.172 0.223-1.481 0.668-0.297 0.445-0.445 1.09-0.445 1.922zm14.019 3.797h-1.617v-4.652c0-0.575-0.117-1.008-0.351-1.301-0.235-0.285-0.61-0.434-1.118-0.434-0.679 0-1.179 0.207-1.5 0.61-0.312 0.398-0.468 1.066-0.468 2.003v3.774h-1.61v-7.559h1.258l0.234 0.985h0.082c0.227-0.356 0.543-0.633 0.961-0.832 0.422-0.192 0.891-0.293 1.407-0.293 1.812 0 2.722 0.925 2.722 2.765zm5.051-1.16c0.399 0 0.793-0.059 1.184-0.188v1.207c-0.18 0.082-0.411 0.145-0.692 0.199-0.281 0.055-0.57 0.082-0.867 0.082-1.527 0-2.289-0.8-2.289-2.414v-4.066h-1.031v-0.715l1.101-0.586 0.551-1.605h1v1.687h2.145v1.219h-2.145v4.043c0 0.395 0.094 0.68 0.281 0.867 0.192 0.184 0.45 0.27 0.762 0.27zm6.527-6.539c0.329 0 0.598 0.023 0.809 0.07l-0.164 1.5c-0.227-0.051-0.461-0.082-0.703-0.082-0.649 0-1.172 0.211-1.57 0.633-0.399 0.418-0.598 0.961-0.598 1.629v3.949h-1.61v-7.559h1.258l0.211 1.325h0.082c0.258-0.446 0.586-0.797 0.985-1.067 0.406-0.262 0.839-0.398 1.3-0.398zm6.946 7.699-0.328-1.055h-0.047c-0.371 0.465-0.735 0.781-1.102 0.949-0.371 0.164-0.844 0.246-1.433 0.246-0.743 0-1.321-0.199-1.735-0.597-0.418-0.403-0.621-0.973-0.621-1.711 0-0.777 0.285-1.363 0.867-1.758 0.578-0.398 1.457-0.613 2.641-0.656l1.312-0.035v-0.41c0-0.481-0.113-0.844-0.339-1.079-0.231-0.238-0.582-0.363-1.055-0.363-0.387 0-0.758 0.059-1.117 0.176-0.352 0.113-0.692 0.246-1.02 0.398l-0.527-1.148c0.414-0.211 0.863-0.367 1.347-0.481 0.493-0.117 0.954-0.175 1.387-0.175 0.961 0 1.688 0.211 2.18 0.632 0.492 0.418 0.738 1.075 0.738 1.969v5.098zm-2.395-1.09c0.578 0 1.047-0.164 1.399-0.492 0.355-0.328 0.539-0.785 0.539-1.371v-0.657l-0.973 0.036c-0.762 0.035-1.312 0.164-1.656 0.386-0.344 0.231-0.516 0.575-0.516 1.032 0 0.339 0.098 0.597 0.293 0.785 0.203 0.187 0.508 0.281 0.914 0.281zm10.875-1.066c0 0.746-0.269 1.312-0.808 1.711-0.539 0.394-1.313 0.585-2.321 0.585-1.004 0-1.812-0.152-2.429-0.457v-1.394c0.89 0.418 1.718 0.621 2.488 0.621 0.988 0 1.488-0.297 1.488-0.902 0-0.188-0.055-0.34-0.164-0.469-0.113-0.129-0.289-0.262-0.539-0.399-0.254-0.14-0.605-0.292-1.055-0.468-0.871-0.332-1.461-0.668-1.773-1.008-0.305-0.34-0.457-0.785-0.457-1.324 0-0.637 0.262-1.137 0.785-1.5 0.523-0.356 1.234-0.539 2.137-0.539 0.89 0 1.73 0.183 2.519 0.539l-0.515 1.207c-0.821-0.332-1.508-0.504-2.063-0.504-0.847 0-1.269 0.246-1.269 0.726 0 0.235 0.109 0.434 0.328 0.598 0.218 0.164 0.699 0.395 1.445 0.68 0.625 0.246 1.078 0.469 1.359 0.668 0.29 0.199 0.5 0.429 0.633 0.691 0.141 0.27 0.211 0.582 0.211 0.938zm4.551 0.996c0.398 0 0.793-0.059 1.184-0.188v1.207c-0.18 0.082-0.411 0.145-0.692 0.199-0.281 0.055-0.57 0.082-0.867 0.082-1.527 0-2.289-0.8-2.289-2.414v-4.066h-1.031v-0.715l1.101-0.586 0.551-1.605h1v1.687h2.145v1.219h-2.145v4.043c0 0.395 0.094 0.68 0.281 0.867 0.192 0.184 0.449 0.27 0.762 0.27zm6 1.3c-1.184 0-2.105-0.339-2.77-1.031-0.656-0.683-0.984-1.629-0.984-2.836 0-1.23 0.305-2.203 0.914-2.906 0.617-0.707 1.469-1.066 2.547-1.066 1 0 1.789 0.304 2.371 0.914 0.574 0.605 0.867 1.437 0.867 2.496v0.867h-5.047c0.024 0.738 0.219 1.301 0.59 1.699 0.375 0.395 0.903 0.586 1.582 0.586 0.446 0 0.86-0.035 1.242-0.117 0.391-0.082 0.813-0.227 1.258-0.434v1.313c-0.398 0.187-0.797 0.324-1.199 0.398-0.398 0.078-0.855 0.117-1.371 0.117zm-0.293-6.621c-0.516 0-0.926 0.164-1.23 0.493-0.305 0.324-0.493 0.793-0.555 1.406h3.437c-7e-3 -0.621-0.16-1.094-0.457-1.418-0.289-0.317-0.687-0.481-1.195-0.481z" clip-path="url(#clipPath62)"/>
  <path id="path63" transform="matrix(1.3333 0 0 1.3333 7768 0)" d="m702.08 487.43h2.969c1.375 0 2.371 0.207 2.98 0.609 0.618 0.399 0.926 1.031 0.926 1.887 0 0.586-0.152 1.078-0.457 1.465-0.297 0.386-0.726 0.629-1.289 0.726v0.071c0.703 0.136 1.219 0.398 1.547 0.785 0.328 0.394 0.492 0.922 0.492 1.582 0 0.902-0.312 1.605-0.937 2.109-0.629 0.512-1.5 0.762-2.618 0.762h-3.613zm1.633 4.125h1.57c0.688 0 1.188-0.106 1.504-0.317 0.309-0.214 0.469-0.586 0.469-1.113 0-0.469-0.172-0.801-0.516-1.008-0.34-0.211-0.875-0.316-1.609-0.316h-1.418zm0 1.336v3.164h1.734c0.688 0 1.203-0.129 1.551-0.387 0.352-0.262 0.527-0.68 0.527-1.254 0-0.515-0.183-0.894-0.539-1.148-0.351-0.246-0.89-0.375-1.621-0.375zm11.277-3.164c0.332 0 0.602 0.023 0.813 0.07l-0.164 1.5c-0.231-0.051-0.465-0.082-0.707-0.082-0.649 0-1.172 0.211-1.571 0.633-0.398 0.418-0.597 0.961-0.597 1.629v3.949h-1.61v-7.559h1.258l0.211 1.325h0.082c0.258-0.446 0.586-0.797 0.985-1.067 0.406-0.262 0.839-0.398 1.3-0.398zm3.813 7.699h-1.61v-7.559h1.61zm-1.703-9.563c0-0.285 0.078-0.507 0.234-0.668 0.156-0.152 0.379-0.234 0.672-0.234 0.285 0 0.508 0.082 0.668 0.234 0.152 0.161 0.234 0.383 0.234 0.668 0 0.278-0.082 0.493-0.234 0.645-0.16 0.16-0.383 0.234-0.668 0.234-0.293 0-0.516-0.074-0.672-0.234-0.156-0.152-0.234-0.367-0.234-0.645zm9.097 7.407c0 0.746-0.269 1.312-0.808 1.711-0.539 0.394-1.313 0.585-2.325 0.585-1 0-1.812-0.152-2.425-0.457v-1.394c0.89 0.418 1.718 0.621 2.484 0.621 0.992 0 1.492-0.297 1.492-0.902 0-0.188-0.054-0.34-0.164-0.469-0.113-0.129-0.293-0.262-0.539-0.399-0.254-0.14-0.605-0.292-1.058-0.468-0.868-0.332-1.461-0.668-1.77-1.008-0.305-0.34-0.457-0.785-0.457-1.324 0-0.637 0.262-1.137 0.785-1.5 0.524-0.356 1.235-0.539 2.137-0.539 0.891 0 1.726 0.183 2.519 0.539l-0.515 1.207c-0.821-0.332-1.512-0.504-2.067-0.504-0.843 0-1.265 0.246-1.265 0.726 0 0.235 0.109 0.434 0.328 0.598s0.699 0.395 1.445 0.68c0.625 0.246 1.078 0.469 1.36 0.668 0.289 0.199 0.5 0.429 0.632 0.691 0.141 0.27 0.211 0.582 0.211 0.938zm7.071 2.156-0.223-0.996h-0.082c-0.227 0.351-0.547 0.633-0.961 0.832-0.406 0.203-0.875 0.304-1.406 0.304-0.918 0-1.602-0.222-2.055-0.679s-0.68-1.149-0.68-2.074v-4.946h1.618v4.664c0 0.582 0.117 1.016 0.351 1.301 0.242 0.293 0.617 0.434 1.129 0.434 0.672 0 1.164-0.2 1.477-0.598 0.32-0.402 0.48-1.082 0.48-2.039v-3.762h1.621v7.559zm7.398-7.699c0.328 0 0.598 0.023 0.809 0.07l-0.164 1.5c-0.231-0.051-0.465-0.082-0.704-0.082-0.652 0-1.171 0.211-1.574 0.633-0.398 0.418-0.597 0.961-0.597 1.629v3.949h-1.606v-7.559h1.254l0.211 1.325h0.082c0.258-0.446 0.586-0.797 0.988-1.067 0.403-0.262 0.836-0.398 1.301-0.398zm5.512 7.839c-1.18 0-2.106-0.339-2.766-1.031-0.66-0.683-0.988-1.629-0.988-2.836 0-1.23 0.305-2.203 0.918-2.906 0.613-0.707 1.465-1.066 2.543-1.066 1 0 1.789 0.304 2.371 0.914 0.578 0.605 0.867 1.437 0.867 2.496v0.867h-5.043c0.024 0.738 0.215 1.301 0.586 1.699 0.375 0.395 0.902 0.586 1.582 0.586 0.449 0 0.859-0.035 1.246-0.117 0.391-0.082 0.809-0.227 1.254-0.434v1.313c-0.398 0.187-0.797 0.324-1.195 0.398-0.399 0.078-0.856 0.117-1.375 0.117zm-0.293-6.621c-0.516 0-0.926 0.164-1.231 0.493-0.304 0.324-0.488 0.793-0.55 1.406h3.437c-0.012-0.621-0.164-1.094-0.457-1.418-0.293-0.317-0.691-0.481-1.199-0.481zm10.148 4.325c0 0.746-0.269 1.312-0.808 1.711-0.539 0.394-1.317 0.585-2.325 0.585-1.003 0-1.812-0.152-2.425-0.457v-1.394c0.89 0.418 1.715 0.621 2.484 0.621 0.992 0 1.492-0.297 1.492-0.902 0-0.188-0.058-0.34-0.164-0.469-0.113-0.129-0.293-0.262-0.543-0.399-0.25-0.14-0.601-0.292-1.054-0.468-0.868-0.332-1.461-0.668-1.77-1.008-0.305-0.34-0.457-0.785-0.457-1.324 0-0.637 0.258-1.137 0.785-1.5 0.52-0.356 1.234-0.539 2.133-0.539 0.894 0 1.73 0.183 2.523 0.539l-0.515 1.207c-0.821-0.332-1.512-0.504-2.067-0.504-0.843 0-1.265 0.246-1.265 0.726 0 0.235 0.109 0.434 0.328 0.598s0.699 0.395 1.441 0.68c0.625 0.246 1.082 0.469 1.364 0.668 0.285 0.199 0.496 0.429 0.632 0.691 0.141 0.27 0.211 0.582 0.211 0.938zm10.469 0c0 0.746-0.27 1.312-0.809 1.711-0.539 0.394-1.312 0.585-2.32 0.585-1.004 0-1.812-0.152-2.43-0.457v-1.394c0.891 0.418 1.719 0.621 2.489 0.621 0.988 0 1.488-0.297 1.488-0.902 0-0.188-0.055-0.34-0.164-0.469-0.113-0.129-0.289-0.262-0.539-0.399-0.254-0.14-0.606-0.292-1.059-0.468-0.867-0.332-1.457-0.668-1.769-1.008-0.305-0.34-0.457-0.785-0.457-1.324 0-0.637 0.261-1.137 0.785-1.5 0.523-0.356 1.234-0.539 2.137-0.539 0.89 0 1.73 0.183 2.519 0.539l-0.516 1.207c-0.82-0.332-1.507-0.504-2.062-0.504-0.848 0-1.27 0.246-1.27 0.726 0 0.235 0.11 0.434 0.329 0.598 0.218 0.164 0.699 0.395 1.445 0.68 0.625 0.246 1.078 0.469 1.359 0.668 0.289 0.199 0.5 0.429 0.633 0.691 0.141 0.27 0.211 0.582 0.211 0.938zm7.074 2.156-0.226-0.996h-0.082c-0.227 0.351-0.547 0.633-0.961 0.832-0.407 0.203-0.875 0.304-1.407 0.304-0.914 0-1.601-0.222-2.054-0.679s-0.68-1.149-0.68-2.074v-4.946h1.617v4.664c0 0.582 0.121 1.016 0.356 1.301 0.238 0.293 0.613 0.434 1.125 0.434 0.672 0 1.164-0.2 1.476-0.598 0.321-0.402 0.481-1.082 0.481-2.039v-3.762h1.621v7.559zm7.399-7.699c0.328 0 0.597 0.023 0.808 0.07l-0.164 1.5c-0.23-0.051-0.465-0.082-0.703-0.082-0.652 0-1.176 0.211-1.574 0.633-0.399 0.418-0.598 0.961-0.598 1.629v3.949h-1.605v-7.559h1.254l0.211 1.325h0.082c0.257-0.446 0.586-0.797 0.984-1.067 0.406-0.262 0.84-0.398 1.305-0.398zm7.453 7.699h-1.606v-10.641h1.606zm5.613 0.14c-1.184 0-2.109-0.339-2.769-1.031-0.657-0.683-0.985-1.629-0.985-2.836 0-1.23 0.305-2.203 0.914-2.906 0.613-0.707 1.465-1.066 2.543-1.066 1 0 1.789 0.304 2.371 0.914 0.578 0.605 0.867 1.437 0.867 2.496v0.867h-5.042c0.023 0.738 0.218 1.301 0.585 1.699 0.375 0.395 0.903 0.586 1.586 0.586 0.446 0 0.86-0.035 1.243-0.117 0.39-0.082 0.808-0.227 1.253-0.434v1.313c-0.398 0.187-0.796 0.324-1.195 0.398-0.398 0.078-0.855 0.117-1.371 0.117zm-0.297-6.621c-0.515 0-0.926 0.164-1.23 0.493-0.305 0.324-0.489 0.793-0.551 1.406h3.437c-7e-3 -0.621-0.16-1.094-0.457-1.418-0.293-0.317-0.691-0.481-1.199-0.481zm10.153 4.325c0 0.746-0.27 1.312-0.809 1.711-0.539 0.394-1.316 0.585-2.324 0.585-1.004 0-1.813-0.152-2.43-0.457v-1.394c0.895 0.418 1.719 0.621 2.488 0.621 0.992 0 1.492-0.297 1.492-0.902 0-0.188-0.058-0.34-0.167-0.469-0.11-0.129-0.29-0.262-0.54-0.399-0.25-0.14-0.601-0.292-1.054-0.468-0.867-0.332-1.461-0.668-1.77-1.008-0.308-0.34-0.461-0.785-0.461-1.324 0-0.637 0.262-1.137 0.789-1.5 0.52-0.356 1.235-0.539 2.133-0.539 0.891 0 1.731 0.183 2.524 0.539l-0.516 1.207c-0.82-0.332-1.512-0.504-2.066-0.504-0.844 0-1.266 0.246-1.266 0.726 0 0.235 0.109 0.434 0.328 0.598s0.699 0.395 1.442 0.68c0.624 0.246 1.082 0.469 1.363 0.668 0.285 0.199 0.496 0.429 0.633 0.691 0.14 0.27 0.211 0.582 0.211 0.938zm8.425 2.296c-1.144 0-2.011-0.328-2.605-0.996s-0.891-1.628-0.891-2.882c0-1.27 0.309-2.25 0.926-2.93 0.625-0.684 1.527-1.031 2.699-1.031 0.797 0 1.516 0.152 2.16 0.445l-0.484 1.289c-0.68-0.262-1.242-0.398-1.687-0.398-1.309 0-1.961 0.875-1.961 2.613 0 0.844 0.16 1.484 0.484 1.91 0.328 0.422 0.809 0.633 1.441 0.633 0.711 0 1.387-0.176 2.032-0.527v1.394c-0.293 0.176-0.602 0.293-0.93 0.363-0.32 0.078-0.715 0.117-1.184 0.117zm10.551-0.14h-1.617v-4.652c0-0.575-0.117-1.008-0.352-1.301-0.234-0.285-0.609-0.434-1.117-0.434-0.68 0-1.18 0.207-1.5 0.61-0.312 0.398-0.469 1.078-0.469 2.027v3.75h-1.605v-10.641h1.605v2.707c0 0.434-0.031 0.891-0.082 1.383h0.106c0.219-0.363 0.523-0.644 0.914-0.844 0.391-0.199 0.844-0.304 1.363-0.304 1.836 0 2.754 0.925 2.754 2.765zm3.844 0h-1.61v-7.559h1.61zm-1.703-9.563c0-0.285 0.078-0.507 0.234-0.668 0.156-0.152 0.379-0.234 0.672-0.234 0.285 0 0.508 0.082 0.668 0.234 0.156 0.161 0.234 0.383 0.234 0.668 0 0.278-0.078 0.493-0.234 0.645-0.16 0.16-0.383 0.234-0.668 0.234-0.293 0-0.516-0.074-0.672-0.234-0.156-0.152-0.234-0.367-0.234-0.645zm7.804 3.223h-1.851v6.34h-1.61v-6.34h-1.253v-0.762l1.253-0.492v-0.492c0-0.891 0.207-1.547 0.622-1.981 0.425-0.425 1.062-0.644 1.925-0.644 0.571 0 1.129 0.094 1.676 0.281l-0.433 1.207c-0.391-0.121-0.766-0.187-1.125-0.187-0.372 0-0.641 0.117-0.809 0.34-0.164 0.23-0.246 0.57-0.246 1.019v0.492h1.851zm5.094 0h-1.855v6.34h-1.606v-6.34h-1.258v-0.762l1.258-0.492v-0.492c0-0.891 0.203-1.547 0.621-1.981 0.422-0.425 1.063-0.644 1.922-0.644 0.57 0 1.129 0.094 1.68 0.281l-0.434 1.207c-0.394-0.121-0.769-0.187-1.129-0.187-0.367 0-0.636 0.117-0.808 0.34-0.164 0.23-0.246 0.57-0.246 1.019v0.492h1.855zm5.121-1.359c0.328 0 0.598 0.023 0.809 0.07l-0.164 1.5c-0.231-0.051-0.465-0.082-0.707-0.082-0.649 0-1.172 0.211-1.571 0.633-0.398 0.418-0.597 0.961-0.597 1.629v3.949h-1.61v-7.559h1.258l0.211 1.325h0.082c0.258-0.446 0.586-0.797 0.985-1.067 0.406-0.262 0.839-0.398 1.3-0.398zm5.508 7.839c-1.18 0-2.105-0.339-2.769-1.031-0.657-0.683-0.985-1.629-0.985-2.836 0-1.23 0.305-2.203 0.914-2.906 0.617-0.707 1.469-1.066 2.547-1.066 1 0 1.789 0.304 2.371 0.914 0.578 0.605 0.867 1.437 0.867 2.496v0.867h-5.043c0.024 0.738 0.215 1.301 0.586 1.699 0.375 0.395 0.903 0.586 1.582 0.586 0.446 0 0.86-0.035 1.246-0.117 0.387-0.082 0.809-0.227 1.254-0.434v1.313c-0.398 0.187-0.797 0.324-1.195 0.398-0.398 0.078-0.859 0.117-1.375 0.117zm-0.293-6.621c-0.516 0-0.926 0.164-1.23 0.493-0.305 0.324-0.493 0.793-0.551 1.406h3.437c-0.011-0.621-0.164-1.094-0.461-1.418-0.289-0.317-0.687-0.481-1.195-0.481zm10.152 4.325c0 0.746-0.269 1.312-0.812 1.711-0.539 0.394-1.313 0.585-2.32 0.585-1.004 0-1.813-0.152-2.43-0.457v-1.394c0.891 0.418 1.719 0.621 2.488 0.621 0.992 0 1.488-0.297 1.488-0.902 0-0.188-0.054-0.34-0.164-0.469-0.109-0.129-0.289-0.262-0.539-0.399-0.254-0.14-0.605-0.292-1.054-0.468-0.867-0.332-1.461-0.668-1.774-1.008-0.304-0.34-0.457-0.785-0.457-1.324 0-0.637 0.262-1.137 0.785-1.5 0.524-0.356 1.235-0.539 2.137-0.539 0.891 0 1.731 0.183 2.524 0.539l-0.52 1.207c-0.82-0.332-1.508-0.504-2.062-0.504-0.844 0-1.266 0.246-1.266 0.726 0 0.235 0.105 0.434 0.328 0.598 0.215 0.164 0.695 0.395 1.441 0.68 0.625 0.246 1.079 0.469 1.36 0.668 0.289 0.199 0.5 0.429 0.637 0.691 0.14 0.27 0.21 0.582 0.21 0.938z" clip-path="url(#clipPath64)"/>
  <path id="path65" transform="matrix(1.3333 0 0 1.3333 7768 0)" d="m93.773 398.17h100.9v-21h-77.777v-34.652l0.636-0.633c6.508 4.84 17.02 9.668 29.645 9.668 27.531 0 50.863-21.844 50.863-50.192 0-28.558-22.91-52.289-51.5-52.289-22.5 0-53.398 15.75-53.187 59.637zm51.922-127.46c16.614 0 30.278 13.641 30.278 30.656 0 16.594-13.664 30.235-30.278 30.235-16.609 0-30.054-13.641-30.054-30.235 0-17.015 13.445-30.656 30.054-30.656zm177.22 23.93c0-24.141-19.555-43.465-43.519-43.465h-63.067v147h23.133v-59.637h27.742l34.902 61.524 19.133-11.121-30.277-52.09c18.5-5.039 31.953-22.043 31.953-42.211zm-45.199-22.465c12.398 0 22.078 10.289 22.078 22.676 0 12.398-9.891 22.687-22.078 22.687h-38.254v-45.363zm88.289-21.211v126.21h66.223v21h-89.344v-147.21zm148.84 149.31c41.211 0 74.211-32.965 74.211-75.598s-33-75.598-74.211-75.598c-41.199 0-74.199 32.965-74.199 75.598s33 75.598 74.199 75.598zm0-21.422c-26.278 0-50.656-20.578-50.656-54.176s24.378-54.176 50.656-54.176c26.277 0 50.664 20.578 50.664 54.176s-24.387 54.176-50.664 54.176zm189.42-22.887 1.465 7.98-0.422 0.211-69.164-112.98h-28.168v147h23.121v-107.31l-1.254-5.672 0.633-0.211 68.734 113.19h28.176v-147h-23.121zm55.91-83.789h57.601l0.211 0.633-5.468 7.347-66.211 110.46 20.39 10.711 90.387-150.15h-96.91z" clip-path="url(#clipPath66)"/>
  <path id="path67" transform="matrix(1.3333 0 0 -1.3319 7768 0)" d="m505.03-237.25 10.785-10.671 10.782 10.671" clip-path="url(#clipPath68)" fill="none" stroke="#a1171b" stroke-width="1.0011"/>
  <path id="path69" transform="matrix(1.3333 0 0 -1.3319 7768 0)" d="m428.7-335.04 10.672 10.784-10.672 10.785" clip-path="url(#clipPath70)" fill="none" stroke="#a1171b" stroke-width="1.0011"/>
  <path id="path71" transform="matrix(1.3333 0 0 -1.3319 7768 0)" d="m526.6-283.04-10.786 10.672-10.785-10.672" clip-path="url(#clipPath72)" fill="none" stroke="#a1171b" stroke-width="1.0011"/>
  <path id="path73" transform="matrix(1.3333 0 0 -1.3319 7768 0)" d="m475.91-313.47-10.672-10.785 10.672-10.784" clip-path="url(#clipPath74)" fill="none" stroke="#a1171b" stroke-width="1.0011"/>
  <g id="g76" clip-path="url(#clipPath77)">
   <path id="path76" transform="matrix(1.3333 0 0 -1.3319 7768 0)" d="m146.67-342.56c22.816 0 41.312 18.496 41.312 41.313s-18.496 41.312-41.312 41.312c-22.817 0-41.313-18.495-41.313-41.312s18.496-41.313 41.313-41.313z" clip-path="url(#clipPath75)" fill="none" stroke="#a1171b" stroke-width="1.0011"/>
  </g>
  <path id="path78" transform="matrix(1.3333 0 0 -1.3319 7768 0)" d="m105.36-304.7v-82.699h82.7" clip-path="url(#clipPath79)" fill="none" stroke="#a1171b" stroke-width="1.0011"/>
  <path id="path80" transform="matrix(1.3333 0 0 -1.3319 7768 0)" d="m288.8-389.63 11.176-19.364 29.3 16.92-11.179 19.368" clip-path="url(#clipPath81)" fill="none" stroke="#a1171b" stroke-width="1.0011"/>
  <path id="path82" transform="matrix(1.3333 0 0 -1.3319 7768 0)" d="m830.35-243.9h39.672l-26.282-43.725" clip-path="url(#clipPath83)" fill="none" stroke="#a1171b" stroke-width="1.0011"/>
  <path id="path84" transform="matrix(1.3333 0 0 -1.3319 7768 0)" d="m319.22-407.31 16.051-71.997" clip-path="url(#clipPath85)" fill="none" stroke="#a1171b" stroke-width="1.0011"/>
  <path id="path86" transform="matrix(1.3333 0 0 -1.3319 7768 0)" d="m505.15-409.12 23.45-71.559" clip-path="url(#clipPath87)" fill="none" stroke="#a1171b" stroke-width="1.0011"/>
 </g>
</svg>
