<!-- Created with Inkscape (http://www.inkscape.org/) -->
<svg id="svg1" width="1274.7" height="904" sodipodi:docname="pdb_presentation_biarnesa_mde.pdf" version="1.1" viewBox="0 0 1274.7 904" xmlns="http://www.w3.org/2000/svg" xmlns:inkscape="http://www.inkscape.org/namespaces/inkscape" xmlns:sodipodi="http://sodipodi.sourceforge.net/DTD/sodipodi-0.dtd" xmlns:xlink="http://www.w3.org/1999/xlink">
 <defs id="defs1">
  <clipPath id="clipPath48">
   <path id="path48" transform="translate(-2.5e-5)" d="m50.938 67.18h842.78v571.99h-842.78z"/>
  </clipPath>
 </defs>
 <sodipodi:namedview id="namedview1" bordercolor="#666666" borderopacity="1.0" inkscape:deskcolor="#d1d1d1" inkscape:pagecheckerboard="0" inkscape:pageopacity="0.0" inkscape:showpageshadow="2" pagecolor="#ffffff">
  <inkscape:page id="page41" x="0" y="0" width="1274.6667" height="904" bleed="0" inkscape:label="41" margin="0"/>
 </sodipodi:namedview>
 <g id="g41" transform="translate(-5178.7)" inkscape:groupmode="layer" inkscape:label="41">
  <rect id="rect232-3-7" x="5178.7" width="1274.7" height="904" fill="#fff" stroke-dashoffset="34.016" stroke-linecap="round" stroke-linejoin="round" stroke-width="1.1792" style="paint-order:markers stroke fill"/>
  <path id="path42" transform="matrix(1.3333 0 0 1.3333 5178.7 0)" d="m32.18 21.742-10.414-10.402-10.414 10.402 1.488 1.485 8.926-8.915 7.437 7.43-7.437 7.43-1.489-1.484 5.953-5.946-1.488-1.484-5.953 5.941-1.488-1.484 5.953-5.945-1.488-1.485-7.438 7.43 7.438 7.43z" fill="#323232"/>
  <path id="path47" transform="matrix(1.3333 0 0 1.3333 5178.7 0)" d="m175 239.47c-2.648 3.328-7.355 4.969-12.047 4.969-9.539 0-17.023-7.887-17.023-17.614 0-10.066 7.484-17.754 17.023-17.754 5.785 0 11.227 3.129 14.36 7.887l5.925-3.328c-4.015-6.797-11.711-11.356-20.285-11.356-13.621 0-24.648 11.016-24.648 24.551 0 13.805 10.898 24.551 24.097 24.551 8.516 0 16.2-3.75 20.082-10.207v-14.684h-20.281v6.797h12.797zm49.481-8.637c0.211 14.824-7.684 20.402-17.563 20.402-9.863 0-17.762-5.578-17.562-20.402v-27.879h7.484v27.879c-0.129 8.848 3.684 13.465 10.078 13.465 6.606 0 10.219-4.617 10.078-13.465v-27.879h7.485zm12.664-19.312c3.004 0 5.382-2.379 5.382-5.309 0-2.988-2.378-5.367-5.382-5.367-2.993 0-5.375 2.379-5.375 5.367 0 2.93 2.382 5.309 5.375 5.309zm-3.743 3.668h7.485v35.367h-7.485zm59.153 8.027h-12.66c-2.039-8.426-6.125-14.824-13.336-21.153l-5.176 4.629c9.527 8.438 13.141 17.883 12.66 32.989h7.426c0-3.469-0.141-6.739-0.485-9.668h11.571v20.543h7.496v-47.602h-7.496zm-42.071-20.332v47.672h35.067v-6.797h-27.57v-40.875zm57.997 0.551 25.187 6.726 1.711-6.598-25.195-6.726zm-0.879 47.191h23.964v-6.668h-16.75v-7.137l0.2-0.211c1.64 1.7 3.754 2.379 5.793 2.379 6.875 0 12.59-5.508 12.59-12.574 0-7.137-5.715-13.125-12.731-13.125-5.582 0-13.137 3.949-13.137 14.754zm12.726-30.609c3.403 0 6.196 2.789 6.196 6.257 0 3.34-2.793 6.129-6.196 6.129-3.332 0-6.051-2.789-6.051-6.129 0-3.468 2.719-6.257 6.051-6.257zm44.996 12.726 14.91-29.789h8.504v47.602h-7.484v-35.907h-0.27l-12.937 27.469h-5.855l-12.926-27.469h-0.27v35.907h-7.496v-47.602h8.445l15.11 29.789zm66.844-30.469c-7.285 0-13.199 2.18-17.562 5.368v42.914h27.851c11.086-6.117 14.02-14.625 14.02-23.262 0-14.074-9.129-25.02-24.309-25.02zm-10.066 41.485v-32.039c2.582-1.699 5.984-2.649 10.066-2.649 10.008 0 16.68 7.278 16.68 18.223 0 7.418-2.52 12.586-8.574 16.465zm46.082-43.664c-0.34-0.071-0.68-0.129-1.09-0.129h-0.211c-3.063 0-5.231 2.168-5.371 5.168-0.141 2.918 2.109 5.367 5.031 5.637-0.809 3.878-4.281 6.058-5.715 6.738l2.254 2.918c6.195-2.918 9.938-7.617 9.938-12.914 0-4.36-1.914-6.739-4.836-7.418zm35.871 9.656v11.836h-0.34c-1.77-1.629-5.313-3.668-9.934-3.668-9.199 0-16.683 7.406-16.683 16.652 0 9.188 7.426 16.664 16.683 16.664 5.301 0 8.914-2.918 9.864-4.418h0.41v3.739h7.484v-47.602h-31.508v6.797zm-10.004 34.547c-5.516 0-9.867-4.418-9.867-9.926s4.281-9.926 9.867-9.926c5.441 0 9.805 4.418 9.805 9.856 0 5.578-4.364 9.996-9.805 9.996zm55.211 9.867c-2.723 0-5.582-1.301-6.067-3 12.672-0.75 22.539-11.144 22.539-24.41 0-13.805-10.687-24.481-24.027-24.481-13.351 0-24.035 10.676-24.035 24.481 0 13.195 9.805 23.601 22.394 24.41-0.339 4.418 2.04 9.727 9.196 9.727 8.023 0 12.246-7.547 12.246-7.547l-4.563-3.399s-2.722 4.219-7.683 4.219zm-23.965-27.41c0-10.887 7.895-17.543 16.41-17.543 8.504 0 16.399 6.656 16.399 17.543 0 10.875-7.895 17.543-16.399 17.543-8.515 0-16.41-6.668-16.41-17.543zm81 4.078c0.211 14.824-7.684 20.402-17.563 20.402-9.867 0-17.761-5.578-17.562-20.402v-27.879h7.484v27.879c-0.129 8.848 3.684 13.465 10.078 13.465 6.606 0 10.219-4.617 10.079-13.465v-27.879h7.484zm12.664-19.312c3 0 5.383-2.379 5.383-5.309 0-2.988-2.383-5.367-5.383-5.367-2.992 0-5.375 2.379-5.375 5.367 0 2.93 2.383 5.309 5.375 5.309zm-3.742 3.668h7.484v35.367h-7.484zm51.465-12.235h-38.125v6.797h15.32v40.805h7.484v-40.805h15.321zm4.828 1.09 25.187 6.727 1.7-6.598-25.184-6.727zm19.191 14.953v8.918h-0.269c-1.149-1.641-4.223-3.469-7.965-3.469-7.414 0-13.41 5.918-13.41 13.395 0 7.348 5.925 13.394 13 13.394 4.152 0 7.496-2.918 8.304-4.078h0.34v3.399h7.356v-38.215h-25.188v6.656zm-8.023 25.371c-3.742 0-6.746-2.929-6.746-6.668 0-3.808 2.863-6.726 6.746-6.726 3.672 0 6.535 2.918 6.535 6.597 0 3.868-2.863 6.797-6.535 6.797zm55.07-7.476 0.481 2.578-0.141 0.07-22.395-36.586h-9.129v47.602h7.497v-34.746l-0.411-1.84 0.2-0.071 22.265 36.657h9.117v-47.602h-7.484zm20.824-25.371c3.004 0 5.387-2.379 5.387-5.309 0-2.988-2.383-5.367-5.387-5.367-2.992 0-5.371 2.379-5.371 5.367 0 2.93 2.379 5.309 5.371 5.309zm-3.742 3.668h7.484v35.367h-7.484zm42-5.438v11.836h-0.34c-1.769-1.629-5.312-3.668-9.937-3.668-9.196 0-16.68 7.406-16.68 16.652 0 9.188 7.426 16.664 16.68 16.664 5.304 0 8.918-2.918 9.867-4.418h0.41v3.739h7.484v-47.602h-31.507v6.797zm-10.008 34.547c-5.511 0-9.863-4.418-9.863-9.926s4.281-9.926 9.863-9.926c5.446 0 9.809 4.418 9.809 9.856 0 5.578-4.363 9.996-9.809 9.996zm-570.36 59.711v16.523h-7.5v-47.605h17.504c8.648 0 15.519 6.867 15.519 15.504 0 8.57-6.941 15.578-15.519 15.578zm9.453-6.797c4.633 0 8.445-4.023 8.445-8.711 0-4.758-3.742-8.777-8.445-8.777h-9.453v17.488zm21.438-23.805 25.187 6.727 1.715-6.598-25.199-6.726zm-0.879 47.196h23.969v-6.668h-16.754v-7.137l0.199-0.211c1.644 1.699 3.754 2.379 5.797 2.379 6.875 0 12.586-5.508 12.586-12.574 0-7.141-5.711-13.129-12.727-13.129-5.586 0-13.141 3.949-13.141 14.758zm12.73-30.614c3.399 0 6.192 2.789 6.192 6.262 0 3.34-2.793 6.129-6.192 6.129-3.332 0-6.054-2.789-6.054-6.129 0-3.473 2.722-6.262 6.054-6.262zm26.34-8.496c3.004 0 5.387-2.379 5.387-5.308 0-2.989-2.383-5.368-5.387-5.368-2.992 0-5.371 2.379-5.371 5.368 0 2.929 2.379 5.308 5.371 5.308zm-3.742 3.668h7.484v35.371h-7.484zm51.398 1.84c0-7.816-6.336-14.074-14.09-14.074h-20.425v47.605h7.484v-19.312h8.988l11.297 19.922 6.196-3.598-9.797-16.863c5.984-1.641 10.347-7.153 10.347-13.68zm-14.64-7.277c4.023 0 7.156 3.339 7.156 7.347s-3.203 7.352-7.156 7.352h-12.391v-14.699zm20.562 40.808h32.668v-6.797h-25.183v-11.226l0.199-0.199c2.109 1.558 5.523 3.129 9.605 3.129 8.918 0 16.473-7.079 16.473-16.258 0-9.246-7.414-16.934-16.684-16.934-7.285 0-17.289 5.098-17.218 19.313zm16.809-41.277c5.386 0 9.808 4.418 9.808 9.926 0 5.371-4.422 9.789-9.808 9.789-5.371 0-9.735-4.418-9.735-9.789 0-5.508 4.364-9.926 9.735-9.926zm80.332-7.008c3.472 21.555-7.156 38.969-20.352 48.285h-5.926l-15.46-46.176 7.695-1.98 13.137 39.66c7.898-5.719 16.343-20.547 13.621-38.289zm31.242 7.477v11.836h-0.344c-1.769-1.629-5.312-3.668-9.933-3.668-9.2 0-16.684 7.41-16.684 16.656 0 9.187 7.426 16.664 16.684 16.664 5.3 0 8.914-2.918 9.863-4.418h0.414v3.738h7.484v-47.605h-31.511v6.797zm-10.008 34.55c-5.515 0-9.867-4.418-9.867-9.925 0-5.508 4.281-9.926 9.867-9.926 5.442 0 9.805 4.418 9.805 9.855 0 5.578-4.363 9.996-9.805 9.996zm55.211 9.868c-2.723 0-5.582-1.301-6.062-3 12.668-0.75 22.535-11.145 22.535-24.411 0-13.808-10.688-24.484-24.028-24.484-13.347 0-24.035 10.676-24.035 24.484 0 13.196 9.805 23.602 22.395 24.411-0.34 4.418 2.039 9.726 9.195 9.726 8.024 0 12.25-7.547 12.25-7.547l-4.566-3.398s-2.719 4.219-7.684 4.219zm-23.965-27.411c0-10.89 7.895-17.546 16.41-17.546 8.504 0 16.403 6.656 16.403 17.546 0 10.875-7.899 17.543-16.403 17.543-8.515 0-16.41-6.668-16.41-17.543zm81 4.079c0.211 14.824-7.683 20.402-17.562 20.402-9.867 0-17.762-5.578-17.563-20.402v-27.883h7.485v27.883c-0.129 8.847 3.683 13.464 10.078 13.464 6.605 0 10.219-4.617 10.078-13.464v-27.883h7.484zm12.664-19.317c3.004 0 5.383-2.379 5.383-5.308 0-2.989-2.379-5.368-5.383-5.368-2.992 0-5.375 2.379-5.375 5.368 0 2.929 2.383 5.308 5.375 5.308zm-3.742 3.668h7.485v35.371h-7.485zm16.543 35.371h32.672v-6.797h-25.187v-11.226l0.199-0.199c2.113 1.558 5.527 3.129 9.609 3.129 8.914 0 16.469-7.079 16.469-16.258 0-9.246-7.414-16.934-16.68-16.934-7.285 0-17.293 5.098-17.223 19.313zm16.813-41.277c5.382 0 9.804 4.418 9.804 9.926 0 5.371-4.422 9.789-9.804 9.789-5.375 0-9.739-4.418-9.739-9.789 0-5.508 4.364-9.926 9.739-9.926zm57.386 7.746c0-7.816-6.336-14.074-14.09-14.074h-20.421v47.605h7.484v-19.312h8.984l11.297 19.922 6.196-3.598-9.797-16.863c5.984-1.641 10.347-7.153 10.347-13.68zm-14.64-7.277c4.023 0 7.156 3.339 7.156 7.347s-3.203 7.352-7.156 7.352h-12.387v-14.699zm21.511-5.707 25.188 6.726 1.699-6.597-25.183-6.727zm19.192 14.953v8.922h-0.27c-1.148-1.641-4.222-3.469-7.965-3.469-7.414 0-13.41 5.918-13.41 13.394 0 7.348 5.926 13.395 13 13.395 4.153 0 7.496-2.918 8.305-4.078h0.34v3.398h7.355v-38.219h-25.187v6.657zm-8.024 25.375c-3.742 0-6.746-2.93-6.746-6.668 0-3.809 2.864-6.727 6.746-6.727 3.672 0 6.536 2.918 6.536 6.598 0 3.867-2.864 6.797-6.536 6.797zm38.317-34.821c-0.399-0.14-1.36-0.269-1.969-0.269-3.672 0-5.855 2.648-5.855 5.226 0 2.321 1.16 3.809 2.933 4.899l9.867 6.191c4.493 2.789 6.942 6.188 6.942 11.227 0 8.836-7.766 14.414-14.91 14.414-7.625 0-12.528-4.758-14.496-10.195l5.851-3.469c1.5 2.848 3.473 6.656 8.645 6.656 4.226 0 7.285-2.648 7.285-6.316 0-2.789-1.09-4.77-3.332-6.129l-10.414-6.188c-3.344-1.968-5.586-5.441-5.586-10.34 0-8.765 7.754-12.984 13.281-12.984 1.289 0 2.648 0.199 3.332 0.41zm-506.11 100.3c10.278 0 18.524-8.098 18.524-18.773 0-10.606-8.246-18.832-18.524-18.832-10.148 0-18.382 8.226-18.382 18.832 0 10.675 8.234 18.773 18.382 18.773zm-23.144-36.996v40.875h24.164v6.797h-31.648v-47.672zm23.144 30.398c-5.652 0-11.027-4.828-11.027-12.175 0-7.336 5.375-12.305 11.027-12.305 5.727 0 11.098 4.969 11.098 12.305 0 7.347-5.371 12.175-11.098 12.175zm74.407-16.253c0-7.817-6.336-14.075-14.09-14.075h-20.426v47.602h7.484v-19.313h8.989l11.297 19.922 6.195-3.597-9.797-16.864c5.984-1.64 10.348-7.148 10.348-13.675zm-14.641-7.278c4.024 0 7.156 3.34 7.156 7.348s-3.203 7.348-7.156 7.348h-12.391v-14.696zm43.098 41.485c13.336 0 24.023-10.676 24.023-24.481s-10.687-24.48-24.023-24.48c-13.352 0-24.039 10.675-24.039 24.48s10.687 24.481 24.039 24.481zm0-6.938c-8.52 0-16.414-6.668-16.414-17.543 0-10.887 7.894-17.543 16.414-17.543 8.504 0 16.398 6.656 16.398 17.543 0 10.875-7.894 17.543-16.398 17.543zm53.972-11.555 14.911-29.789h8.507v47.602h-7.484v-35.906h-0.273l-12.938 27.468h-5.855l-12.926-27.468h-0.27v35.906h-7.496v-47.602h8.445l15.11 29.789zm56.5-22.992v11.836h-0.339c-1.77-1.629-5.313-3.668-9.938-3.668-9.195 0-16.68 7.406-16.68 16.653 0 9.187 7.426 16.664 16.68 16.664 5.305 0 8.918-2.918 9.867-4.418h0.41v3.738h7.485v-47.602h-31.508v6.797zm-10.004 34.547c-5.515 0-9.867-4.418-9.867-9.926s4.282-9.925 9.867-9.925c5.442 0 9.805 4.417 9.805 9.855 0 5.578-4.363 9.996-9.805 9.996zm56.84-7.406 0.481 2.578-0.141 0.07-22.394-36.586h-9.125v47.602h7.496v-34.746l-0.41-1.84 0.199-0.07 22.265 36.656h9.114v-47.602h-7.485zm57.176-4.149 14.91-29.789h8.504v47.602h-7.484v-35.906h-0.27l-12.937 27.468h-5.856l-12.925-27.468h-0.27v35.906h-7.496v-47.602h8.445l15.11 29.789zm31.047 17.813h32.672v-6.797h-25.188v-11.227l0.2-0.199c2.113 1.559 5.523 3.129 9.609 3.129 8.914 0 16.469-7.078 16.469-16.254 0-9.246-7.414-16.933-16.68-16.933-7.285 0-17.293 5.097-17.223 19.312zm16.809-41.274c5.386 0 9.808 4.418 9.808 9.926 0 5.367-4.422 9.785-9.808 9.785-5.372 0-9.735-4.418-9.735-9.785 0-5.508 4.363-9.926 9.735-9.926zm46.902 23.461 14.91-29.789h8.504v47.602h-7.484v-35.906h-0.27l-12.937 27.468h-5.856l-12.926-27.468h-0.269v35.906h-7.496v-47.602h8.445l15.109 29.789zm35.734-28.629 25.188 6.727 1.703-6.598-25.188-6.726zm12.262 47.122c10.207 0 18.441-8.098 18.441-18.704 0-10.605-8.234-18.703-18.441-18.703-10.219 0-18.453 8.098-18.453 18.703 0 10.606 8.234 18.704 18.453 18.704zm0-6.868c-5.996 0-11.238-4.558-11.238-11.836 0-7.277 5.242-11.835 11.238-11.835 5.98 0 11.227 4.558 11.227 11.835 0 7.278-5.247 11.836-11.227 11.836zm58.879-27.339c0-7.817-6.332-14.075-14.086-14.075h-20.426v47.602h7.485v-19.313h8.988l11.297 19.922 6.191-3.597-9.793-16.864c5.981-1.64 10.344-7.148 10.344-13.675zm-14.641-7.278c4.028 0 7.157 3.34 7.157 7.348s-3.2 7.348-7.157 7.348h-12.386v-14.696zm26.278 1.77c3.004 0 5.382-2.379 5.382-5.309 0-2.988-2.378-5.367-5.382-5.367-2.993 0-5.375 2.379-5.375 5.367 0 2.93 2.382 5.309 5.375 5.309zm-3.743 3.668h7.485v35.367h-7.485zm-475.41 61.886v8.977h-0.281c-1.152-1.84-4.211-3.668-7.965-3.668-7.414 0-13.41 5.906-13.41 13.395 0 7.335 5.926 13.394 13.008 13.394 4.156 0 7.484-2.93 8.308-4.289h0.34v3.738h7.344v-38.215h-25.188v6.668zm-26.418-4.148v41.004h27.098v6.598h-34.383v-47.602zm18.582 29.578c-3.871 0-6.945-2.988-6.945-6.867 0-3.938 2.934-6.938 6.945-6.938 4.024 0 6.946 3 6.946 6.797 0 4.02-2.922 7.008-6.946 7.008zm72.91-15.504c0-7.816-6.336-14.074-14.089-14.074h-20.422v47.602h7.484v-19.313h8.984l11.297 19.922 6.196-3.598-9.797-16.863c5.984-1.641 10.347-7.148 10.347-13.676zm-14.64-7.277c4.023 0 7.156 3.34 7.156 7.348 0 4.007-3.203 7.347-7.156 7.347h-12.387v-14.695zm20.562 40.805h32.672v-6.797h-25.187v-11.227l0.199-0.199c2.113 1.558 5.523 3.129 9.609 3.129 8.914 0 16.469-7.078 16.469-16.254 0-9.246-7.414-16.934-16.68-16.934-7.285 0-17.293 5.098-17.222 19.313zm16.809-41.274c5.387 0 9.808 4.418 9.808 9.926 0 5.367-4.421 9.785-9.808 9.785-5.371 0-9.734-4.418-9.734-9.785 0-5.508 4.363-9.926 9.734-9.926zm62.633-7.008c3.472 21.551-7.157 38.965-20.356 48.282h-5.922l-15.465-46.172 7.696-1.981 13.14 39.656c7.895-5.718 16.34-20.542 13.622-38.285zm10.472 1.84 25.188 6.727 1.703-6.598-25.188-6.726zm12.262 47.121c10.207 0 18.441-8.097 18.441-18.703 0-10.605-8.234-18.703-18.441-18.703-10.219 0-18.453 8.098-18.453 18.703 0 10.606 8.234 18.703 18.453 18.703zm0-6.867c-5.996 0-11.238-4.559-11.238-11.836s5.242-11.836 11.238-11.836c5.981 0 11.227 4.559 11.227 11.836s-5.246 11.836-11.227 11.836zm59.008-13.535c0.211 14.824-7.684 20.402-17.559 20.402-9.867 0-17.761-5.578-17.562-20.402v-27.879h7.484v27.879c-0.129 8.848 3.684 13.465 10.078 13.465 6.602 0 10.215-4.617 10.074-13.465v-27.879h7.485zm41.875-27.879h-38.125v6.797h15.32v40.805h7.485v-40.805h15.32zm29.336 6.797v11.836h-0.34c-1.773-1.629-5.316-3.668-9.938-3.668-9.199 0-16.683 7.406-16.683 16.652 0 9.188 7.426 16.664 16.683 16.664 5.301 0 8.915-2.918 9.868-4.418h0.41v3.739h7.484v-47.602h-31.512v6.797zm-10.008 34.547c-5.516 0-9.867-4.418-9.867-9.926s4.281-9.926 9.867-9.926c5.441 0 9.809 4.418 9.809 9.856 0 5.578-4.368 9.996-9.809 9.996zm60.918-42.024c-7.285 0-13.195 2.18-17.559 5.367v42.915h27.848c11.086-6.118 14.02-14.625 14.02-23.262 0-14.074-9.129-25.02-24.309-25.02zm-10.063 41.485v-32.039c2.579-1.7 5.981-2.649 10.063-2.649 10.008 0 16.684 7.278 16.684 18.223 0 7.418-2.524 12.586-8.575 16.465zm41.59 6.797h32.668v-6.797h-25.183v-11.227l0.199-0.199c2.109 1.558 5.523 3.129 9.605 3.129 8.918 0 16.473-7.078 16.473-16.254 0-9.246-7.414-16.934-16.684-16.934-7.285 0-17.289 5.098-17.218 19.313zm16.809-41.274c5.387 0 9.808 4.418 9.808 9.926 0 5.367-4.421 9.785-9.808 9.785-5.371 0-9.734-4.418-9.734-9.785 0-5.508 4.363-9.926 9.734-9.926zm28.25 2.238c3.004 0 5.383-2.379 5.383-5.308 0-2.988-2.379-5.367-5.383-5.367-2.992 0-5.375 2.379-5.375 5.367 0 2.929 2.383 5.308 5.375 5.308zm-3.742 3.668h7.484v35.368h-7.484zm-406.18 81.61c0 13.535 11.027 24.551 24.645 24.551 8.578 0 16.273-4.559 20.285-11.356l-5.926-3.34c-3.133 4.629-8.574 7.758-14.359 7.758-9.535 0-17.02-7.547-17.02-17.613 0-10.067 7.485-17.614 17.02-17.614 5.785 0 11.226 3.129 14.359 7.747l5.926-3.329c-4.012-6.796-11.707-11.355-20.285-11.355-13.618 0-24.645 11.016-24.645 24.551zm75.625-17.074v11.835h-0.34c-1.769-1.628-5.312-3.668-9.933-3.668-9.2 0-16.684 7.407-16.684 16.653 0 9.187 7.426 16.664 16.684 16.664 5.3 0 8.914-2.918 9.863-4.418h0.41v3.738h7.485v-47.601h-31.508v6.797zm-10.004 34.546c-5.515 0-9.867-4.418-9.867-9.925 0-5.508 4.281-9.926 9.867-9.926 5.442 0 9.805 4.418 9.805 9.855 0 5.578-4.363 9.996-9.805 9.996zm40.09-34.746c-0.398-0.14-1.359-0.269-1.973-0.269-3.671 0-5.851 2.648-5.851 5.226 0 2.321 1.16 3.809 2.933 4.899l9.864 6.187c4.496 2.789 6.945 6.188 6.945 11.227 0 8.836-7.766 14.414-14.91 14.414-7.625 0-12.527-4.758-14.5-10.195l5.855-3.469c1.5 2.847 3.473 6.656 8.645 6.656 4.223 0 7.285-2.648 7.285-6.316 0-2.789-1.09-4.77-3.332-6.129l-10.418-6.188c-3.344-1.968-5.582-5.437-5.582-10.336 0-8.765 7.754-12.984 13.277-12.984 1.293 0 2.653 0.199 3.332 0.41zm16 17.274c0 13.535 11.023 24.551 24.645 24.551 8.574 0 16.273-4.559 20.285-11.356l-5.926-3.34c-3.133 4.629-8.574 7.758-14.359 7.758-9.536 0-17.02-7.547-17.02-17.613 0-10.067 7.484-17.614 17.02-17.614 5.785 0 11.226 3.129 14.359 7.747l5.926-3.329c-4.012-6.796-11.711-11.355-20.285-11.355-13.622 0-24.645 11.016-24.645 24.551zm75.629-17.074v11.835h-0.34c-1.773-1.628-5.316-3.668-9.937-3.668-9.196 0-16.68 7.407-16.68 16.653 0 9.187 7.426 16.664 16.68 16.664 5.304 0 8.918-2.918 9.867-4.418h0.41v3.738h7.484v-47.601h-31.511v6.797zm-10.008 34.546c-5.512 0-9.863-4.418-9.863-9.925 0-5.508 4.281-9.926 9.863-9.926 5.445 0 9.809 4.418 9.809 9.855 0 5.578-4.364 9.996-9.809 9.996zm65.219-42.023c3.473 21.551-7.156 38.965-20.356 48.281h-5.925l-15.461-46.172 7.695-1.98 13.141 39.656c7.894-5.719 16.339-20.543 13.621-38.285zm6.59 1.16 25.187 6.727 1.715-6.598-25.199-6.727zm-0.879 47.192h23.969v-6.668h-16.754v-7.137l0.199-0.211c1.644 1.699 3.754 2.379 5.797 2.379 6.875 0 12.586-5.508 12.586-12.574 0-7.137-5.711-13.125-12.727-13.125-5.586 0-13.14 3.949-13.14 14.754zm12.73-30.61c3.399 0 6.192 2.789 6.192 6.258 0 3.34-2.793 6.129-6.192 6.129-3.332 0-6.054-2.789-6.054-6.129 0-3.469 2.722-6.258 6.054-6.258zm55.61 10.817c0.211 14.824-7.684 20.402-17.563 20.402-9.863 0-17.758-5.578-17.558-20.402v-27.879h7.484v27.879c-0.129 8.847 3.684 13.464 10.074 13.464 6.606 0 10.219-4.617 10.078-13.464v-27.879h7.485zm21.918-21.282c-0.399-0.14-1.36-0.269-1.969-0.269-3.672 0-5.856 2.648-5.856 5.226 0 2.321 1.165 3.809 2.934 4.899l9.867 6.187c4.492 2.789 6.946 6.188 6.946 11.227 0 8.836-7.766 14.414-14.911 14.414-7.625 0-12.531-4.758-14.5-10.195l5.852-3.469c1.504 2.847 3.473 6.656 8.648 6.656 4.223 0 7.286-2.648 7.286-6.316 0-2.789-1.094-4.77-3.333-6.129l-10.417-6.188c-3.344-1.968-5.586-5.437-5.586-10.336 0-8.765 7.757-12.984 13.281-12.984 1.289 0 2.652 0.199 3.332 0.41z" clip-path="url(#clipPath48)"/>
 </g>
</svg>
