<!-- Created with Inkscape (http://www.inkscape.org/) -->
<svg id="svg1" width="1274.7" height="904" sodipodi:docname="pdb_presentation_biarnesa_mde.pdf" version="1.1" viewBox="0 0 1274.7 904" xmlns="http://www.w3.org/2000/svg" xmlns:inkscape="http://www.inkscape.org/namespaces/inkscape" xmlns:sodipodi="http://sodipodi.sourceforge.net/DTD/sodipodi-0.dtd" xmlns:xlink="http://www.w3.org/1999/xlink">
 <defs id="defs1">
  <clipPath id="clipPath11">
   <path id="path11" transform="translate(-2.5e-5)" d="m50.934 67.18h842.78v571.99h-842.78z"/>
  </clipPath>
  <clipPath id="clipPath13">
   <path id="path13" transform="translate(-2.5e-5)" d="m50.934 67.18h842.78v571.99h-842.78z"/>
  </clipPath>
 </defs>
 <sodipodi:namedview id="namedview1" bordercolor="#666666" borderopacity="1.0" inkscape:deskcolor="#d1d1d1" inkscape:pagecheckerboard="0" inkscape:pageopacity="0.0" inkscape:showpageshadow="2" pagecolor="#ffffff">
  <inkscape:page id="page6" x="0" y="0" width="1274.6667" height="904" bleed="0" inkscape:label="38" margin="0"/>
 </sodipodi:namedview>
 <g id="g6" transform="translate(-1294.7)" inkscape:groupmode="layer" inkscape:label="38">
  <rect id="rect232-3" x="1294.7" width="1274.7" height="904" fill="#fff" stroke-dashoffset="34.016" stroke-linecap="round" stroke-linejoin="round" stroke-width="1.1792" style="paint-order:markers stroke fill"/>
  <path id="path10" transform="matrix(1.3333 0 0 1.3333 1294.7 0)" d="m104.9 107.53v10.442h-0.293c-1.571-1.442-4.692-3.246-8.774-3.246-8.105 0-14.711 6.539-14.711 14.707 0 8.097 6.547 14.695 14.711 14.695 4.68 0 7.871-2.578 8.703-3.902h0.364v3.304h6.605v-42h-27.801v6zm-8.833 30.481c-4.855 0-8.703-3.903-8.703-8.766 0-4.851 3.789-8.754 8.703-8.754 4.809 0 8.657 3.903 8.657 8.696 0 4.921-3.848 8.824-8.657 8.824zm59.352-17.344c3.719-1.312 6.066-4.195 6.066-8.578 0-6.715-5.113-10.559-12.55-10.559h-15.203v42h17.359c7.449 0 13.094-5.156 13.094-12.539 0-5.097-3.18-8.824-8.766-10.324zm-6.848-13.137c3.176 0 6.297 1.325 6.368 5.285-0.071 3.95-3.192 5.579-6.368 5.579h-8.238v-10.864zm-8.238 30v-13.136h10.758c3.543 0 6.664 2.273 6.664 6.597 0 4.02-3.121 6.539-6.664 6.539zm43.797-14.941c0 11.941 9.727 21.656 21.738 21.656 7.567 0 14.36-4.019 17.903-10.019l-5.235-2.93c-2.758 4.078-7.566 6.832-12.668 6.832-8.41 0-15.015-6.656-15.015-15.539s6.605-15.539 15.015-15.539c5.102 0 9.91 2.765 12.668 6.844l5.235-2.942c-3.543-6-10.336-10.019-17.903-10.019-12.011 0-21.738 9.715-21.738 21.656zm75.254-21.656c-6.426 0-11.649 1.922-15.496 4.734v37.863h24.566c9.793-5.402 12.375-12.902 12.375-20.519 0-12.422-8.047-22.078-21.445-22.078zm-8.891 36.597v-28.265c2.285-1.5 5.289-2.332 8.891-2.332 8.836 0 14.723 6.422 14.723 16.078 0 6.539-2.227 11.097-7.579 14.519zm51.715 6h28.836v-6h-22.23v-9.902l0.187-0.176c1.867 1.383 4.867 2.754 8.469 2.754 7.863 0 14.535-6.234 14.535-14.332 0-8.168-6.543-14.941-14.723-14.941-6.414 0-15.25 4.5-15.191 17.039zm14.84-36.422c4.742 0 8.648 3.903 8.648 8.766 0 4.734-3.906 8.637-8.648 8.637-4.75 0-8.586-3.903-8.586-8.637 0-4.863 3.836-8.766 8.586-8.766zm35.375-5.636h26.734v6h-20.132v11.519h18.324v6h-18.324v18.539h-6.602zm77.719 32.273c-2.332 2.942-6.485 4.383-10.629 4.383-8.41 0-15.016-6.961-15.016-15.539 0-8.883 6.606-15.656 15.016-15.656 5.105 0 9.914 2.754 12.672 6.961l5.23-2.942c-3.543-6-10.332-10.019-17.902-10.019-12.012 0-21.735 9.715-21.735 21.656 0 12.176 9.606 21.656 21.254 21.656 7.508 0 14.301-3.293 17.715-9v-12.949h-17.89v6h11.285zm28.289-32.215h6.605v17.883h19.403v-17.883h6.605v42h-6.605v-18.117h-19.403v18.117h-6.605zm59.402 7.559c2.652 0 4.75-2.098 4.75-4.676 0-2.648-2.098-4.746-4.75-4.746-2.64 0-4.738 2.098-4.738 4.746 0 2.578 2.098 4.676 4.738 4.676zm-3.297 3.246h6.606v31.195h-6.606zm48.469-3.246c2.641 0 4.742-2.098 4.742-4.676 0-2.648-2.101-4.746-4.742-4.746-2.637 0-4.75 2.098-4.75 4.746 0 2.578 2.113 4.676 4.75 4.676zm-3.117 21.844c0 4.441-2.406 7.019-5.832 7.019-3.485 0-6.125-2.578-6.125-5.824h-6.602c0 7.02 5.395 12 12.492 12 7.145 0 12.668-4.98 12.668-13.195v-18.598h-6.601zm49.422-9.668c6.136-4.254 8.468-10.254 8.234-19.735l-6.121 0.176 0.059 1.09c0.351 13.969-8.415 16.019-14.665 17.332v-18.598h-6.605v42h6.605v-17.578c1.747-0.187 4.633-0.785 7.024-1.804l11.301 19.921 5.465-3.175zm37.121-19.793v36.058h18.922v6h-25.528v-42.058zm59.16 26.343 13.152-26.285h7.508v42h-6.605v-31.675h-0.235l-11.414 24.234h-5.16l-11.414-24.234h-0.246v31.675h-6.606v-42h7.45l13.336 26.285zm-595.16 83.633 0.422 2.274-0.117 0.07-19.766-32.285h-8.051v42.004h6.606v-30.66l-0.352-1.629 0.176-0.059 19.637 32.348h8.05v-42.004h-6.605zm48.23 12.66c11.766 0 21.2-9.425 21.2-21.601s-9.434-21.598-21.2-21.598c-11.777 0-21.195 9.422-21.195 21.598s9.418 21.601 21.195 21.601zm0-6.121c-7.507 0-14.476-5.882-14.476-15.48s6.969-15.481 14.476-15.481c7.508 0 14.477 5.883 14.477 15.481s-6.969 15.48-14.477 15.48zm48.227-9.058v14.582h-6.602v-42.004h15.438c7.625 0 13.687 6.058 13.687 13.676 0 7.558-6.121 13.746-13.687 13.746zm8.355-6c4.082 0 7.45-3.539 7.45-7.688 0-4.195-3.309-7.734-7.45-7.734h-8.355v15.422zm59.758 23.758c-2.402 0-4.926-1.137-5.336-2.637 11.168-0.656 19.871-9.848 19.871-21.543 0-12.176-9.429-21.598-21.195-21.598-11.781 0-21.199 9.422-21.199 21.598 0 11.637 8.644 20.828 19.754 21.543-0.305 3.902 1.808 8.578 8.105 8.578 7.086 0 10.817-6.656 10.817-6.656l-4.024-3s-2.402 3.715-6.793 3.715zm-21.137-24.18c0-9.598 6.969-15.481 14.477-15.481s14.477 5.883 14.477 15.481-6.969 15.48-14.477 15.48-14.477-5.882-14.477-15.48zm86.375-8.578c0-6.903-5.582-12.422-12.433-12.422h-18.02v42.004h6.606v-17.043h7.929l9.969 17.582 5.469-3.176-8.656-14.887c5.289-1.441 9.136-6.304 9.136-12.058zm-12.914-6.422c3.543 0 6.297 2.941 6.297 6.48s-2.812 6.481-6.297 6.481h-10.933v-12.961zm46.368-0.176c-0.364-0.129-1.207-0.246-1.746-0.246-3.239 0-5.165 2.344-5.165 4.617 0 2.039 1.024 3.363 2.582 4.324l8.707 5.461c3.965 2.461 6.133 5.461 6.133 9.903 0 7.793-6.851 12.718-13.16 12.718-6.723 0-11.051-4.199-12.789-9.003l5.164-3.059c1.324 2.519 3.059 5.883 7.625 5.883 3.731 0 6.426-2.344 6.426-5.578 0-2.461-0.961-4.207-2.941-5.403l-9.188-5.461c-2.945-1.746-4.926-4.804-4.926-9.117 0-7.746 6.852-11.461 11.719-11.461 1.137 0 2.336 0.176 2.934 0.364zm56.461-5.824h-33.633v6h13.511v36.004h6.606v-36.004h13.516zm49.308 24.598c0.176 13.078-6.793 18.003-15.496 18.003-8.707 0-15.676-4.925-15.496-18.003v-24.598h6.601v24.598c-0.117 7.804 3.25 11.882 8.895 11.882 5.828 0 9.008-4.078 8.891-11.882v-24.598h6.605zm56.52-25.196c3.062 19.02-6.313 34.383-17.961 42.602h-5.219l-13.645-40.738 6.793-1.747 11.59 34.981c6.969-5.039 14.418-18.117 12.012-33.785zm63.781 1.617c2.406 9.961-0.059 22.325-5.699 31.196l-9.188-25.91-6.789 1.734c0.059 7.383-3.121 18.059-6.969 24.117l-9.668-32.637-6.793 1.747 12.438 40.738h4.984c3.063-4.621 7.989-12.719 10.149-22.024l7.812 22.024h4.985c7.449-10.024 14.711-23.465 10.992-42.602zm59.594-1.019c-9.493-0.363-15.981 6.176-17.598 10.617h-0.246c-1.797-4.617-8.469-10.98-17.774-10.617v5.941c8.469 0 14.407 6.539 14.407 15.176 0 8.707-5.938 14.941-14.348 14.941v5.946c10.453 0.363 16.094-6.789 17.598-10.68h0.234c1.383 4.02 7.449 10.984 17.727 10.621v-5.945c-8.297 0-14.418-6.363-14.418-14.883 0-8.461 5.945-15.176 14.418-15.176zm19.816 42.004h28.352v-42.004h-6.614v14.824c0 4.91-4.082 7.981-8.109 7.981-4.621 0-8.469-3.844-8.469-8.52l-0.058-14.285h-6.606l0.059 14.285c0.058 8.52 6.547 14.391 14.242 14.391 3.894 0 6.898-1.442 8.59-2.578h0.351v9.902h-21.738zm81.199-42.004h-32.133v6.305h22.829l1.257-0.188 0.129 0.188-24.215 28.429v7.27h32.133v-6.309h-22.218l-1.868 0.188-0.117-0.188 24.203-28.429zm-647.54 100.98c0-14.402-7.508-21.597-15.918-21.597s-15.789 7.195-15.789 21.597c0 13.735 7.379 21.598 15.789 21.598s15.918-7.676 15.918-21.598zm-6.847 0c0 10.137-4.086 15.422-9.071 15.422-4.867 0-9.066-5.285-9.066-15.422 0-10.863 4.199-15.422 9.066-15.422 4.985 0 9.071 4.559 9.071 15.422zm28.171 21h6.793v-42.902l-6.793 2.098zm51.118-19.5c2.336-2.883 3.836-6.539 3.836-10.5 0-6.961-5.465-12.597-12.844-12.597-7.875 0-13.574 5.695-13.574 12.902 0 7.254 6.183 12.117 13.089 12.117v0.481l-13.511 17.097h25.644v-6h-13.457zm-16.036-10.383c0-3.656 3-6.597 6.782-6.597 3.73 0 6.672 2.883 6.672 6.715 0 3.785-2.766 6.422-6.555 6.422-3.899 0-6.899-2.942-6.899-6.54zm62.7 17.825c0-5.344-3.485-9.785-7.742-10.325v-0.293c3.718-0.843 6.839-4.804 6.839-9.726 0-6.293-5.222-10.195-11.402-10.195-2.887 0-5.41 0.832-7.512 2.273l3.485 4.863c0.836-0.597 2.101-1.019 3.472-1.019 3.075 0 5.176 2.344 5.176 5.097 0 2.579-1.926 5.649-5.469 5.649h-3.789v6.598h2.711c5.524 0 7.742 3.597 7.742 6.832 0 3.609-2.816 6.48-6.546 6.48-3.719 0-6.122-2.941-6.911-6.293l-5.757 1.852c1.019 5.109 5.101 10.863 12.726 10.863 7.508 0 12.977-5.754 12.977-12.656zm44.207-29.942h-6.606l-21.922 34.266h21.922v7.734h6.606v-7.734h5.586v-5.649h-5.586zm-18.196 28.617 11.59-18.902v18.902zm46.309-28.617h19.875v6h-13.75l-1.207 12.961 0.246 0.117c0.715-0.363 2.344-0.773 4.082-0.773 5.828 0 11.356 4.5 11.356 11.812 0 7.383-5.95 12.481-13.036 12.481-7.871 0-11.66-5.754-12.679-10.863l5.715-1.371c1.136 3.351 3.293 6.234 6.964 6.234 3.719 0 6.125-2.941 6.125-6.059 0-3.304-2.582-6.175-6.253-6.175-1.969 0-3.415 0.832-4.2 1.558h-5.347zm40.004 30c0 6.961 5.398 12.598 12.613 12.598 7.742 0 13.324-5.695 13.324-12.902 0-7.254-6.062-12.118-13.031-12.118v-0.48l9.547-14.039-5.336-3.656-13.34 20.097c-1.98 3.059-3.777 6.539-3.777 10.5zm12.848 6.422c-3.602 0-6.489-2.883-6.489-6.656 0-3.727 2.711-6.363 6.371-6.363 3.789 0 6.719 2.941 6.719 6.48 0 3.598-2.93 6.539-6.601 6.539zm35.683-30.422h16.449l0.071 0.176-1.575 2.109-18.91 31.559 5.821 3.059 25.832-42.903h-27.688zm62.406 13.676c4.317-2.215 5.465-6 5.465-9.059 0-6.773-5.711-11.214-12.011-11.214-6.372 0-12.071 4.441-12.071 11.214 0 3.059 1.137 6.844 5.453 9.059v0.188c-4.855 2.46-6.418 6.539-6.418 10.253 0 7.442 6.067 12.422 13.036 12.422 6.898 0 12.972-4.98 12.972-12.422 0-3.714-1.629-7.734-6.426-10.253zm-6.546-14.098c3.121 0 5.277 2.579 5.277 5.637 0 3.07-2.156 5.402-5.277 5.402-3.192 0-5.352-2.332-5.352-5.402 0-3.058 2.16-5.637 5.352-5.637zm0 30.844c-3.848 0-6.489-2.824-6.489-6.539 0-3.726 2.641-6.844 6.489-6.844 3.777 0 6.429 3.118 6.429 6.844 0 3.715-2.652 6.539-6.429 6.539zm58.55-24.422c0-6.961-5.394-12.597-12.609-12.597-7.742 0-13.328 5.695-13.328 12.902 0 7.254 6.066 12.117 13.035 12.117v0.481l-9.551 14.039 5.34 3.656 13.336-20.098c1.984-3.058 3.777-6.539 3.777-10.5zm-12.843-6.422c3.601 0 6.488 2.883 6.488 6.657 0 3.726-2.711 6.363-6.371 6.363-3.789 0-6.723-2.941-6.723-6.481 0-3.597 2.934-6.539 6.606-6.539zm36.097 38.52c2.578 0 4.739-2.156 4.739-4.734 0-2.649-2.161-4.805-4.739-4.805-2.582 0-4.754 2.156-4.754 4.805 0 2.578 2.172 4.734 4.754 4.734zm27.27-9.422c-0.305-0.059-0.61-0.117-0.961-0.117h-0.188c-2.699 0-4.621 1.922-4.738 4.558-0.117 2.579 1.863 4.747 4.445 4.981-0.726 3.422-3.789 5.344-5.043 5.941l1.981 2.578c5.469-2.578 8.762-6.714 8.762-11.402 0-3.832-1.676-5.93-4.258-6.539zm58.379 15.129v-6.07h-35.981v6.07zm22.164-33.668c2.578 0 4.75-2.156 4.75-4.734 0-2.637-2.172-4.805-4.75-4.805-2.582 0-4.742 2.168-4.742 4.805 0 2.578 2.16 4.734 4.742 4.734zm0 21c2.578 0 4.75-2.156 4.75-4.734 0-2.637-2.172-4.805-4.75-4.805-2.582 0-4.742 2.168-4.742 4.805 0 2.578 2.16 4.734 4.742 4.734zm28.222-11.637c2.582 0 4.75-2.156 4.75-4.734 0-2.649-2.168-4.805-4.75-4.805s-4.738 2.156-4.738 4.805c0 2.578 2.156 4.734 4.738 4.734zm0.246 9.059h-0.117c-2.593-0.176-4.867 1.922-4.984 4.558-0.129 2.579 1.91 4.805 4.504 4.981 0.351 0 0.715 0 1.078-0.117-0.844 3.48-4.926 5.461-6.191 6.058l1.98 2.578c5.469-2.578 8.234-6.714 8.527-11.402 0.192-4.312-1.91-6.48-4.797-6.656zm28.711-34.793h-0.117c-2.59-0.188-4.867 1.91-4.984 4.558-0.129 2.579 1.914 4.793 4.504 4.981 0.351 0 0.715 0 1.082-0.129-0.848 3.481-4.93 5.461-6.196 6.059l1.981 2.589c5.469-2.589 8.238-6.726 8.531-11.402 0.188-4.324-1.914-6.48-4.801-6.656zm-613.13 97.98v6.059h24.028v-6.059zm0 12.235v6.058h24.028v-6.058zm56.157-6.117h-11.11v6h11.11v12h6.605v-12h11.121v-6h-11.121v-12h-6.605zm78.386-13.747h-6.664l1.383-8.871-6.367-1.031-1.562 9.902h-9.606l1.371-8.871-6.359-1.031-1.559 9.902h-10.277v6.422h9.246l-1.504 9.598h-7.742v6.422h6.723l-1.43 9.117 6.355 1.02 1.633-10.137h9.606l-1.442 9.117 6.371 1.02 1.617-10.137h10.207v-6.422h-9.187l1.504-9.598h7.683zm-25.339 16.02 1.5-9.598h9.609l-1.5 9.598zm68.578-17.039c0-6.352-5.16-11.461-11.473-11.461-6.297 0-11.531 5.109-11.531 11.461 0 5.578 4.269 9.48 9.621 10.207-1.633 1.793-2.77 3.961-2.77 6.891 0 1.746 0.364 3.421 2.161 6.07l4.984-2.344c-0.774-1.078-1.195-2.156-1.195-4.019 0-7.559 10.203-8.461 10.203-16.805zm-16.574-0.234c0-2.766 2.23-5.098 5.101-5.098 2.828 0 5.059 2.332 5.059 5.098 0 2.753-2.231 5.097-5.059 5.097-2.871 0-5.101-2.344-5.101-5.097zm4.503 35.46c2.582 0 4.75-2.167 4.75-4.746 0-2.636-2.168-4.793-4.75-4.793s-4.738 2.157-4.738 4.793c0 2.579 2.156 4.746 4.738 4.746zm43.618-36c-2.594 0-4.75 2.157-4.75 4.735 0 2.637 2.156 4.805 4.75 4.805 2.582 0 4.738-2.168 4.738-4.805 0-2.578-2.156-4.735-4.738-4.735zm-12.082 35.215c0 6.364 5.171 11.461 11.472 11.461 6.309 0 11.531-5.097 11.531-11.461 0-5.578-4.257-9.48-9.609-10.195 1.621-1.805 2.77-3.961 2.77-6.902 0-1.746-0.364-3.422-2.172-6.059l-4.985 2.332c0.786 1.09 1.207 2.168 1.207 4.031 0 7.559-10.214 8.45-10.214 16.793zm16.586 0.246c0 2.754-2.227 5.098-5.114 5.098-2.816 0-5.047-2.344-5.047-5.098 0-2.765 2.231-5.109 5.047-5.109 2.887 0 5.114 2.344 5.114 5.109zm26.605-43.804v30.902h6.062v-30.902zm2.402 44.343c2.582 0 4.743-2.167 4.743-4.746 0-2.636-2.161-4.793-4.743-4.793-2.578 0-4.75 2.157-4.75 4.793 0 2.579 2.172 4.746 4.75 4.746zm26.91-36.539c-2.582 0-4.753 2.157-4.753 4.735 0 2.637 2.171 4.804 4.753 4.804 2.579 0 4.739-2.167 4.739-4.804 0-2.578-2.16-4.735-4.739-4.735zm3.661 13.43h-6.067v30.902h6.067zm41.027 15.668c-8.238 0-14.957-7.266-14.957-16.137 0-8.343 6.309-15.55 16.269-15.55h5.653v6.48h-0.363c-1.079-0.773-2.637-1.617-5.29-1.617-5.761 0-11.226 4.207-11.226 10.687 0 6.176 4.504 11.215 10.758 11.215 3.953 0 6.238-1.863 6.547-2.824h0.175v1.922h4.985v-31.793h-11.836c-13.809 0-21.856 10.43-21.856 21.48 0 11.754 8.282 21.95 20.539 21.95h13.692v-5.813zm1.254-10.746c-3.004 0-5.34-2.391-5.34-5.391s2.395-5.402 5.398-5.402c3.004 0 5.465 2.402 5.465 5.402s-2.519 5.391-5.523 5.391zm32.082-5.695c0 16.136 8.527 26.882 9.184 27.656l4.988-3.117c-2.887-4.383-7.449-13.137-7.449-24.539 0-11.403 4.562-20.157 7.449-24.539l-4.988-3.118c-0.657 0.774-9.184 11.52-9.184 27.657zm45.766 0c0-16.137-8.528-26.883-9.2-27.657l-4.984 3.118c2.887 4.382 7.449 13.136 7.449 24.539 0 11.402-4.562 20.156-7.449 24.539l4.984 3.117c0.672-0.774 9.2-11.52 9.2-27.656zm36.933 29.941h-15.308v-59.637h15.074v5.696h-8.891v48.234h9.125zm25.344-5.707v-48.234h-8.879v-5.696h15.074v59.637h-15.32v-5.707zm39.164-51.117c-4.316 0-8.469 4.019-8.469 8.461 0 6 2.461 8.285 2.461 13.019 0 3.844-3.543 4.618-5.945 4.5v4.137c2.285-0.117 5.945 0.422 5.945 4.441 0 4.981-2.461 7.149-2.461 13.207 0 5.215 4.328 8.274 8.598 8.274 2.394 0 4.973-1.078 6.242-2.695l-2.641-4.325c-0.597 0.539-1.804 1.137-2.886 1.137-1.617 0-3.004-1.137-3.004-3.539 0-3.539 2.582-8.754 2.582-12 0-3.41-2.524-6.293-5.219-6.48v-0.235c2.695-0.117 5.16-2.344 5.16-5.402 0-3.715-2.523-10.383-2.523-13.137 0-2.285 1.258-3.48 3.004-3.48 1.386 0 2.406 0.715 2.886 1.195l2.7-4.254c-0.657-1.019-3.063-2.824-6.43-2.824zm29.074 0c-3.367 0-5.762 1.805-6.429 2.824l2.71 4.254c0.481-0.48 1.5-1.195 2.872-1.195 1.75 0 3.003 1.195 3.003 3.48 0 2.754-2.519 9.422-2.519 13.137 0 3.058 2.461 5.285 5.172 5.402v0.235c-2.711 0.187-5.231 3.07-5.231 6.48 0 3.246 2.578 8.461 2.578 12 0 2.402-1.371 3.539-3.003 3.539-1.079 0-2.274-0.598-2.872-1.137l-2.652 4.325c1.266 1.617 3.848 2.695 6.254 2.695 4.258 0 8.586-3.059 8.586-8.274 0-6.058-2.465-8.226-2.465-13.207 0-4.019 3.66-4.558 5.949-4.441v-4.137c-2.406 0.118-5.949-0.656-5.949-4.5 0-4.734 2.465-7.019 2.465-13.019 0-4.442-4.141-8.461-8.469-8.461zm29.071 7.383 5.89-1.864 14.289 42-6.183 1.864zm70.57 14.039c0 5.765-0.961 10.265-4.258 14.461l-8.238-9.539c3.965-1.981 7.578-5.461 7.578-10.02 0-6.48-4.387-10.5-10.871-10.5-6.008 0-10.875 5.098-10.875 10.734 0 3.305 2.461 6.305 4.328 8.227-5.176 1.793-11.051 5.813-11.051 11.871 0 5.461 4.621 11.766 14.477 11.766 5.453 0 9.84-1.559 13.382-4.137l3.79 4.371 4.929-4.195-4.023-4.196c5.043-5.343 6.543-11.648 6.66-18.785zm-15.555-9.657c2.461 0 4.387 1.793 4.387 4.254 0 2.403-2.524 4.5-5.528 5.707-1.558-1.863-3.179-3.48-3.179-5.707 0-2.461 1.855-4.254 4.32-4.254zm-11.285 24.293c0-3.902 3.66-5.695 8.105-7.078l9.547 11.039c-2.636 1.383-5.828 2.227-9.488 2.227-4.141 0-8.164-1.863-8.164-6.188zm75.68-19.5c0 6.129-4.75 10.864-10.754 10.864-6.008 0-10.746-4.735-10.746-10.864 0-6 4.738-10.734 10.746-10.734 6.004 0 10.754 4.734 10.754 10.734zm-17.899 0c0 4.383 3 7.559 7.145 7.559 4.14 0 7.144-3.176 7.144-7.559 0-4.253-3.004-7.5-7.144-7.5-4.145 0-7.145 3.247-7.145 7.5zm9.125 1.383c-0.058 0.246-0.785 1.137-1.863 1.137-1.199 0-2.102-1.02-2.102-2.273 0-1.207 0.903-2.227 2.102-2.227 0.785 0 1.383 0.422 1.746 1.078l2.699-1.617c-0.961-1.676-2.523-2.637-4.316-2.637-3.004 0-5.235 2.403-5.235 5.403 0 3.058 2.231 5.402 5.235 5.402 1.137 0 2.273-0.363 3.18-1.09 0.363-0.234 0.96-0.832 1.324-1.617zm-663.1 69.539 1.504 5.825 22.23-5.942-1.504-5.824zm17.246 13.078v7.864h-0.246c-1.02-1.442-3.719-3.059-7.028-3.059-6.546 0-11.824 5.215-11.824 11.824 0 6.481 5.219 11.813 11.473 11.813 3.66 0 6.605-2.578 7.32-3.598h0.305v3h6.488v-33.715h-22.23v5.871zm-7.086 22.383c-3.309 0-5.945-2.578-5.945-5.883 0-3.351 2.519-5.941 5.945-5.941 3.238 0 5.762 2.59 5.762 5.824 0 3.422-2.524 6-5.762 6zm33.996-35.402 2.523 5.519 12.188-5.039 12.191 5.039 2.52-5.519-14.711-6zm19.395 13.019v7.864h-0.239c-1.019-1.442-3.73-3.059-7.023-3.059-6.547 0-11.84 5.215-11.84 11.824 0 6.481 5.234 11.813 11.473 11.813 3.66 0 6.605-2.578 7.332-3.598h0.297v3h6.484v-33.715h-22.219v5.871zm-7.086 22.383c-3.297 0-5.95-2.578-5.95-5.883 0-3.351 2.524-5.941 5.95-5.941 3.25 0 5.769 2.59 5.769 5.824 0 3.422-2.519 6-5.769 6zm39.105-35.578 22.219 5.942 1.5-5.825-22.219-5.941zm16.938 13.195v7.864h-0.247c-1.019-1.442-3.718-3.059-7.027-3.059-6.543 0-11.824 5.215-11.824 11.824 0 6.481 5.223 11.813 11.473 11.813 3.66 0 6.605-2.578 7.32-3.598h0.305v3h6.488v-33.715h-22.231v5.871zm-7.086 22.383c-3.309 0-5.946-2.578-5.946-5.883 0-3.351 2.52-5.941 5.946-5.941 3.238 0 5.761 2.59 5.761 5.824 0 3.422-2.523 6-5.761 6zm64.867-10.617c1.855 1.383 4.859 2.754 8.472 2.754 7.86 0 14.536-6.234 14.536-14.332 0-8.168-6.547-14.941-14.664-14.941-3.485 0-6.782 1.675-8.227 3h-0.305v-2.403h-27.8v6h21.199l-0.059 10.137v0.305h-0.308c-1.559-1.442-4.622-3.246-8.704-3.246-8.105 0-14.71 6.539-14.71 14.707 0 8.097 6.546 14.695 14.71 14.695 4.68 0 7.872-2.578 8.704-3.902h0.367v3.304h27.625v-6h-21.024v-9.902zm7.859-20.285c4.754 0 8.531 3.902 8.531 8.707 0 4.617-3.777 8.578-8.531 8.578-4.738 0-8.527-3.902-8.527-8.578 0-4.805 3.789-8.707 8.527-8.707zm-23.238 30.785c-4.809 0-8.586-3.844-8.586-8.707 0-4.852 3.719-8.695 8.586-8.695 4.809 0 8.59 3.843 8.59 8.636 0 4.922-3.781 8.766-8.59 8.766zm57.355-35.344 1.504 5.825 22.231-5.942-1.504-5.824zm0.907 40.981h21.136v-5.883h-14.769v-6.293l0.176-0.187c1.445 1.5 3.308 2.109 5.105 2.109 6.074 0 11.121-4.863 11.121-11.109 0-6.293-5.047-11.579-11.238-11.579-4.93 0-11.59 3.481-11.59 13.02zm11.238-27c3.004 0 5.453 2.461 5.453 5.519 0 2.942-2.449 5.403-5.453 5.403-2.945 0-5.352-2.461-5.352-5.403 0-3.058 2.407-5.519 5.352-5.519zm35.672-10.559c2.637 0 4.75-2.097 4.75-4.676 0-2.648-2.113-4.746-4.75-4.746-2.641 0-4.742 2.098-4.742 4.746 0 2.579 2.101 4.676 4.742 4.676zm17.418 0c2.64 0 4.742-2.097 4.742-4.676 0-2.648-2.102-4.746-4.742-4.746-2.637 0-4.75 2.098-4.75 4.746 0 2.579 2.113 4.676 4.75 4.676zm-20.785 37.559h21.148v-5.883h-14.781v-6.293l0.176-0.187c1.445 1.5 3.308 2.109 5.117 2.109 6.062 0 11.109-4.863 11.109-11.109 0-6.293-5.047-11.579-11.238-11.579-4.918 0-11.59 3.481-11.59 13.02zm11.238-27c3.004 0 5.465 2.461 5.465 5.519 0 2.942-2.461 5.403-5.465 5.403-2.945 0-5.352-2.461-5.352-5.403 0-3.058 2.407-5.519 5.352-5.519zm34.953-14.637 22.219 5.941 1.504-5.824-22.219-5.941zm-0.785 41.637h21.14v-5.883h-14.769v-6.293l0.176-0.187c1.441 1.5 3.308 2.109 5.101 2.109 6.078 0 11.121-4.863 11.121-11.109 0-6.293-5.043-11.579-11.238-11.579-4.926 0-11.59 3.481-11.59 13.02zm11.238-27c3.004 0 5.457 2.461 5.457 5.519 0 2.942-2.453 5.403-5.457 5.403-2.945 0-5.348-2.461-5.348-5.403 0-3.058 2.403-5.519 5.348-5.519zm31.895-13.922 2.523 5.519 12.188-5.039 12.187 5.039 2.524-5.519-14.711-6zm8.879 28.559c1.445 1.5 3.308 2.109 5.117 2.109 6.062 0 11.109-4.863 11.109-11.109 0-6.293-5.047-11.579-11.238-11.579-4.93 0-11.59 3.481-11.59 13.02l0.059 19.922h21.148v-5.883h-14.781v-6.293zm-0.657-9.118c0-3.058 2.407-5.519 5.352-5.519 3.004 0 5.465 2.461 5.465 5.519 0 2.942-2.461 5.403-5.465 5.403-2.945 0-5.352-2.461-5.352-5.403zm45.106-13.019c2.652 0 4.754-2.098 4.754-4.676 0-2.648-2.102-4.746-4.754-4.746-2.637 0-4.739 2.098-4.739 4.746 0 2.578 2.102 4.676 4.739 4.676zm-3.293 3.246h6.601v31.195h-6.601zm26.785-10.266 1.504 5.824 22.219-5.941-1.504-5.824zm9.363 10.266h6.617v31.195h-6.617zm29.977-10.207 2.523 5.519 12.188-5.039 12.191 5.039 2.52-5.519-14.711-6zm18.617 41.402v-31.195h-6.602v31.195zm31.172-37.441c2.64 0 4.75-2.098 4.75-4.676 0-2.648-2.11-4.746-4.75-4.746-2.641 0-4.738 2.098-4.738 4.746 0 2.578 2.097 4.676 4.738 4.676zm17.422 0c2.636 0 4.738-2.098 4.738-4.676 0-2.648-2.102-4.746-4.738-4.746-2.641 0-4.754 2.098-4.754 4.746 0 2.578 2.113 4.676 4.754 4.676zm-11.957 6.246h6.605v31.195h-6.605zm32.32-10.383 22.219 5.941 1.5-5.824-22.219-5.941zm7.988 10.383h6.606v31.195h-6.606zm54.055 31.793c11.766 0 21.199-9.422 21.199-21.598s-9.433-21.597-21.199-21.597c-11.777 0-21.199 9.421-21.199 21.597s9.422 21.598 21.199 21.598zm0-6.117c-7.508 0-14.477-5.883-14.477-15.481 0-9.597 6.969-15.48 14.477-15.48s14.477 5.883 14.477 15.48c0 9.598-6.969 15.481-14.477 15.481zm43.965-35.344 1.504 5.824 22.219-5.941-1.504-5.824zm12.129 41.461c9.011 0 16.285-7.137 16.285-16.5s-7.274-16.5-16.285-16.5c-9.008 0-16.27 7.137-16.27 16.5s7.262 16.5 16.27 16.5zm0-6.059c-5.278 0-9.91-4.019-9.91-10.441s4.632-10.442 9.91-10.442c5.293 0 9.914 4.02 9.914 10.442s-4.621 10.441-9.914 10.441zm63.363-29.883 2.535-5.519-14.722-6-14.711 6 2.523 5.519 12.188-5.039zm-12.187 2.942c-9.008 0-16.27 7.137-16.27 16.5s7.262 16.5 16.27 16.5c9.007 0 16.281-7.137 16.281-16.5s-7.274-16.5-16.281-16.5zm0 26.941c-5.278 0-9.915-4.019-9.915-10.441s4.637-10.442 9.915-10.442c5.289 0 9.914 4.02 9.914 10.442s-4.625 10.441-9.914 10.441zm-712.59 48c2.64 0 4.738-2.097 4.738-4.676 0-2.648-2.098-4.746-4.738-4.746-2.653 0-4.75 2.098-4.75 4.746 0 2.579 2.097 4.676 4.75 4.676zm17.421 0c2.637 0 4.739-2.097 4.739-4.676 0-2.648-2.102-4.746-4.739-4.746-2.652 0-4.753 2.098-4.753 4.746 0 2.579 2.101 4.676 4.753 4.676zm-8.718 38.043c9.011 0 16.285-7.136 16.285-16.5 0-9.363-7.274-16.504-16.285-16.504-9.008 0-16.27 7.141-16.27 16.504 0 9.364 7.262 16.5 16.27 16.5zm0-6.058c-5.278 0-9.91-4.02-9.91-10.442s4.632-10.441 9.91-10.441c5.293 0 9.914 4.019 9.914 10.441s-4.621 10.442-9.914 10.442zm40.371-35.524 22.219 5.942 1.5-5.825-22.219-5.941zm10.804 41.582c9.008 0 16.282-7.136 16.282-16.5 0-9.363-7.274-16.504-16.282-16.504-9.011 0-16.273 7.141-16.273 16.504 0 9.364 7.262 16.5 16.273 16.5zm0-6.058c-5.281 0-9.914-4.02-9.914-10.442s4.633-10.441 9.914-10.441c5.29 0 9.915 4.019 9.915 10.441s-4.625 10.442-9.915 10.442zm78.989-10.618c1.851 1.383 4.855 2.754 8.469 2.754 7.859 0 14.535-6.234 14.535-14.332 0-8.172-6.547-14.945-14.723-14.945-4.504 0-10.207 2.215-13.148 7.922-3.848-4.863-9.797-7.922-16.52-7.922-11.777 0-21.199 9.422-21.199 21.602 0 12.175 9.422 21.597 21.199 21.597 5.645 0 10.816-2.156 14.594-5.812v5.215h28.59v-6h-21.985v-9.903zm-21.387 10.559c-7.508 0-14.476-5.883-14.476-15.48 0-9.602 6.91-15.485 14.476-15.485 7.508 0 14.477 5.883 14.477 15.485 0 9.597-6.969 15.48-14.477 15.48zm29.316-30.719c4.68 0 8.458 3.832 8.458 8.582 0 4.618-3.778 8.461-8.458 8.461-4.632 0-8.41-3.843-8.41-8.461 0-4.75 3.778-8.582 8.41-8.582zm36.7-4.746 1.5 5.824 22.218-5.941-1.5-5.824zm28.164 23.582c0.117 12.903-6.18 18-15.496 18-9.313 0-15.614-5.097-15.496-18v-13.797h6.605v13.797c0 7.805 2.637 11.883 8.891 11.883 6.429 0 8.894-4.078 8.894-11.883v-13.797h6.602zm48.707-17.886 2.523-5.52-14.711-6-14.711 6 2.524 5.52 12.187-5.04zm3.308 4.089h-6.601v13.797c0 7.805-2.465 11.883-8.895 11.883-6.254 0-8.89-4.078-8.89-11.883v-13.797h-6.606v13.797c-0.117 12.903 6.184 18 15.496 18 9.317 0 15.614-5.097 15.496-18zm27.743-6.246c2.652 0 4.75-2.097 4.75-4.676 0-2.648-2.098-4.746-4.75-4.746-2.641 0-4.739 2.098-4.739 4.746 0 2.579 2.098 4.676 4.739 4.676zm17.421 0c2.653 0 4.75-2.097 4.75-4.676 0-2.648-2.097-4.746-4.75-4.746-2.64 0-4.738 2.098-4.738 4.746 0 2.579 2.098 4.676 4.738 4.676zm6.852 20.043c0.117 12.903-6.184 18-15.5 18-9.313 0-15.613-5.097-15.496-18v-13.797h6.605v13.797c0 7.805 2.641 11.883 8.891 11.883 6.43 0 8.895-4.078 8.895-11.883v-13.797h6.605zm24.258-24.179 22.23 5.941 1.504-5.824-22.23-5.942zm27.758 24.179c0.117 12.903-6.184 18-15.5 18-9.313 0-15.614-5.097-15.496-18v-13.797h6.605v13.797c0 7.805 2.641 11.883 8.891 11.883 6.429 0 8.894-4.078 8.894-11.883v-13.797h6.606zm25.16-20.043c2.652 0 4.754-2.097 4.754-4.676 0-2.648-2.102-4.746-4.754-4.746-2.637 0-4.739 2.098-4.739 4.746 0 2.579 2.102 4.676 4.739 4.676zm17.422 0c2.64 0 4.75-2.097 4.75-4.676 0-2.648-2.11-4.746-4.75-4.746-2.641 0-4.739 2.098-4.739 4.746 0 2.579 2.098 4.676 4.739 4.676zm3.121 37.446h-22.875v-5.637h16.808v-7.207h-0.293c-0.48 0.902-3.367 2.519-5.769 2.519-6.067 0-10.992-4.91-10.992-11.039v-9.836h6.062v10.024c0 3 2.348 5.273 5.41 5.273 2.887 0 5.16-2.273 5.16-5.215v-10.082h6.489zm44.695-5.286c-5.711 0-10.57-3.117-13.101-7.851h14.781v-4.805h-16.461c-0.176-0.961-0.235-1.98-0.235-3 0-0.422 0-0.773 0.059-1.195h19.637v-5.402h-18.383c2.348-5.407 7.566-9.063 13.703-9.063 5.102 0 9.902 2.754 12.668 6.961l5.223-2.941c-3.543-6-10.325-10.02-17.891-10.02-9.68 0-17.902 6.363-20.73 15.063h-4.024v5.402h3.063c-0.059 0.422-0.059 0.773-0.059 1.195 0 1.02 0.059 2.039 0.188 3h-3.192v4.805h4.449c3.176 8.098 11.051 13.851 20.305 13.851 7.566 0 14.348-4.019 17.891-10.019l-5.223-2.93c-2.766 4.196-7.566 6.949-12.668 6.949zm40.598-36.718v21.425h-6.485v6h6.485v3.598h-6.485v4.805h6.485v6.176h6.605v-6.176h6.735v-4.805h-6.735v-3.598h8.832c7.567 0 13.692-6.187 13.692-13.746 0-7.621-6.184-13.679-13.692-13.679zm6.605 21.425v-15.425h8.469c4.141 0 7.449 3.539 7.449 7.738 0 4.148-3.367 7.687-7.449 7.687zm80.426-11.828h-15.016v-3.597h15.016v-6h-36.578v6h15.133v3.597h-15.133v6.004h15.133v26.403h6.429v-26.403h15.016zm0 9.602h-6.125v22.805h6.125zm-3.063 26.648c-1.98 0-3.66 1.618-3.66 3.657 0 1.98 1.68 3.597 3.66 3.597 2.043 0 3.661-1.617 3.661-3.597 0-2.039-1.618-3.657-3.661-3.657z" clip-path="url(#clipPath11)"/>
  <path id="path12" transform="matrix(1.3333 0 0 1.3333 1294.7 0)" d="m719.34 527.75c0-0.773-0.059-1.558-0.235-2.273h10.383v-6h-12.672c-1.265-2.52-2.461-4.864-2.461-7.078 0-3.188 2.52-5.649 6.661-5.649 4.988 0 6.968 3.422 7.871 6.129l5.293-2.824c-1.149-3.305-4.809-9.363-13.457-9.363-6.852 0-12.493 4.207-12.493 10.98 0 3 1.02 5.461 2.157 7.805h-3.117v6h5.945c0.363 1.078 0.539 2.156 0.539 3.293 0 4.863-3.731 10.5-7.145 13.629v1.136h26.008v-6.656h-16.398c0.961-1.805 3.121-5.109 3.121-9.129zm62.281 5.824c0-5.824-3.836-8.754-7.918-11.097v-25.618h-6.254v5.872c-4.621 0.668-9.433 4.207-9.433 11.168 0 6.175 4.812 9 9.433 11.578v14.215c-3.777-0.774-5.761-4.02-6.301-5.942l-5.289 2.942s3.121 7.863 11.59 8.765v5.039h6.254v-5.695c4.563-1.57 7.918-5.402 7.918-11.227zm-17.656-20.578c0-1.746 1.324-3.961 3.484-4.617v10.371c-2.043-1.5-3.484-3.234-3.484-5.754zm9.738 16.617c1.195 1.266 1.981 2.766 1.981 4.618 0 1.628-0.727 3.128-1.981 4.148zm63.477-22.195-1.973-5.883-12.855 4.324-12.86-4.324-1.98 5.883 11.238 3.481v9.058h-8.117v5.402h8.117v3.598h-8.117v4.793h8.117v9.785h7.203v-9.785h8.106v-4.793h-8.106v-3.598h8.106v-5.402h-8.106v-9.058zm-724.53 77.754v7.922h-0.246c-1.023-1.617-3.718-3.235-7.027-3.235-6.547 0-11.84 5.215-11.84 11.813 0 6.48 5.235 11.824 11.477 11.824 3.672 0 6.613-2.578 7.332-3.785h0.304v3.305h6.485v-33.715h-22.231v5.871zm-23.312-3.656v36.176h23.91v5.824h-30.336v-42zm16.402 26.097c-3.426 0-6.125-2.636-6.125-6.058 0-3.481 2.582-6.117 6.125-6.117s6.121 2.636 6.121 6c0 3.539-2.578 6.175-6.121 6.175zm45.942 5.227h21.14v-5.883h-14.769v-7.5l0.176-0.176c1.441 1.5 3.308 2.098 5.101 2.098 6.078 0 11.121-4.863 11.121-11.098 0-6.304-5.043-11.589-11.238-11.589-4.926 0-11.59 3.48-11.59 13.019zm-6.008-31.383v36.176h23.851v5.883h-30.335v-42.059zm17.246 3.176c3.004 0 5.465 2.461 5.465 5.519 0 2.942-2.461 5.403-5.465 5.403-2.945 0-5.352-2.461-5.352-5.403 0-3.058 2.407-5.519 5.352-5.519zm69.062 14.766h-11.168c-1.804-7.442-5.406-13.079-11.765-18.668l-4.574 4.089c8.41 7.43 11.601 15.774 11.179 29.098h6.547c0-3.059-0.117-5.941-0.422-8.519h10.203v18.117h6.618v-42h-6.618zm-37.117-17.942v42.059h30.938v-6h-24.332v-36.059zm86.071 0.656v24.668h16.339v6h-23.543v-30.668zm-12.907 4.207v31.196h21.434v6h-28.649v-37.196zm84.926 15.715c-6.183 0-11.109-4.804-11.109-11.097 0-6.364 4.926-11.227 11.109-11.227 6.184 0 11.109 4.863 11.109 11.227 0 6.293-4.925 11.097-11.109 11.097zm-16.34-19.922v24.668h16.34v6h-23.543v-30.668zm16.34 3.118c-2.699 0-5.219 2.285-5.219 5.648 0 3.422 2.52 5.578 5.219 5.578s5.219-2.156 5.219-5.578c0-3.363-2.52-5.648-5.219-5.648zm-29.246 1.089v31.196h21.434v6h-28.649v-37.196zm86.727 27.774c9.07 0 16.332-7.137 16.332-16.559 0-9.363-7.262-16.617-16.332-16.617-8.95 0-16.223 7.254-16.223 16.617 0 9.422 7.273 16.559 16.223 16.559zm-20.422-32.637v36.059h21.328v6h-27.934v-42.059zm20.422 26.824c-4.985 0-9.735-4.265-9.735-10.746 0-6.48 4.75-10.863 9.735-10.863 5.046 0 9.785 4.383 9.785 10.863 0 6.481-4.739 10.746-9.785 10.746zm85.406-8.882h-14.113c-0.293-6.422-1.864-12.786-4.797-18.961l-6.489 2.461c4.86 10.558 6.067 21.058 2.758 32.039l-18.312-33.422h-9.676v42h6.601v-32.403l-0.175-1.254 0.117-0.058 18.5 33.715 6.312 0.058c2.887-6 4.563-12.117 5.043-18.175h14.231v18.117h6.617v-42h-6.617zm83.969 0h-11.168c-1.805-7.442-5.407-13.079-11.766-18.668l-4.574 4.089c8.41 7.43 11.601 15.774 11.179 29.098h6.547c0-3.059-0.117-5.941-0.425-8.519h10.207v18.117h6.617v-42h-6.617zm-55.137-17.883v42h6.605v-32.403l-0.175-1.254 0.117-0.058 18.5 33.715 20.601 0.058v-6.058h-16.215l-19.753-36zm35.676 25.676c0-2.274-1.797-4.079-4.082-4.079-2.278 0-4.082 1.805-4.082 4.079 0 2.226 1.804 4.019 4.082 4.019 2.285 0 4.082-1.793 4.082-4.019z" clip-path="url(#clipPath13)"/>
  <path id="path15" transform="matrix(1.3333 0 0 1.3333 1294.7 0)" d="m32.176 21.742-10.414-10.402-10.41 10.402 1.484 1.485 8.926-8.915 7.441 7.43-7.441 7.43-1.485-1.484 5.95-5.946-1.489-1.484-5.949 5.941-1.488-1.484 5.949-5.945-1.488-1.485-7.438 7.43 7.438 7.43z"/>
 </g>
</svg>
