<!-- Created with Inkscape (http://www.inkscape.org/) -->
<svg id="svg1" width="1274.7" height="904" sodipodi:docname="pdb_presentation_biarnesa_mde.pdf" version="1.1" viewBox="0 0 1274.7 904" xmlns="http://www.w3.org/2000/svg" xmlns:inkscape="http://www.inkscape.org/namespaces/inkscape" xmlns:sodipodi="http://sodipodi.sourceforge.net/DTD/sodipodi-0.dtd" xmlns:xlink="http://www.w3.org/1999/xlink">
 <defs id="defs1">
  <clipPath id="clipPath37">
   <path id="path37" d="m50.934 67.18h842.78v571.99h-842.78z"/>
  </clipPath>
  <clipPath id="clipPath39">
   <path id="path39" d="m50.934 67.18h842.78v571.99h-842.78z"/>
  </clipPath>
  <clipPath id="clipPath41">
   <path id="path41" d="m50.934 67.18h842.78v571.99h-842.78z"/>
  </clipPath>
 </defs>
 <sodipodi:namedview id="namedview1" bordercolor="#666666" borderopacity="1.0" inkscape:deskcolor="#d1d1d1" inkscape:pagecheckerboard="0" inkscape:pageopacity="0.0" inkscape:showpageshadow="2" pagecolor="#ffffff">
  <inkscape:page id="page30" x="0" y="0" width="1274.6667" height="904" bleed="0" inkscape:label="40" margin="0"/>
 </sodipodi:namedview>
 <g id="g30" transform="translate(-3884)" inkscape:groupmode="layer" inkscape:label="40">
  <path id="path201-6" d="m3882.7-0.66667h1276v905.33h-1276z" fill="#ffd500"/>
  <path id="path31" transform="matrix(1.3333 0 0 1.3333 3884 0)" d="m32.176 21.742-10.414-10.402-10.41 10.402 1.488 1.485 8.922-8.915 7.441 7.43-7.441 7.43-1.485-1.484 5.95-5.946-1.489-1.484-5.949 5.941-1.488-1.484 5.949-5.945-1.488-1.485-7.438 7.43 7.438 7.43z" fill="#323232"/>
  <path id="path36" transform="matrix(1.3333 0 0 1.3333 3884 0)" d="m159.3 100.33h-26.914v4.793h10.816v28.805h5.293v-28.805h10.805zm2.742 33.598h23.062v-4.805h-17.773v-7.91l0.141-0.152c1.488 1.101 3.894 2.214 6.769 2.214 6.301 0 11.637-4.992 11.637-11.472 0-6.528-5.242-11.953-11.777-11.953-5.141 0-12.2 3.597-12.153 13.629zm11.871-29.133c3.789 0 6.922 3.117 6.922 7.008 0 3.785-3.133 6.914-6.922 6.914-3.801 0-6.875-3.129-6.875-6.914 0-3.891 3.074-7.008 6.875-7.008zm38.297 19.488 0.328 1.817-0.094 0.047-15.804-25.817h-6.438v33.598h5.277v-24.528l-0.281-1.3 0.141-0.047 15.707 25.875h6.441v-33.598h-5.277zm9.605-7.113c0 9.562 7.778 17.332 17.399 17.332 6.055 0 11.484-3.211 14.312-8.016l-4.175-2.355c-2.219 3.269-6.055 5.473-10.137 5.473-6.735 0-12.012-5.321-12.012-12.434 0-7.102 5.277-12.422 12.012-12.422 4.082 0 7.918 2.203 10.137 5.473l4.175-2.356c-2.828-4.804-8.257-8.015-14.312-8.015-9.621 0-17.399 7.769-17.399 17.32zm35.801-16.84h5.281v14.297h15.52v-14.297h5.289v33.598h-5.289v-14.496h-15.52v14.496h-5.281zm49.442 4.793v8.356h-0.247c-1.242-1.149-3.742-2.59-7.015-2.59-6.488 0-11.766 5.226-11.766 11.754 0 6.48 5.231 11.765 11.766 11.765 3.754 0 6.301-2.062 6.969-3.117h0.293v2.637h5.277v-33.598h-22.242v4.793zm-7.063 24.387c-3.894 0-6.969-3.117-6.969-7.008s3.028-7.008 6.969-7.008c3.836 0 6.922 3.117 6.922 6.961 0 3.938-3.086 7.055-6.922 7.055zm43.008-29.66c-5.149 0-9.324 1.535-12.399 3.785v30.293h19.649c7.836-4.324 9.902-10.324 9.902-16.418 0-9.938-6.441-17.66-17.152-17.66zm-7.117 29.273v-22.605c1.828-1.196 4.234-1.875 7.117-1.875 7.062 0 11.769 5.144 11.769 12.867 0 5.238-1.785 8.883-6.054 11.613zm29.359 4.805h23.066v-4.805h-17.773v-7.91l0.141-0.152c1.488 1.101 3.894 2.214 6.769 2.214 6.297 0 11.637-4.992 11.637-11.472 0-6.528-5.246-11.953-11.777-11.953-5.141 0-12.204 3.597-12.157 13.629zm11.875-29.133c3.789 0 6.922 3.117 6.922 7.008 0 3.785-3.133 6.914-6.922 6.914-3.801 0-6.875-3.129-6.875-6.914 0-3.891 3.074-7.008 6.875-7.008zm26.469 0.187c-0.281-0.093-0.961-0.187-1.395-0.187-2.593 0-4.129 1.863-4.129 3.691 0 1.629 0.821 2.684 2.063 3.457l6.969 4.371c3.168 1.969 4.906 4.372 4.906 7.922 0 6.235-5.481 10.172-10.524 10.172-5.386 0-8.847-3.363-10.242-7.195l4.141-2.449c1.055 2.015 2.453 4.699 6.101 4.699 2.981 0 5.137-1.875 5.137-4.465 0-1.969-0.762-3.363-2.359-4.312l-7.344-4.372c-2.355-1.394-3.941-3.843-3.941-7.3 0-6.188 5.48-9.164 9.375-9.164 0.902 0 1.863 0.14 2.347 0.281zm22.922 0c-0.282-0.093-0.965-0.187-1.399-0.187-2.59 0-4.129 1.863-4.129 3.691 0 1.629 0.821 2.684 2.067 3.457l6.969 4.371c3.168 1.969 4.902 4.372 4.902 7.922 0 6.235-5.477 10.172-10.524 10.172-5.382 0-8.843-3.363-10.242-7.195l4.141-2.449c1.058 2.015 2.453 4.699 6.101 4.699 2.981 0 5.141-1.875 5.141-4.465 0-1.969-0.766-3.363-2.359-4.312l-7.344-4.372c-2.359-1.394-3.941-3.843-3.941-7.3 0-6.188 5.476-9.164 9.371-9.164 0.906 0 1.867 0.14 2.347 0.281zm12.347 28.946h23.067v-4.805h-17.774v-7.91l0.141-0.152c1.488 1.101 3.895 2.214 6.769 2.214 6.297 0 11.637-4.992 11.637-11.472 0-6.528-5.246-11.953-11.777-11.953-5.141 0-12.203 3.597-12.156 13.629zm11.875-29.133c3.789 0 6.918 3.117 6.918 7.008 0 3.785-3.129 6.914-6.918 6.914-3.804 0-6.875-3.129-6.875-6.914 0-3.891 3.071-7.008 6.875-7.008zm38.293 19.488 0.328 1.817-0.093 0.047-15.801-25.817h-6.441v33.598h5.281v-24.528l-0.281-1.3 0.14-0.047 15.707 25.875h6.442v-33.598h-5.282zm11.055-23.953h5.277v14.297h15.524v-14.297h5.289v33.598h-5.289v-14.496h-15.524v14.496h-5.277zm49.441 4.793v8.356h-0.246c-1.242-1.149-3.742-2.59-7.015-2.59-6.489 0-11.766 5.226-11.766 11.754 0 6.48 5.231 11.765 11.766 11.765 3.754 0 6.3-2.062 6.968-3.117h0.293v2.637h5.278v-33.598h-22.242v4.793zm-7.062 24.387c-3.895 0-6.969-3.117-6.969-7.008s3.028-7.008 6.969-7.008c3.836 0 6.922 3.117 6.922 6.961 0 3.938-3.086 7.055-6.922 7.055zm46.035-29.66c2.442 15.211-5.055 27.504-14.371 34.078h-4.187l-10.899-32.59 5.434-1.395 9.265 27.985c5.574-4.031 11.532-14.496 9.61-27.024zm22.051 5.273v8.356h-0.246c-1.242-1.149-3.742-2.59-7.016-2.59-6.484 0-11.765 5.226-11.765 11.754 0 6.48 5.234 11.765 11.765 11.765 3.754 0 6.301-2.062 6.969-3.117h0.293v2.637h5.281v-33.598h-22.242v4.793zm-7.063 24.387c-3.894 0-6.964-3.117-6.964-7.008s3.023-7.008 6.964-7.008c3.84 0 6.922 3.117 6.922 6.961 0 3.938-3.082 7.055-6.922 7.055zm40.125-5.227 0.329 1.817-0.094 0.047-15.801-25.817h-6.441v33.598h5.281v-24.528l-0.285-1.3 0.144-0.047 15.707 25.875h6.438v-33.598h-5.278zm22.102-7.113c0 9.562 7.777 17.332 17.398 17.332 6.051 0 11.485-3.211 14.313-8.016l-4.18-2.355c-2.215 3.269-6.051 5.473-10.133 5.473-6.734 0-12.015-5.321-12.015-12.434 0-7.102 5.281-12.422 12.015-12.422 4.082 0 7.918 2.203 10.133 5.473l4.18-2.356c-2.828-4.804-8.262-8.015-14.313-8.015-9.621 0-17.398 7.769-17.398 17.32zm53.383-12.047v8.356h-0.246c-1.243-1.149-3.743-2.59-7.016-2.59-6.488 0-11.766 5.226-11.766 11.754 0 6.48 5.231 11.765 11.766 11.765 3.754 0 6.301-2.062 6.969-3.117h0.293v2.637h5.277v-33.598h-22.242v4.793zm-7.063 24.387c-3.894 0-6.969-3.117-6.969-7.008s3.028-7.008 6.969-7.008c3.836 0 6.922 3.117 6.922 6.961 0 3.938-3.086 7.055-6.922 7.055zm34.926-8.156 10.523-21.024h6.008v33.598h-5.281v-25.348h-0.199l-9.125 19.395h-4.129l-9.129-19.395h-0.199v25.348h-5.278v-33.598h5.957l10.665 21.024zm25.953-14.977c2.113 0 3.801-1.676 3.801-3.75 0-2.109-1.688-3.785-3.801-3.785s-3.801 1.676-3.801 3.785c0 2.074 1.688 3.75 3.801 3.75zm-2.64 2.59h5.281v24.961h-5.281zm34.066 15.316 0.332 1.817-0.094 0.047-15.804-25.817h-6.438v33.598h5.277v-24.528l-0.281-1.3 0.141-0.047 15.707 25.875h6.441v-33.598h-5.281zm-592.37 30.715c-0.281-0.094-0.961-0.187-1.395-0.187-2.593 0-4.129 1.863-4.129 3.691 0 1.629 0.821 2.684 2.063 3.457l6.969 4.371c3.168 1.969 4.906 4.371 4.906 7.922 0 6.234-5.481 10.172-10.524 10.172-5.386 0-8.847-3.363-10.242-7.195l4.141-2.45c1.055 2.016 2.453 4.7 6.101 4.7 2.981 0 5.137-1.875 5.137-4.465 0-1.969-0.762-3.364-2.359-4.313l-7.34-4.371c-2.359-1.394-3.945-3.844-3.945-7.301 0-6.187 5.48-9.164 9.375-9.164 0.902 0 1.863 0.141 2.347 0.282zm12.351 28.945h23.063v-4.804h-17.774v-7.91l0.141-0.153c1.492 1.102 3.895 2.215 6.77 2.215 6.3 0 11.636-4.992 11.636-11.473 0-6.527-5.242-11.953-11.777-11.953-5.137 0-12.199 3.598-12.152 13.629zm11.872-29.132c3.789 0 6.921 3.117 6.921 7.007 0 3.786-3.132 6.914-6.921 6.914-3.801 0-6.876-3.128-6.876-6.914 0-3.89 3.075-7.007 6.876-7.007zm40.55-4.465h-26.914v4.793h10.817v28.804h5.293v-28.804h10.804zm20.711 4.793v8.355h-0.246c-1.242-1.148-3.742-2.59-7.015-2.59-6.485 0-11.766 5.227-11.766 11.754 0 6.481 5.234 11.766 11.766 11.766 3.753 0 6.3-2.063 6.968-3.117h0.293v2.636h5.281v-33.597h-22.242v4.793zm-7.062 24.386c-3.895 0-6.965-3.117-6.965-7.007 0-3.891 3.023-7.008 6.965-7.008 3.84 0 6.922 3.117 6.922 6.961 0 3.937-3.082 7.054-6.922 7.054zm42.332-19.242c0-5.519-4.473-9.937-9.949-9.937h-14.418v33.597h5.293v-13.629h6.343l7.977 14.063 4.367-2.543-6.91-11.906c4.223-1.149 7.297-5.039 7.297-9.645zm-10.324-5.144c2.828 0 5.043 2.355 5.043 5.191 0 2.824-2.262 5.18-5.043 5.18h-8.75v-10.371zm32.66 17.144v11.66h-5.278v-33.597h12.34c6.113 0 10.957 4.851 10.957 10.945 0 6.047-4.89 10.992-10.957 10.992zm6.687-4.804c3.262 0 5.961-2.836 5.961-6.141 0-3.363-2.652-6.199-5.961-6.199h-6.687v12.34zm32.528-12.34v8.355h-0.247c-1.242-1.148-3.742-2.59-7.015-2.59-6.485 0-11.766 5.227-11.766 11.754 0 6.481 5.235 11.766 11.766 11.766 3.754 0 6.301-2.063 6.969-3.117h0.293v2.636h5.281v-33.597h-22.242v4.793zm-7.063 24.386c-3.895 0-6.969-3.117-6.969-7.007 0-3.891 3.028-7.008 6.969-7.008 3.836 0 6.922 3.117 6.922 6.961 0 3.937-3.086 7.054-6.922 7.054zm28.301-24.527c-0.281-0.094-0.965-0.187-1.399-0.187-2.589 0-4.129 1.863-4.129 3.691 0 1.629 0.821 2.684 2.067 3.457l6.969 4.371c3.168 1.969 4.902 4.371 4.902 7.922 0 6.234-5.477 10.172-10.523 10.172-5.383 0-8.844-3.363-10.243-7.195l4.145-2.45c1.055 2.016 2.449 4.7 6.098 4.7 2.98 0 5.14-1.875 5.14-4.465 0-1.969-0.765-3.364-2.359-4.313l-7.344-4.371c-2.359-1.394-3.941-3.844-3.941-7.301 0-6.187 5.476-9.164 9.371-9.164 0.906 0 1.867 0.141 2.347 0.282zm29.547 16.371 10.523-21.023h6.004v33.597h-5.277v-25.347h-0.2l-9.128 19.394h-4.129l-9.125-19.394h-0.2v25.347h-5.281v-33.597h5.961l10.664 21.023zm21.918 12.574h23.062v-4.804h-17.773v-7.91l0.14-0.153c1.493 1.102 3.895 2.215 6.77 2.215 6.301 0 11.637-4.992 11.637-11.473 0-6.527-5.243-11.953-11.778-11.953-5.136 0-12.199 3.598-12.152 13.629zm11.871-29.132c3.789 0 6.922 3.117 6.922 7.007 0 3.786-3.133 6.914-6.922 6.914-3.801 0-6.875-3.128-6.875-6.914 0-3.89 3.074-7.007 6.875-7.007zm38.297 19.488 0.328 1.816-0.094 0.047-15.805-25.816h-6.437v33.597h5.277v-24.527l-0.281-1.301 0.141-0.047 15.707 25.875h6.441v-33.597h-5.277zm21.23-19.301c-0.281-0.094-0.961-0.187-1.394-0.187-2.594 0-4.129 1.863-4.129 3.691 0 1.629 0.82 2.684 2.062 3.457l6.969 4.371c3.168 1.969 4.906 4.371 4.906 7.922 0 6.234-5.48 10.172-10.523 10.172-5.387 0-8.848-3.363-10.242-7.195l4.14-2.45c1.055 2.016 2.453 4.7 6.102 4.7 2.98 0 5.136-1.875 5.136-4.465 0-1.969-0.761-3.364-2.355-4.313l-7.344-4.371c-2.359-1.394-3.941-3.844-3.941-7.301 0-6.187 5.476-9.164 9.371-9.164 0.902 0 1.867 0.141 2.348 0.282zm42.817 0.141v8.355h-0.247c-1.242-1.148-3.742-2.59-7.015-2.59-6.485 0-11.766 5.227-11.766 11.754 0 6.481 5.231 11.766 11.766 11.766 3.754 0 6.301-2.063 6.969-3.117h0.293v2.636h5.281v-33.597h-22.242v4.793zm-7.063 24.386c-3.895 0-6.969-3.117-6.969-7.007 0-3.891 3.028-7.008 6.969-7.008 3.836 0 6.922 3.117 6.922 6.961 0 3.937-3.086 7.054-6.922 7.054zm42.328-19.242c0-5.519-4.469-9.937-9.945-9.937h-14.418v33.597h5.289v-13.629h6.348l7.976 14.063 4.363-2.543-6.906-11.906c4.223-1.149 7.293-5.039 7.293-9.645zm-10.32-5.144c2.824 0 5.043 2.355 5.043 5.191 0 2.824-2.266 5.18-5.043 5.18h-8.754v-10.371zm39.105 5.144c0-5.519-4.468-9.937-9.949-9.937h-14.418v33.597h5.293v-13.629h6.344l7.976 14.063 4.368-2.543-6.911-11.906c4.223-1.149 7.297-5.039 7.297-9.645zm-10.324-5.144c2.828 0 5.043 2.355 5.043 5.191 0 2.824-2.262 5.18-5.043 5.18h-8.75v-10.371zm18.539 1.254c2.113 0 3.801-1.676 3.801-3.75 0-2.11-1.688-3.786-3.801-3.786-2.109 0-3.801 1.676-3.801 3.786 0 2.074 1.692 3.75 3.801 3.75zm-2.637 2.589h5.278v24.961h-5.278zm29.399 6.668c2.98-1.054 4.859-3.351 4.859-6.855 0-5.379-4.082-8.449-10.043-8.449h-12.152v33.597h13.891c5.945 0 10.46-4.125 10.46-10.031 0-4.078-2.542-7.055-7.015-8.262zm-5.477-10.511c2.559 0 5.055 1.066 5.102 4.23-0.047 3.164-2.543 4.465-5.102 4.465h-6.582v-8.695zm-6.582 24v-10.512h8.614c2.824 0 5.324 1.828 5.324 5.285 0 3.211-2.5 5.227-5.324 5.227zm42.047-24v8.355h-0.246c-1.242-1.148-3.742-2.59-7.016-2.59-6.484 0-11.765 5.227-11.765 11.754 0 6.481 5.234 11.766 11.765 11.766 3.754 0 6.301-2.063 6.969-3.117h0.293v2.636h5.281v-33.597h-22.242v4.793zm-7.062 24.386c-3.895 0-6.969-3.117-6.969-7.007 0-3.891 3.027-7.008 6.969-7.008 3.836 0 6.921 3.117 6.921 6.961 0 3.937-3.085 7.054-6.921 7.054zm42.379-29.179h-26.915v4.793h10.817v28.804h5.293v-28.804h10.805zm-653 66.855c0 9.567 7.777 17.336 17.394 17.336 6.055 0 11.485-3.211 14.313-8.015l-4.176-2.356c-2.219 3.27-6.055 5.473-10.137 5.473-6.734 0-12.012-5.321-12.012-12.438 0-7.101 5.278-12.422 12.012-12.422 4.082 0 7.918 2.203 10.137 5.473l4.176-2.355c-2.828-4.805-8.258-8.016-14.313-8.016-9.617 0-17.394 7.769-17.394 17.32zm53.382-12.047v8.356h-0.246c-1.242-1.149-3.742-2.59-7.015-2.59-6.485 0-11.766 5.227-11.766 11.758 0 6.48 5.234 11.765 11.766 11.765 3.754 0 6.301-2.062 6.968-3.117h0.293v2.637h5.282v-33.602h-22.242v4.793zm-7.062 24.391c-3.895 0-6.969-3.117-6.969-7.008 0-3.894 3.028-7.012 6.969-7.012 3.836 0 6.922 3.118 6.922 6.965 0 3.938-3.086 7.055-6.922 7.055zm30.516-29.664c-5.153 0-9.329 1.535-12.403 3.785v30.297h19.653c7.836-4.324 9.898-10.324 9.898-16.422 0-9.937-6.441-17.66-17.148-17.66zm-7.122 29.277v-22.609c1.829-1.195 4.235-1.875 7.122-1.875 7.058 0 11.765 5.144 11.765 12.867 0 5.242-1.785 8.887-6.055 11.617zm33.399-22.75c2.109 0 3.801-1.676 3.801-3.75 0-2.109-1.692-3.785-3.801-3.785-2.113 0-3.801 1.676-3.801 3.785 0 2.074 1.688 3.75 3.801 3.75zm-2.641 2.59h5.278v24.965h-5.278zm11.676 24.965h23.063v-4.805h-17.774v-7.91l0.141-0.152c1.492 1.101 3.894 2.215 6.769 2.215 6.301 0 11.637-4.997 11.637-11.477 0-6.527-5.242-11.953-11.777-11.953-5.137 0-12.2 3.598-12.153 13.629zm11.871-29.137c3.789 0 6.922 3.117 6.922 7.008 0 3.785-3.133 6.914-6.922 6.914-3.801 0-6.875-3.129-6.875-6.914 0-3.891 3.074-7.008 6.875-7.008zm40.5 5.473c0-5.52-4.469-9.938-9.945-9.938h-14.418v33.602h5.289v-13.633h6.348l7.976 14.067 4.363-2.543-6.906-11.911c4.223-1.148 7.293-5.039 7.293-9.644zm-10.32-5.145c2.824 0 5.043 2.356 5.043 5.192 0 2.824-2.266 5.179-5.043 5.179h-8.754v-10.371zm32.476 0v8.356h-0.246c-1.242-1.149-3.742-2.59-7.015-2.59-6.489 0-11.766 5.227-11.766 11.758 0 6.48 5.231 11.765 11.766 11.765 3.754 0 6.3-2.062 6.968-3.117h0.293v2.637h5.278v-33.602h-22.242v4.793zm-7.062 24.391c-3.895 0-6.969-3.117-6.969-7.008 0-3.894 3.028-7.012 6.969-7.012 3.836 0 6.922 3.118 6.922 6.965 0 3.938-3.086 7.055-6.922 7.055zm30.219 4.418h23.062v-4.805h-17.769v-7.91l0.14-0.152c1.489 1.101 3.895 2.215 6.766 2.215 6.301 0 11.641-4.997 11.641-11.477 0-6.527-5.247-11.953-11.782-11.953-5.136 0-12.199 3.598-12.152 13.629zm11.871-29.137c3.789 0 6.922 3.117 6.922 7.008 0 3.785-3.133 6.914-6.922 6.914-3.801 0-6.871-3.129-6.871-6.914 0-3.891 3.07-7.008 6.871-7.008zm21.57-4.512v28.844h15.145v4.805h-20.426v-33.649zm18.504 0.047h5.281v14.297h15.52v-14.297h5.289v33.602h-5.289v-14.5h-15.52v14.5h-5.281zm49.445 4.793v8.356h-0.246c-1.246-1.149-3.742-2.59-7.015-2.59-6.489 0-11.766 5.227-11.766 11.758 0 6.48 5.23 11.765 11.766 11.765 3.753 0 6.3-2.062 6.968-3.117h0.293v2.637h5.278v-33.602h-22.243v4.793zm-7.062 24.391c-3.895 0-6.969-3.117-6.969-7.008 0-3.894 3.027-7.012 6.969-7.012 3.836 0 6.922 3.118 6.922 6.965 0 3.938-3.086 7.055-6.922 7.055zm54.867-29.184h-26.91v4.793h10.816v28.809h5.293v-28.809h10.801zm20.715 4.793v8.356h-0.246c-1.242-1.149-3.742-2.59-7.016-2.59-6.484 0-11.766 5.227-11.766 11.758 0 6.48 5.235 11.765 11.766 11.765 3.754 0 6.301-2.062 6.969-3.117h0.293v2.637h5.281v-33.602h-22.242v4.793zm-7.063 24.391c-3.894 0-6.965-3.117-6.965-7.008 0-3.894 3.024-7.012 6.965-7.012 3.836 0 6.922 3.118 6.922 6.965 0 3.938-3.086 7.055-6.922 7.055zm42.426-9.508c0.152 10.469-5.433 14.406-12.391 14.406-6.968 0-12.539-3.937-12.398-14.406v-19.676h5.277v19.676c-0.093 6.25 2.606 9.508 7.121 9.508 4.661 0 7.204-3.258 7.11-9.508v-19.676h5.281zm10.567-19.723v28.844h15.148v4.805h-20.426v-33.649zm36.093 4.84v8.356h-0.246c-1.246-1.149-3.742-2.59-7.015-2.59-6.489 0-11.766 5.227-11.766 11.758 0 6.48 5.23 11.765 11.766 11.765 3.753 0 6.296-2.062 6.968-3.117h0.293v2.637h5.278v-33.602h-22.243v4.793zm-7.062 24.391c-3.895 0-6.969-3.117-6.969-7.008 0-3.894 3.027-7.012 6.969-7.012 3.836 0 6.922 3.118 6.922 6.965 0 3.938-3.086 7.055-6.922 7.055zm35.886-7.242v11.66h-5.277v-33.602h12.34c6.113 0 10.957 4.852 10.957 10.946 0 6.047-4.891 10.996-10.957 10.996zm6.688-4.809c3.262 0 5.961-2.836 5.961-6.14 0-3.364-2.652-6.2-5.961-6.2h-6.688v12.34zm32.527-12.34v8.356h-0.246c-1.242-1.149-3.742-2.59-7.015-2.59-6.489 0-11.766 5.227-11.766 11.758 0 6.48 5.23 11.765 11.766 11.765 3.753 0 6.3-2.062 6.968-3.117h0.293v2.637h5.278v-33.602h-22.243v4.793zm-7.062 24.391c-3.895 0-6.969-3.117-6.969-7.008 0-3.894 3.027-7.012 6.969-7.012 3.836 0 6.922 3.118 6.922 6.965 0 3.938-3.086 7.055-6.922 7.055zm28.301-24.531c-0.286-0.094-0.965-0.188-1.399-0.188-2.594 0-4.129 1.864-4.129 3.692 0 1.629 0.821 2.683 2.067 3.457l6.964 4.371c3.168 1.968 4.907 4.371 4.907 7.926 0 6.234-5.481 10.171-10.524 10.171-5.383 0-8.843-3.363-10.242-7.195l4.141-2.449c1.058 2.015 2.453 4.699 6.101 4.699 2.981 0 5.137-1.875 5.137-4.465 0-1.969-0.762-3.363-2.355-4.316l-7.344-4.371c-2.36-1.395-3.942-3.844-3.942-7.301 0-6.188 5.477-9.164 9.371-9.164 0.903 0 1.868 0.141 2.348 0.281zm33.14-4.653h-26.91v4.793h10.816v28.809h5.29v-28.809h10.804zm27.344 9.938c0-5.52-4.469-9.938-9.949-9.938h-14.418v33.602h5.293v-13.633h6.343l7.981 14.067 4.363-2.543-6.91-11.911c4.223-1.148 7.297-5.039 7.297-9.644zm-10.324-5.145c2.828 0 5.043 2.356 5.043 5.192 0 2.824-2.262 5.179-5.043 5.179h-8.75v-10.371zm14.508 28.809h23.062v-4.805h-17.773v-7.91l0.14-0.152c1.489 1.101 3.895 2.215 6.77 2.215 6.297 0 11.636-4.997 11.636-11.477 0-6.527-5.242-11.953-11.777-11.953-5.14 0-12.203 3.598-12.156 13.629zm11.871-29.137c3.789 0 6.922 3.117 6.922 7.008 0 3.785-3.133 6.914-6.922 6.914-3.801 0-6.875-3.129-6.875-6.914 0-3.891 3.074-7.008 6.875-7.008zm28.394 29.137h23.063v-4.805h-17.774v-7.91l0.141-0.152c1.492 1.101 3.894 2.215 6.769 2.215 6.301 0 11.637-4.997 11.637-11.477 0-6.527-5.242-11.953-11.777-11.953-5.137 0-12.199 3.598-12.153 13.629zm11.871-29.137c3.789 0 6.922 3.117 6.922 7.008 0 3.785-3.133 6.914-6.922 6.914-3.801 0-6.875-3.129-6.875-6.914 0-3.891 3.074-7.008 6.875-7.008zm40.551-4.465h-26.914v4.793h10.816v28.809h5.293v-28.809h10.805zm20.711 4.793v8.356h-0.246c-1.246-1.149-3.742-2.59-7.016-2.59-6.488 0-11.769 5.227-11.769 11.758 0 6.48 5.234 11.765 11.769 11.765 3.754 0 6.297-2.062 6.969-3.117h0.293v2.637h5.277v-33.602h-22.242v4.793zm-7.063 24.391c-3.894 0-6.968-3.117-6.968-7.008 0-3.894 3.027-7.012 6.968-7.012 3.836 0 6.922 3.118 6.922 6.965 0 3.938-3.086 7.055-6.922 7.055zm23.395-29.231v28.844h15.145v4.805h-20.426v-33.649z" clip-path="url(#clipPath37)"/>
  <path id="path38" transform="matrix(1.3333 0 0 1.3333 3884 0)" d="m151.6 363.11h-38.129v6.797h15.324v40.805h7.484v-40.805h15.321zm3.875 47.602h32.671v-6.797h-25.187v-11.227l0.199-0.199c2.113 1.559 5.528 3.129 9.61 3.129 8.914 0 16.468-7.078 16.468-16.254 0-9.246-7.414-16.933-16.679-16.933-7.286 0-17.293 5.097-17.223 19.312zm16.812-41.274c5.383 0 9.805 4.418 9.805 9.926 0 5.367-4.422 9.785-9.805 9.785-5.375 0-9.738-4.418-9.738-9.785 0-5.508 4.363-9.926 9.738-9.926zm54.254 27.61 0.48 2.578-0.14 0.07-22.395-36.586h-9.129v47.602h7.496v-34.746l-0.41-1.84 0.2-0.07 22.265 36.656h9.117v-47.602h-7.484zm13.609-10.067c0 13.536 11.028 24.551 24.649 24.551 8.574 0 16.269-4.558 20.281-11.355l-5.922-3.34c-3.133 4.629-8.578 7.758-14.359 7.758-9.539 0-17.024-7.547-17.024-17.614 0-10.066 7.485-17.613 17.024-17.613 5.781 0 11.226 3.129 14.359 7.746l5.922-3.328c-4.012-6.797-11.707-11.355-20.281-11.355-13.621 0-24.649 11.015-24.649 24.55zm50.715-23.871h7.496v20.262h21.985v-20.262h7.484v47.602h-7.484v-20.543h-21.985v20.543h-7.496zm70.047 6.797v11.836h-0.34c-1.769-1.629-5.312-3.668-9.933-3.668-9.2 0-16.684 7.406-16.684 16.652 0 9.188 7.426 16.665 16.684 16.665 5.3 0 8.914-2.918 9.863-4.418h0.41v3.738h7.488v-47.602h-31.511v6.797zm-10.004 34.547c-5.515 0-9.867-4.418-9.867-9.926s4.281-9.926 9.867-9.926c5.442 0 9.805 4.418 9.805 9.856 0 5.578-4.363 9.996-9.805 9.996zm60.918-42.023c-7.285 0-13.195 2.179-17.562 5.367v42.914h27.851c11.086-6.117 14.02-14.625 14.02-23.262 0-14.074-9.129-25.019-24.309-25.019zm-10.062 41.484v-32.039c2.578-1.699 5.98-2.649 10.062-2.649 10.008 0 16.684 7.278 16.684 18.223 0 7.418-2.524 12.586-8.578 16.465zm41.586 6.797h32.671v-6.797h-25.183v-11.227l0.199-0.199c2.109 1.559 5.523 3.129 9.606 3.129 8.917 0 16.472-7.078 16.472-16.254 0-9.246-7.414-16.933-16.683-16.933-7.286 0-17.293 5.097-17.223 19.312zm16.812-41.274c5.383 0 9.809 4.418 9.809 9.926 0 5.367-4.426 9.785-9.809 9.785-5.371 0-9.738-4.418-9.738-9.785 0-5.508 4.367-9.926 9.738-9.926zm37.5 0.27c-0.398-0.141-1.359-0.27-1.969-0.27-3.672 0-5.855 2.649-5.855 5.227 0 2.32 1.164 3.809 2.933 4.898l9.868 6.188c4.492 2.789 6.945 6.187 6.945 11.226 0 8.836-7.766 14.415-14.91 14.415-7.625 0-12.531-4.758-14.5-10.196l5.851-3.469c1.504 2.848 3.473 6.657 8.649 6.657 4.222 0 7.285-2.649 7.285-6.317 0-2.789-1.094-4.769-3.332-6.129l-10.418-6.187c-3.344-1.969-5.586-5.438-5.586-10.336 0-8.766 7.754-12.984 13.281-12.984 1.289 0 2.653 0.199 3.332 0.41zm32.473 0c-0.399-0.141-1.36-0.27-1.969-0.27-3.672 0-5.856 2.649-5.856 5.227 0 2.32 1.161 3.809 2.934 4.898l9.867 6.188c4.492 2.789 6.942 6.187 6.942 11.226 0 8.836-7.766 14.415-14.91 14.415-7.625 0-12.528-4.758-14.5-10.196l5.855-3.469c1.5 2.848 3.473 6.657 8.645 6.657 4.226 0 7.285-2.649 7.285-6.317 0-2.789-1.09-4.769-3.332-6.129l-10.414-6.187c-3.344-1.969-5.586-5.438-5.586-10.336 0-8.766 7.754-12.984 13.281-12.984 1.289 0 2.648 0.199 3.332 0.41zm17.5 41.004h32.672v-6.797h-25.188v-11.227l0.199-0.199c2.114 1.559 5.528 3.129 9.61 3.129 8.914 0 16.468-7.078 16.468-16.254 0-9.246-7.414-16.933-16.679-16.933-7.285 0-17.293 5.097-17.223 19.312zm16.812-41.274c5.383 0 9.805 4.418 9.805 9.926 0 5.367-4.422 9.785-9.805 9.785-5.375 0-9.738-4.418-9.738-9.785 0-5.508 4.363-9.926 9.738-9.926zm54.254 27.61 0.481 2.578-0.141 0.07-22.395-36.586h-9.125v47.602h7.497v-34.746l-0.411-1.84 0.2-0.07 22.265 36.656h9.114v-47.602h-7.485zm15.652-33.938h7.497v20.262h21.984v-20.262h7.484v47.602h-7.484v-20.543h-21.984v20.543h-7.497zm70.051 6.797v11.836h-0.34c-1.773-1.629-5.316-3.668-9.937-3.668-9.195 0-16.68 7.406-16.68 16.652 0 9.188 7.426 16.665 16.68 16.665 5.305 0 8.918-2.918 9.867-4.418h0.41v3.738h7.485v-47.602h-31.512v6.797zm-10.008 34.547c-5.511 0-9.863-4.418-9.863-9.926s4.281-9.926 9.863-9.926c5.446 0 9.809 4.418 9.809 9.856 0 5.578-4.363 9.996-9.809 9.996zm65.219-42.023c3.473 21.55-7.156 38.964-20.355 48.281h-5.922l-15.465-46.172 7.695-1.981 13.141 39.657c7.894-5.719 16.34-20.543 13.621-38.285zm31.238 7.476v11.836h-0.339c-1.774-1.629-5.313-3.668-9.938-3.668-9.195 0-16.68 7.406-16.68 16.652 0 9.188 7.426 16.665 16.68 16.665 5.305 0 8.918-2.918 9.867-4.418h0.41v3.738h7.485v-47.602h-31.508v6.797zm-10.007 34.547c-5.512 0-9.864-4.418-9.864-9.926s4.282-9.926 9.864-9.926c5.445 0 9.808 4.418 9.808 9.856 0 5.578-4.363 9.996-9.808 9.996zm56.843-7.406 0.481 2.578-0.141 0.07-22.394-36.586h-9.125v47.602h7.496v-34.746l-0.41-1.84 0.199-0.07 22.265 36.656h9.114v-47.602h-7.485zm-673.64 42.633c-0.399-0.141-1.359-0.27-1.969-0.27-3.672 0-5.855 2.648-5.855 5.227 0 2.32 1.16 3.808 2.933 4.898l9.864 6.188c4.496 2.789 6.945 6.187 6.945 11.226 0 8.836-7.766 14.414-14.91 14.414-7.625 0-12.528-4.758-14.5-10.195l5.855-3.469c1.5 2.848 3.473 6.656 8.645 6.656 4.222 0 7.285-2.648 7.285-6.316 0-2.789-1.09-4.77-3.332-6.129l-10.414-6.187c-3.344-1.969-5.586-5.438-5.586-10.336 0-8.766 7.754-12.985 13.281-12.985 1.289 0 2.649 0.199 3.332 0.41zm17.5 41.004h32.672v-6.797h-25.188v-11.227l0.199-0.199c2.114 1.558 5.528 3.129 9.61 3.129 8.914 0 16.469-7.078 16.469-16.254 0-9.246-7.414-16.934-16.68-16.934-7.285 0-17.293 5.098-17.223 19.313zm16.812-41.274c5.383 0 9.805 4.418 9.805 9.926 0 5.367-4.422 9.785-9.805 9.785-5.375 0-9.738-4.418-9.738-9.785 0-5.508 4.363-9.926 9.738-9.926zm57.457-6.328h-38.125v6.797h15.321v40.805h7.484v-40.805h15.32zm29.336 6.797v11.836h-0.343c-1.77-1.629-5.313-3.668-9.934-3.668-9.199 0-16.684 7.406-16.684 16.652 0 9.188 7.426 16.664 16.684 16.664 5.301 0 8.914-2.918 9.863-4.418h0.414v3.739h7.485v-47.602h-31.512v6.797zm-10.007 34.547c-5.516 0-9.868-4.418-9.868-9.926s4.282-9.926 9.868-9.926c5.441 0 9.804 4.418 9.804 9.856 0 5.578-4.363 9.996-9.804 9.996zm59.976-27.27c0-7.816-6.336-14.074-14.09-14.074h-20.426v47.602h7.485v-19.313h8.988l11.297 19.922 6.191-3.598-9.793-16.863c5.981-1.641 10.348-7.148 10.348-13.676zm-14.641-7.277c4.024 0 7.157 3.34 7.157 7.347 0 4.008-3.203 7.348-7.157 7.348h-12.39v-14.695zm46.297 24.281v16.524h-7.496v-47.602h17.5c8.649 0 15.52 6.867 15.52 15.504 0 8.566-6.942 15.574-15.52 15.574zm9.453-6.797c4.633 0 8.446-4.019 8.446-8.707 0-4.758-3.742-8.777-8.446-8.777h-9.453v17.484zm46.086-17.484v11.836h-0.339c-1.77-1.629-5.313-3.668-9.938-3.668-9.195 0-16.68 7.406-16.68 16.652 0 9.188 7.426 16.664 16.68 16.664 5.305 0 8.918-2.918 9.867-4.418h0.41v3.739h7.485v-47.602h-31.508v6.797zm-10.007 34.547c-5.512 0-9.864-4.418-9.864-9.926s4.282-9.926 9.864-9.926c5.445 0 9.808 4.418 9.808 9.856 0 5.578-4.363 9.996-9.808 9.996zm40.089-34.746c-0.398-0.141-1.359-0.27-1.972-0.27-3.672 0-5.852 2.648-5.852 5.227 0 2.32 1.16 3.808 2.934 4.898l9.863 6.188c4.492 2.789 6.945 6.187 6.945 11.226 0 8.836-7.765 14.414-14.91 14.414-7.625 0-12.527-4.758-14.5-10.195l5.856-3.469c1.5 2.848 3.472 6.656 8.644 6.656 4.223 0 7.285-2.648 7.285-6.316 0-2.789-1.089-4.77-3.332-6.129l-10.418-6.187c-3.343-1.969-5.582-5.438-5.582-10.336 0-8.766 7.754-12.985 13.278-12.985 1.293 0 2.652 0.199 3.332 0.41zm41.868 23.191 14.91-29.789h8.508v47.602h-7.485v-35.907h-0.273l-12.938 27.469h-5.855l-12.926-27.469h-0.269v35.907h-7.497v-47.602h8.446l15.109 29.789zm31.043 17.813h32.671v-6.797h-25.187v-11.227l0.199-0.199c2.113 1.558 5.528 3.129 9.61 3.129 8.914 0 16.468-7.078 16.468-16.254 0-9.246-7.414-16.934-16.679-16.934-7.286 0-17.293 5.098-17.223 19.313zm16.812-41.274c5.383 0 9.809 4.418 9.809 9.926 0 5.367-4.426 9.785-9.809 9.785-5.375 0-9.738-4.418-9.738-9.785 0-5.508 4.363-9.926 9.738-9.926zm54.258 27.609 0.48 2.579-0.14 0.07-22.395-36.586h-9.129v47.602h7.496v-34.747l-0.41-1.839 0.199-0.071 22.266 36.657h9.117v-47.602h-7.484zm30.078-27.339c-0.398-0.141-1.359-0.27-1.969-0.27-3.672 0-5.855 2.648-5.855 5.227 0 2.32 1.164 3.808 2.933 4.898l9.868 6.188c4.492 2.789 6.945 6.187 6.945 11.226 0 8.836-7.766 14.414-14.91 14.414-7.625 0-12.531-4.758-14.5-10.195l5.851-3.469c1.504 2.848 3.473 6.656 8.649 6.656 4.222 0 7.285-2.648 7.285-6.316 0-2.789-1.094-4.77-3.332-6.129l-10.418-6.187c-3.344-1.969-5.586-5.438-5.586-10.336 0-8.766 7.754-12.985 13.281-12.985 1.289 0 2.653 0.199 3.332 0.41zm35.199 41.004h32.672v-6.797h-25.187v-11.227l0.199-0.199c2.113 1.558 5.527 3.129 9.609 3.129 8.914 0 16.473-7.078 16.473-16.254 0-9.246-7.414-16.934-16.684-16.934-7.285 0-17.293 5.098-17.222 19.313zm16.813-41.274c5.383 0 9.808 4.418 9.808 9.926 0 5.367-4.425 9.785-9.808 9.785-5.371 0-9.739-4.418-9.739-9.785 0-5.508 4.368-9.926 9.739-9.926zm30.57-6.398v40.875h21.434v6.797h-28.93v-47.672zm26.199 0.07h7.496v20.262h21.985v-20.262h7.484v47.602h-7.484v-20.543h-21.985v20.543h-7.496zm70.051 6.797v11.836h-0.34c-1.773-1.629-5.316-3.668-9.937-3.668-9.2 0-16.684 7.406-16.684 16.652 0 9.188 7.426 16.664 16.684 16.664 5.3 0 8.914-2.918 9.867-4.418h0.41v3.739h7.484v-47.602h-31.511v6.797zm-10.008 34.547c-5.515 0-9.867-4.418-9.867-9.926s4.281-9.926 9.867-9.926c5.442 0 9.809 4.418 9.809 9.856 0 5.578-4.367 9.996-9.809 9.996zm-594.88 35.425v11.84h-0.34c-1.773-1.629-5.316-3.668-9.937-3.668-9.195 0-16.68 7.407-16.68 16.653 0 9.187 7.426 16.664 16.68 16.664 5.305 0 8.918-2.918 9.867-4.418h0.41v3.738h7.485v-47.605h-31.512v6.796zm-10.007 34.551c-5.512 0-9.864-4.418-9.864-9.926 0-5.507 4.281-9.925 9.864-9.925 5.445 0 9.808 4.418 9.808 9.855 0 5.578-4.363 9.996-9.808 9.996zm59.972-27.269c0-7.821-6.336-14.078-14.09-14.078h-20.422v47.605h7.485v-19.312h8.984l11.297 19.921 6.195-3.597-9.796-16.864c5.984-1.64 10.347-7.148 10.347-13.675zm-14.64-7.282c4.023 0 7.156 3.34 7.156 7.352 0 4.008-3.203 7.348-7.156 7.348h-12.387v-14.7zm55.418 7.282c0-7.821-6.336-14.078-14.09-14.078h-20.422v47.605h7.484v-19.312h8.985l11.296 19.921 6.196-3.597-9.797-16.864c5.984-1.64 10.348-7.148 10.348-13.675zm-14.641-7.282c4.023 0 7.156 3.34 7.156 7.352 0 4.008-3.203 7.348-7.156 7.348h-12.387v-14.7zm26.277 1.77c3 0 5.383-2.379 5.383-5.309 0-2.988-2.383-5.367-5.383-5.367-2.992 0-5.375 2.379-5.375 5.367 0 2.93 2.383 5.309 5.375 5.309zm-3.742 3.672h7.484v35.367h-7.484zm41.66 9.457c4.223-1.5 6.871-4.758 6.871-9.727 0-7.621-5.781-11.968-14.226-11.968h-17.223v47.605h19.672c8.445 0 14.84-5.848 14.84-14.215 0-5.777-3.602-9.996-9.934-11.695zm-7.758-14.899c3.602 0 7.145 1.5 7.215 5.993-0.07 4.488-3.613 6.328-7.215 6.328h-9.324v-12.321zm-9.324 34.012v-14.894h12.176c4.023 0 7.555 2.578 7.555 7.476 0 4.559-3.532 7.418-7.555 7.418zm59.559-34.012v11.84h-0.34c-1.774-1.629-5.316-3.668-9.938-3.668-9.195 0-16.679 7.407-16.679 16.653 0 9.187 7.426 16.664 16.679 16.664 5.305 0 8.918-2.918 9.868-4.418h0.41v3.738h7.484v-47.605h-31.508v6.796zm-10.008 34.551c-5.512 0-9.863-4.418-9.863-9.926 0-5.507 4.281-9.925 9.863-9.925 5.445 0 9.809 4.418 9.809 9.855 0 5.578-4.364 9.996-9.809 9.996zm60.043-41.347h-38.125v6.796h15.32v40.809h7.485v-40.809h15.32zm56.43 14.078c0-7.821-6.332-14.078-14.09-14.078h-20.422v47.605h7.484v-19.312h8.985l11.297 19.921 6.195-3.597-9.797-16.864c5.984-1.64 10.348-7.148 10.348-13.675zm-14.641-7.282c4.023 0 7.156 3.34 7.156 7.352 0 4.008-3.203 7.348-7.156 7.348h-12.387v-14.7zm46.02 0v11.84h-0.34c-1.774-1.629-5.317-3.668-9.938-3.668-9.195 0-16.68 7.407-16.68 16.653 0 9.187 7.426 16.664 16.68 16.664 5.305 0 8.918-2.918 9.867-4.418h0.411v3.738h7.484v-47.605h-31.512v6.796zm-10.008 34.551c-5.512 0-9.864-4.418-9.864-9.926 0-5.507 4.282-9.925 9.864-9.925 5.445 0 9.808 4.418 9.808 9.855 0 5.578-4.363 9.996-9.808 9.996zm77.742-41.347h-38.125v6.796h15.32v40.809h7.485v-40.809h15.32zm29.336 6.796v11.84h-0.34c-1.77-1.629-5.312-3.668-9.934-3.668-9.199 0-16.683 7.407-16.683 16.653 0 9.187 7.426 16.664 16.683 16.664 5.301 0 8.914-2.918 9.864-4.418h0.41v3.738h7.484v-47.605h-31.508v6.796zm-10.004 34.551c-5.516 0-9.867-4.418-9.867-9.926 0-5.507 4.281-9.925 9.867-9.925 5.441 0 9.805 4.418 9.805 9.855 0 5.578-4.364 9.996-9.805 9.996zm60.102-13.465c0.21 14.825-7.684 20.403-17.563 20.403-9.867 0-17.762-5.578-17.563-20.403v-27.882h7.485v27.882c-0.129 8.848 3.683 13.465 10.078 13.465 6.605 0 10.219-4.617 10.078-13.465v-27.882h7.485zm14.984-27.953v40.879h21.433v6.797h-28.929v-47.676zm51.117 6.867v11.84h-0.34c-1.773-1.629-5.316-3.668-9.937-3.668-9.196 0-16.684 7.407-16.684 16.653 0 9.187 7.426 16.664 16.684 16.664 5.3 0 8.914-2.918 9.867-4.418h0.41v3.738h7.484v-47.605h-31.511v6.796zm-10.008 34.551c-5.511 0-9.867-4.418-9.867-9.926 0-5.507 4.285-9.925 9.867-9.925 5.446 0 9.809 4.418 9.809 9.855 0 5.578-4.363 9.996-9.809 9.996zm25.66-41.347h7.5v20.265h21.981v-20.265h7.484v47.605h-7.484v-20.543h-21.981v20.543h-7.5z" clip-path="url(#clipPath39)"/>
  <path id="path40" transform="matrix(1.3333 0 0 1.3333 3884 0)" d="m85.609 254.4h-1.312v1.699h-1.043v-1.699h-3.684v-0.891l3.258-5.074h1.469v5.074h1.312zm-2.355-4.981-2.664 4.09h2.664zm8.578 4.758c0 0.32-0.07 0.609-0.199 0.867-0.137 0.25-0.324 0.461-0.567 0.633-0.234 0.172-0.515 0.305-0.843 0.398-0.321 0.086-0.668 0.129-1.043 0.129-0.422 0-0.797-0.047-1.114-0.14-0.316-0.094-0.582-0.223-0.8-0.387-0.211-0.172-0.371-0.371-0.481-0.598-0.109-0.234-0.164-0.492-0.164-0.773 0-0.469 0.129-0.871 0.387-1.207 0.265-0.344 0.672-0.653 1.222-0.926-0.503-0.258-0.871-0.539-1.105-0.844-0.227-0.312-0.34-0.672-0.34-1.078 0-0.242 0.051-0.476 0.153-0.703 0.101-0.234 0.253-0.441 0.457-0.621 0.203-0.18 0.46-0.324 0.765-0.434 0.309-0.109 0.68-0.164 1.102-0.164 0.39 0 0.734 0.043 1.031 0.129 0.305 0.086 0.559 0.207 0.762 0.363 0.203 0.157 0.355 0.348 0.461 0.575 0.097 0.218 0.152 0.464 0.152 0.738 0 0.445-0.129 0.824-0.379 1.137-0.25 0.312-0.601 0.586-1.055 0.82 0.227 0.109 0.438 0.234 0.633 0.375 0.195 0.133 0.363 0.285 0.504 0.457 0.149 0.164 0.262 0.352 0.344 0.562 0.074 0.204 0.117 0.434 0.117 0.692zm-1.211-3.961c0-0.352-0.125-0.609-0.375-0.773-0.242-0.172-0.582-0.258-1.019-0.258-0.442 0-0.786 0.086-1.032 0.258-0.246 0.164-0.363 0.414-0.363 0.75 0 0.148 0.023 0.289 0.082 0.421 0.059 0.125 0.152 0.246 0.281 0.364 0.121 0.109 0.274 0.218 0.457 0.328 0.188 0.109 0.403 0.222 0.657 0.34 0.445-0.211 0.773-0.426 0.984-0.645 0.219-0.226 0.328-0.488 0.328-0.785zm0.106 4.031c0-0.14-0.024-0.277-0.071-0.41-0.047-0.141-0.133-0.277-0.258-0.41-0.117-0.133-0.277-0.266-0.48-0.399-0.203-0.132-0.465-0.269-0.773-0.41-0.266 0.125-0.493 0.254-0.68 0.387-0.184 0.125-0.328 0.254-0.434 0.387-0.113 0.125-0.187 0.258-0.234 0.398-0.047 0.141-0.07 0.289-0.07 0.445 0 0.18 0.035 0.336 0.105 0.469 0.074 0.133 0.18 0.246 0.316 0.34 0.129 0.094 0.286 0.164 0.469 0.211 0.188 0.047 0.391 0.07 0.61 0.07 0.203 0 0.394-0.019 0.574-0.058 0.187-0.047 0.347-0.114 0.48-0.2 0.141-0.085 0.25-0.195 0.328-0.328 0.079-0.14 0.118-0.304 0.118-0.492zm7.769-1.195c0 0.523-0.074 0.98-0.223 1.371-0.14 0.391-0.339 0.715-0.597 0.973-0.258 0.257-0.563 0.453-0.914 0.586-0.352 0.121-0.739 0.187-1.153 0.187-0.187 0-0.375-0.012-0.562-0.035-0.18-0.02-0.367-0.047-0.563-0.094v2.461h-1.019v-8.285h0.914l0.059 0.984c0.296-0.406 0.609-0.687 0.937-0.843 0.336-0.164 0.695-0.247 1.082-0.247 0.332 0 0.625 0.071 0.879 0.211 0.258 0.141 0.473 0.34 0.644 0.598 0.172 0.25 0.301 0.559 0.387 0.926 0.086 0.359 0.129 0.762 0.129 1.207zm-1.043 0.047c0-0.313-0.023-0.598-0.07-0.856-0.043-0.258-0.113-0.476-0.211-0.656-0.094-0.187-0.219-0.332-0.375-0.434-0.152-0.101-0.328-0.152-0.539-0.152-0.137 0-0.27 0.02-0.403 0.059-0.132 0.039-0.269 0.109-0.41 0.211-0.14 0.093-0.293 0.218-0.457 0.375-0.156 0.156-0.324 0.351-0.504 0.586v2.859c0.188 0.078 0.383 0.141 0.586 0.187 0.211 0.039 0.418 0.059 0.621 0.059 0.547 0 0.977-0.184 1.293-0.551 0.309-0.375 0.469-0.937 0.469-1.687zm7.371 2.918c-0.234 0.062-0.48 0.105-0.73 0.129-0.242 0.023-0.489 0.035-0.739 0.035-0.742 0-1.296-0.168-1.664-0.504-0.363-0.336-0.539-0.848-0.539-1.535v-3.071h-1.644v-0.855h1.644v-1.617l1.02-0.27v1.887h2.652v0.855h-2.652v2.989c0 0.422 0.109 0.738 0.34 0.949 0.226 0.203 0.558 0.305 0.996 0.305 0.187 0 0.39-0.012 0.609-0.036 0.227-0.031 0.461-0.078 0.707-0.14zm-19.508 330.73c0 0.352-0.062 0.684-0.187 0.996-0.125 0.305-0.305 0.57-0.539 0.797-0.235 0.227-0.524 0.406-0.856 0.539-0.328 0.133-0.695 0.199-1.093 0.199-0.422 0-0.797-0.07-1.125-0.199-0.325-0.14-0.594-0.348-0.809-0.621-0.219-0.281-0.387-0.633-0.504-1.055-0.113-0.429-0.164-0.937-0.164-1.523 0-0.391 0.023-0.77 0.07-1.137 0.051-0.367 0.141-0.711 0.258-1.031 0.117-0.328 0.274-0.625 0.469-0.891 0.191-0.273 0.437-0.504 0.726-0.691 0.29-0.195 0.629-0.348 1.02-0.457 0.398-0.11 0.859-0.164 1.387-0.164h0.75v0.89h-0.821c-0.457 0-0.851 0.055-1.187 0.164-0.336 0.11-0.617 0.266-0.844 0.469-0.226 0.196-0.402 0.434-0.527 0.715-0.117 0.281-0.195 0.598-0.223 0.949l-0.023 0.235c0.242-0.141 0.523-0.254 0.844-0.34 0.328-0.094 0.679-0.141 1.054-0.141 0.383 0 0.719 0.059 1.012 0.176 0.297 0.109 0.539 0.266 0.726 0.469 0.196 0.203 0.34 0.445 0.434 0.726 0.102 0.282 0.152 0.59 0.152 0.926zm-1.066 0.059c0-0.235-0.031-0.446-0.082-0.633-0.055-0.188-0.148-0.348-0.27-0.481-0.117-0.132-0.269-0.234-0.457-0.304-0.187-0.071-0.414-0.106-0.671-0.106-0.149 0-0.301 0.016-0.458 0.047-0.148 0.024-0.296 0.059-0.445 0.106-0.14 0.046-0.277 0.101-0.41 0.164-0.133 0.062-0.254 0.129-0.363 0.199 0 0.508 0.035 0.93 0.105 1.265 0.071 0.336 0.172 0.606 0.305 0.809 0.141 0.203 0.312 0.348 0.516 0.434 0.203 0.086 0.437 0.129 0.703 0.129 0.226 0 0.429-0.036 0.613-0.106 0.187-0.07 0.344-0.176 0.48-0.316 0.141-0.141 0.246-0.313 0.317-0.516 0.074-0.203 0.117-0.434 0.117-0.691zm7.582 0.445c0 0.32-0.07 0.609-0.199 0.867-0.137 0.25-0.324 0.461-0.567 0.633-0.234 0.172-0.515 0.305-0.843 0.398-0.321 0.086-0.668 0.129-1.043 0.129-0.422 0-0.797-0.047-1.114-0.14-0.316-0.094-0.582-0.223-0.8-0.387-0.211-0.172-0.371-0.371-0.481-0.598-0.109-0.234-0.164-0.492-0.164-0.773 0-0.469 0.129-0.871 0.387-1.207 0.265-0.344 0.672-0.652 1.222-0.926-0.503-0.258-0.871-0.539-1.105-0.844-0.227-0.312-0.34-0.672-0.34-1.078 0-0.242 0.051-0.476 0.153-0.703 0.101-0.234 0.253-0.441 0.457-0.621 0.203-0.18 0.46-0.324 0.765-0.434 0.309-0.109 0.68-0.164 1.102-0.164 0.39 0 0.734 0.043 1.031 0.129 0.305 0.086 0.559 0.207 0.762 0.364 0.203 0.156 0.355 0.347 0.461 0.574 0.097 0.219 0.152 0.465 0.152 0.738 0 0.445-0.129 0.824-0.379 1.137-0.25 0.312-0.601 0.586-1.055 0.82 0.227 0.109 0.438 0.234 0.633 0.375 0.195 0.133 0.363 0.285 0.504 0.457 0.149 0.164 0.262 0.352 0.344 0.563 0.074 0.203 0.117 0.433 0.117 0.691zm-1.211-3.961c0-0.351-0.125-0.609-0.375-0.773-0.242-0.172-0.582-0.258-1.019-0.258-0.442 0-0.786 0.086-1.032 0.258-0.246 0.164-0.363 0.414-0.363 0.75 0 0.148 0.023 0.289 0.082 0.422 0.059 0.124 0.152 0.246 0.281 0.363 0.121 0.109 0.274 0.219 0.457 0.328 0.188 0.109 0.403 0.223 0.657 0.34 0.445-0.211 0.773-0.426 0.984-0.645 0.219-0.226 0.328-0.488 0.328-0.785zm0.106 4.031c0-0.14-0.024-0.277-0.071-0.41-0.047-0.14-0.133-0.277-0.258-0.41-0.117-0.133-0.277-0.266-0.48-0.398-0.203-0.133-0.465-0.27-0.773-0.411-0.266 0.125-0.493 0.254-0.68 0.387-0.184 0.125-0.328 0.254-0.434 0.387-0.113 0.125-0.187 0.258-0.234 0.398-0.047 0.141-0.07 0.289-0.07 0.446 0 0.179 0.035 0.336 0.105 0.468 0.074 0.133 0.18 0.246 0.316 0.34 0.129 0.094 0.286 0.164 0.469 0.211 0.188 0.047 0.391 0.07 0.61 0.07 0.203 0 0.394-0.019 0.574-0.058 0.187-0.047 0.347-0.113 0.48-0.199 0.141-0.086 0.25-0.196 0.328-0.329 0.079-0.14 0.118-0.304 0.118-0.492zm7.769-1.195c0 0.523-0.074 0.98-0.223 1.371-0.14 0.391-0.339 0.715-0.597 0.973s-0.563 0.453-0.914 0.586c-0.352 0.121-0.739 0.187-1.153 0.187-0.187 0-0.375-0.012-0.562-0.035-0.18-0.019-0.367-0.047-0.563-0.094v2.461h-1.019v-8.285h0.914l0.059 0.984c0.296-0.406 0.609-0.687 0.937-0.843 0.336-0.164 0.695-0.246 1.082-0.246 0.332 0 0.625 0.07 0.879 0.211 0.258 0.14 0.473 0.339 0.644 0.597 0.172 0.25 0.301 0.559 0.387 0.926 0.086 0.359 0.129 0.762 0.129 1.207zm-1.043 0.047c0-0.313-0.023-0.598-0.07-0.856-0.043-0.257-0.113-0.476-0.211-0.656-0.094-0.187-0.219-0.332-0.375-0.433-0.152-0.102-0.328-0.153-0.539-0.153-0.137 0-0.27 0.02-0.403 0.059-0.132 0.039-0.269 0.109-0.41 0.211-0.14 0.094-0.293 0.218-0.457 0.375-0.156 0.156-0.324 0.351-0.504 0.586v2.859c0.188 0.078 0.383 0.141 0.586 0.188 0.211 0.039 0.418 0.058 0.621 0.058 0.547 0 0.977-0.183 1.293-0.551 0.309-0.375 0.469-0.937 0.469-1.687zm7.371 2.918c-0.234 0.062-0.48 0.105-0.73 0.129-0.242 0.023-0.489 0.035-0.739 0.035-0.742 0-1.296-0.168-1.664-0.504-0.363-0.336-0.539-0.848-0.539-1.535v-3.07h-1.644v-0.856h1.644v-1.617l1.02-0.27v1.887h2.652v0.856h-2.652v2.988c0 0.422 0.109 0.738 0.34 0.949 0.226 0.203 0.558 0.305 0.996 0.305 0.187 0 0.39-0.012 0.609-0.035 0.227-0.032 0.461-0.079 0.707-0.141z" clip-path="url(#clipPath41)"/>
 </g>
</svg>
