<!-- Created with Inkscape (http://www.inkscape.org/) -->
<svg id="svg1" width="1274.7" height="904" sodipodi:docname="pdb_presentation_biarnesa_mde.pdf" version="1.1" viewBox="0 0 1274.7 904" xmlns="http://www.w3.org/2000/svg" xmlns:inkscape="http://www.inkscape.org/namespaces/inkscape" xmlns:sodipodi="http://sodipodi.sourceforge.net/DTD/sodipodi-0.dtd" xmlns:xlink="http://www.w3.org/1999/xlink">
 <defs id="defs1">
  <clipPath id="clipPath55">
   <path id="path55" transform="translate(2.5e-5)" d="m50.938 67.18h842.78v571.99h-842.78z"/>
  </clipPath>
 </defs>
 <sodipodi:namedview id="namedview1" bordercolor="#666666" borderopacity="1.0" inkscape:deskcolor="#d1d1d1" inkscape:pagecheckerboard="0" inkscape:pageopacity="0.0" inkscape:showpageshadow="2" pagecolor="#ffffff">
  <inkscape:page id="page48" x="0" y="0" width="1274.6667" height="904" bleed="0" inkscape:label="42" margin="0"/>
 </sodipodi:namedview>
 <g id="g41" transform="translate(-6473.3)" inkscape:groupmode="layer" inkscape:label="41">
  <rect id="rect232" x="6473.3" width="1274.7" height="904" fill="#004799" stroke-dashoffset="34.016" stroke-linecap="round" stroke-linejoin="round" stroke-width="1.1792" style="paint-order:markers stroke fill"/>
 </g>
 <g id="g48" transform="translate(-6473.3)" fill="#fff" inkscape:groupmode="layer" inkscape:label="42">
  <path id="path49" transform="matrix(1.3333 0 0 1.3333 6473.3 0)" d="m32.176 21.742-10.41-10.402-10.414 10.402 1.488 1.485 8.926-8.915 7.437 7.43-7.437 7.43-1.489-1.484 5.95-5.946-1.489-1.484-5.949 5.941-1.488-1.484 5.949-5.945-1.484-1.485-7.442 7.43 7.442 7.43z"/>
  <path id="path54" transform="matrix(1.3333 0 0 1.3333 6473.3 0)" d="m153.55 111.2v8.696h-0.262c-1.301-1.196-3.894-2.696-7.309-2.696-6.753 0-12.257 5.45-12.257 12.246 0 6.75 5.457 12.258 12.257 12.258 3.911 0 6.559-2.156 7.262-3.258h0.309v2.754h5.5v-35.004h-23.18v5.004zm-7.367 25.395c-4.051 0-7.25-3.246-7.25-7.301 0-4.043 3.152-7.301 7.25-7.301 4.011 0 7.211 3.258 7.211 7.254 0 4.102-3.2 7.348-7.211 7.348zm24.371-7.547v12.152h-5.5v-35.004h12.867c6.359 0 11.414 5.051 11.414 11.403 0 6.304-5.113 11.449-11.414 11.449zm6.968-5.004c3.403 0 6.207-2.941 6.207-6.398 0-3.493-2.757-6.446-6.207-6.446h-6.968v12.844zm14.368-16.945 1.242 4.851 18.523-4.957-1.254-4.851zm0.75 34.148h17.621v-4.898h-12.321v-5.25l0.153-0.153c1.199 1.254 2.746 1.758 4.246 1.758 5.058 0 9.269-4.054 9.269-9.258 0-5.25-4.211-9.644-9.363-9.644-4.105 0-9.664 2.894-9.664 10.851zm9.359-22.5c2.5 0 4.555 2.051 4.555 4.606 0 2.449-2.055 4.5-4.555 4.5-2.461 0-4.457-2.051-4.457-4.5 0-2.555 1.996-4.606 4.457-4.606zm40.039-12.551h-28.035v5.004h11.262v30h5.511v-30h11.262zm7.051 6.305c2.207 0 3.953-1.758 3.953-3.902 0-2.203-1.746-3.949-3.953-3.949-2.195 0-3.953 1.746-3.953 3.949 0 2.144 1.758 3.902 3.953 3.902zm-2.746 2.695h5.504v26.004h-5.504zm37.84-9h-28.039v5.004h11.265v30h5.512v-30h11.262zm15.867 35.004h24.023v-5.004h-18.523v-8.25l0.152-0.152c1.551 1.16 4.059 2.309 7.063 2.309 6.558 0 12.109-5.203 12.109-11.953 0-6.797-5.457-12.457-12.262-12.457-5.359 0-12.715 3.75-12.668 14.203zm12.363-30.351c3.953 0 7.203 3.246 7.203 7.301 0 3.949-3.25 7.195-7.203 7.195s-7.156-3.246-7.156-7.195c0-4.055 3.203-7.301 7.156-7.301zm43.898-4.653c-7.917-0.304-13.316 5.157-14.675 8.848h-0.199c-1.5-3.844-7.051-9.152-14.817-8.848v4.957c7.063 0 12.012 5.45 12.012 12.645 0 7.254-4.949 12.457-11.953 12.457v4.945c8.703 0.305 13.41-5.648 14.664-8.906h0.199c1.148 3.352 6.207 9.152 14.769 8.859v-4.957c-6.91 0-12.011-5.296-12.011-12.398 0-7.055 4.949-12.645 12.011-12.645zm27.227 21.598c1.547 1.16 4.059 2.309 7.063 2.309 6.554 0 12.105-5.203 12.105-11.953 0-6.797-5.457-12.457-12.215-12.457-2.894 0-5.652 1.406-6.859 2.507h-0.246v-2.004h-23.184v5.004h17.68l-0.059 8.45v0.246h-0.246c-1.301-1.196-3.848-2.696-7.262-2.696-6.757 0-12.257 5.45-12.257 12.246 0 6.75 5.453 12.258 12.257 12.258 3.907 0 6.559-2.156 7.262-3.258h0.305v2.754h23.027v-5.004h-17.523v-8.25zm6.555-16.898c3.953 0 7.109 3.257 7.109 7.254 0 3.843-3.156 7.148-7.109 7.148s-7.11-3.246-7.11-7.148c0-3.997 3.157-7.254 7.11-7.254zm-19.367 25.652c-4.012 0-7.168-3.199-7.168-7.254 0-4.043 3.109-7.242 7.168-7.242 4 0 7.156 3.199 7.156 7.195 0 4.102-3.156 7.301-7.156 7.301zm58.211 7.301c-2.008 0-4.106-0.949-4.458-2.203 9.313-0.551 16.575-8.192 16.575-17.942 0-10.16-7.86-18.011-17.68-18.011-9.805 0-17.664 7.851-17.664 18.011 0 9.692 7.203 17.344 16.469 17.942-0.246 3.257 1.5 7.16 6.758 7.16 5.898 0 9.007-5.555 9.007-5.555l-3.355-2.496s-2.004 3.094-5.652 3.094zm-17.622-20.145c0-8.004 5.809-12.902 12.059-12.902 6.266 0 12.074 4.898 12.074 12.902 0 7.992-5.808 12.891-12.074 12.891-6.25 0-12.059-4.899-12.059-12.891zm59.563 3c0.152 10.899-5.656 15-12.918 15-7.25 0-13.055-4.101-12.914-15v-20.508h5.512v20.508c-0.106 6.492 2.699 9.891 7.402 9.891 4.859 0 7.508-3.399 7.414-9.891v-20.508h5.504zm21.672 15c9.816 0 17.676-7.851 17.676-18 0-10.16-7.86-18.011-17.676-18.011-9.809 0-17.668 7.851-17.668 18.011 0 10.149 7.859 18 17.668 18zm0-5.109c-6.254 0-12.063-4.899-12.063-12.891 0-8.004 5.809-12.902 12.063-12.902 6.261 0 12.07 4.898 12.07 12.902 0 7.992-5.809 12.891-12.07 12.891zm52.699-8.496 10.969-21.903h6.254v35.004h-5.504v-26.402h-0.199l-9.512 20.203h-4.305l-9.515-20.203h-0.2v26.402h-5.5v-35.004h6.203l11.11 21.903zm39.398 13.605c9.817 0 17.676-7.851 17.676-18 0-10.16-7.859-18.011-17.676-18.011-9.808 0-17.668 7.851-17.668 18.011 0 10.149 7.86 18 17.668 18zm0-5.109c-6.253 0-12.062-4.899-12.062-12.891 0-8.004 5.809-12.902 12.062-12.902 6.262 0 12.071 4.898 12.071 12.902 0 7.992-5.809 12.891-12.071 12.891zm22.926 4.605h23.625v-35.004h-5.504v12.352c0 4.102-3.398 6.656-6.754 6.656-3.859 0-7.062-3.211-7.062-7.101l-0.047-11.907h-5.516l0.059 11.907c0.047 7.101 5.457 12 11.859 12 3.25 0 5.762-1.207 7.157-2.157h0.304v8.25h-18.121zm29.231 0h24.023v-5.004h-18.523v-8.25l0.152-0.152c1.551 1.16 4.059 2.309 7.063 2.309 6.558 0 12.105-5.203 12.105-11.953 0-6.797-5.453-12.457-12.258-12.457-5.359 0-12.715 3.75-12.668 14.203zm12.363-30.351c3.953 0 7.203 3.246 7.203 7.301 0 3.949-3.25 7.195-7.203 7.195s-7.156-3.246-7.156-7.195c0-4.055 3.203-7.301 7.156-7.301zm39.891 20.297 0.351 1.898-0.094 0.059-16.472-26.907h-6.711v35.004h5.504v-25.547l-0.293-1.359 0.152-0.047 16.363 26.953h6.711v-35.004h-5.511zm28.382-4.946v-5.05h-18.875v5.05zm2.497-19.054 2.101 4.605 10.16-4.207 10.168 4.207 2.102-4.605-12.27-5.004zm16.167 10.851v6.551h-0.199c-0.847-1.195-3.097-2.555-5.855-2.555-5.453 0-9.867 4.36-9.867 9.856 0 5.402 4.367 9.855 9.562 9.855 3.063 0 5.516-2.156 6.113-3h0.246v2.496h5.407v-28.101h-18.524v4.898zm-5.902 18.656c-2.758 0-4.961-2.156-4.961-4.898 0-2.801 2.11-4.957 4.961-4.957 2.699 0 4.797 2.156 4.797 4.852 0 2.847-2.098 5.003-4.797 5.003zm45.246-3.609c-1.945 2.461-5.406 3.656-8.855 3.656-7.016 0-12.516-5.8-12.516-12.949 0-7.406 5.5-13.055 12.516-13.055 4.246 0 8.258 2.297 10.558 5.801l4.352-2.449c-2.957-5.004-8.609-8.355-14.91-8.355-10.02 0-18.125 8.109-18.125 18.058 0 10.149 8.011 18.047 17.726 18.047 6.254 0 11.907-2.742 14.758-7.5v-10.805h-14.91v5.004h9.406zm10.664 8.156h24.024v-5.004h-18.524v-8.25l0.153-0.152c1.546 1.16 4.058 2.309 7.062 2.309 6.559 0 12.106-5.203 12.106-11.953 0-6.797-5.454-12.457-12.258-12.457-5.364 0-12.719 3.75-12.672 14.203zm12.364-30.351c3.953 0 7.203 3.246 7.203 7.301 0 3.949-3.25 7.195-7.203 7.195-3.954 0-7.157-3.246-7.157-7.195 0-4.055 3.203-7.301 7.157-7.301zm-631.52 90.351h5.656v-35.754l-5.656 1.747zm11.262-9.996c0 5.801 4.504 10.5 10.511 10.5 6.465 0 11.11-4.758 11.11-10.758 0-6.046-5.055-10.101-10.863-10.101v-0.399l7.964-11.695-4.457-3.058-11.109 16.757c-1.652 2.543-3.156 5.45-3.156 8.754zm10.711 5.344c-3.004 0-5.407-2.402-5.407-5.543 0-3.105 2.25-5.309 5.313-5.309 3.144 0 5.609 2.45 5.609 5.403 0 3-2.465 5.449-5.515 5.449zm28.429-30.398h22.278v5.003h-16.774v9.598h15.274v4.992h-15.274v15.457h-5.504zm26.383 35.05h24.024v-5.004h-18.524v-8.25l0.153-0.152c1.55 1.16 4.058 2.309 7.062 2.309 6.559 0 12.105-5.203 12.105-11.953 0-6.797-5.453-12.457-12.257-12.457-5.36 0-12.715 3.75-12.668 14.203zm12.363-30.351c3.954 0 7.204 3.246 7.204 7.301 0 3.949-3.25 7.195-7.204 7.195-3.953 0-7.156-3.246-7.156-7.195 0-4.055 3.203-7.301 7.156-7.301zm35.028 11.297c3.109-1.102 5.058-3.493 5.058-7.149 0-5.601-4.246-8.801-10.453-8.801h-12.668v35.004h14.461c6.207 0 10.91-4.3 10.91-10.453 0-4.242-2.648-7.347-7.308-8.601zm-5.699-10.946c2.652 0 5.254 1.102 5.3 4.395-0.046 3.305-2.648 4.652-5.3 4.652h-6.864v-9.047zm-6.864 24.996v-10.945h8.961c2.957 0 5.563 1.899 5.563 5.496 0 3.352-2.606 5.449-5.563 5.449zm50.715-19.652c0-5.742-4.66-10.348-10.371-10.348h-15.016v35.004h5.512v-14.203h6.606l8.304 14.649 4.555-2.649-7.203-12.398c4.398-1.196 7.613-5.25 7.613-10.055zm-10.769-5.344c2.957 0 5.254 2.45 5.254 5.403 0 2.941-2.344 5.39-5.254 5.39h-9.106v-10.793zm19.316 1.301c2.207 0 3.953-1.758 3.953-3.902 0-2.203-1.746-3.949-3.953-3.949-2.191 0-3.953 1.746-3.953 3.949 0 2.144 1.762 3.902 3.953 3.902zm-2.742 2.695h5.5v26.004h-5.5zm12.758-8.648 18.523 4.945 1.258-4.84-18.524-4.957zm-0.645 34.699h17.621v-4.898h-12.32v-5.25l0.156-0.153c1.195 1.254 2.742 1.758 4.246 1.758 5.055 0 9.266-4.054 9.266-9.258 0-5.25-4.211-9.644-9.36-9.644-4.105 0-9.667 2.894-9.667 10.851zm9.363-22.5c2.496 0 4.551 2.051 4.551 4.606 0 2.449-2.055 4.5-4.551 4.5-2.464 0-4.461-2.051-4.461-4.5 0-2.555 1.997-4.606 4.461-4.606zm40.789-2.203c0-5.742-4.656-10.348-10.367-10.348h-15.019v35.004h5.515v-14.203h6.606l8.305 14.649 4.55-2.649-7.203-12.398c4.399-1.196 7.613-5.25 7.613-10.055zm-10.769-5.344c2.957 0 5.258 2.45 5.258 5.403 0 2.941-2.348 5.39-5.258 5.39h-9.102v-10.793zm45.848 13.746c1.957-2.402 3.203-5.449 3.203-8.742 0-5.801-4.555-10.511-10.711-10.511-6.559 0-11.309 4.757-11.309 10.757 0 6.047 5.16 10.102 10.91 10.102v0.398l-11.261 14.25h21.371v-5.004h-11.215zm-13.364-8.648c0-3.047 2.5-5.496 5.657-5.496 3.109 0 5.558 2.391 5.558 5.601 0 3.141-2.297 5.344-5.453 5.344-3.262 0-5.762-2.449-5.762-5.449zm45.504 7.406c0-12.011-6.254-18.011-13.269-18.011-7.004 0-13.16 6-13.16 18.011 0 11.449 6.156 18 13.16 18 7.015 0 13.269-6.41 13.269-18zm-5.703 0c0 8.449-3.414 12.844-7.566 12.844-4.047 0-7.555-4.395-7.555-12.844 0-9.058 3.508-12.855 7.555-12.855 4.152 0 7.566 3.797 7.566 12.855zm10.953 17.496h5.656v-35.754l-5.656 1.747zm33.188-35.004h-5.5l-18.278 28.559h18.278v6.445h5.5v-6.445h4.66v-4.711h-4.66zm-15.168 23.848 9.668-15.75v15.75zm39.398-2.59c2.145 0 3.953-1.804 3.953-3.961 0-2.191-1.808-3.996-3.953-3.996-2.16 0-3.953 1.805-3.953 3.996 0 2.157 1.793 3.961 3.953 3.961zm0.199 7.547h-0.105c-2.148-0.152-4.047 1.594-4.152 3.797-0.106 2.156 1.605 4.008 3.754 4.148 0.304 0 0.597 0 0.902-0.093-0.703 2.894-4.106 4.547-5.164 5.05l1.656 2.145c4.551-2.145 6.863-5.602 7.109-9.492 0.153-3.61-1.597-5.403-4-5.555zm38.985-10.055c1.961-2.402 3.203-5.449 3.203-8.742 0-5.801-4.551-10.511-10.711-10.511-6.559 0-11.309 4.757-11.309 10.757 0 6.047 5.161 10.102 10.911 10.102v0.398l-11.262 14.25h21.375v-5.004h-11.215zm-13.364-8.648c0-3.047 2.5-5.496 5.657-5.496 3.109 0 5.558 2.391 5.558 5.601 0 3.141-2.297 5.344-5.453 5.344-3.262 0-5.762-2.449-5.762-5.449zm39.743 14.848c0-4.442-2.895-8.145-6.45-8.602v-0.246c3.094-0.703 5.7-3.996 5.7-8.098 0-5.25-4.352-8.507-9.5-8.507-2.407 0-4.508 0.703-6.266 1.91l2.91 4.043c0.692-0.493 1.746-0.844 2.895-0.844 2.558 0 4.308 1.945 4.308 4.242 0 2.156-1.597 4.699-4.554 4.699h-3.153v5.508h2.25c4.61 0 6.453 3 6.453 5.695 0 3-2.347 5.403-5.457 5.403-3.093 0-5.101-2.449-5.746-5.25l-4.808 1.547c0.855 4.254 4.258 9.058 10.613 9.058 6.254 0 10.805-4.804 10.805-10.558zm2.402 9.304 11.918-35.004 4.906 1.547-11.66 35.004zm46.254-16.746c0-12.011-6.254-18.011-13.27-18.011-7 0-13.16 6-13.16 18.011 0 11.449 6.16 18 13.16 18 7.016 0 13.27-6.41 13.27-18zm-5.703 0c0 8.449-3.41 12.844-7.567 12.844-4.046 0-7.554-4.395-7.554-12.844 0-9.058 3.508-12.855 7.554-12.855 4.157 0 7.567 3.797 7.567 12.855zm30.629-17.508h-5.504l-18.274 28.559h18.274v6.445h5.504v-6.445h4.656v-4.711h-4.656zm-15.168 23.848 9.664-15.75v15.75zm22.324 10.406 11.918-35.004 4.902 1.547-11.66 35.004zm22.07 0.75h5.657v-35.754l-5.657 1.747zm28.438-18.597c3.601-1.852 4.551-5.004 4.551-7.559 0-5.648-4.75-9.351-10.016-9.351-5.305 0-10.055 3.703-10.055 9.351 0 2.555 0.949 5.707 4.551 7.559v0.14c-4.059 2.051-5.348 5.461-5.348 8.555 0 6.199 5.055 10.348 10.852 10.348 5.758 0 10.812-4.149 10.812-10.348 0-3.094-1.347-6.445-5.347-8.555zm-5.465-11.754c2.602 0 4.41 2.144 4.41 4.699s-1.808 4.5-4.41 4.5c-2.652 0-4.449-1.945-4.449-4.5s1.797-4.699 4.449-4.699zm0 25.699c-3.203 0-5.398-2.344-5.398-5.449 0-3.094 2.195-5.696 5.398-5.696 3.152 0 5.359 2.602 5.359 5.696 0 3.105-2.207 5.449-5.359 5.449zm17.976-25.348h13.715l0.047 0.153-1.304 1.746-15.766 26.297 4.855 2.554 21.528-35.754h-23.075zm39.239-5.004h-5.5l-18.278 28.559h18.278v6.445h5.5v-6.445h4.66v-4.711h-4.66zm-15.168 23.848 9.668-15.75v15.75zm-570.15 78.152h-12.765v-49.699h12.562v4.746h-7.402v40.207h7.605zm28.434-24.492c0-12.011-6.254-18.011-13.266-18.011-7.003 0-13.164 6-13.164 18.011 0 11.449 6.161 18 13.164 18 7.012 0 13.266-6.41 13.266-18zm-5.699 0c0 8.449-3.414 12.844-7.567 12.844-4.046 0-7.554-4.395-7.554-12.844 0-9.058 3.508-12.855 7.554-12.855 4.153 0 7.567 3.797 7.567 12.855zm8.699 7.5c0 5.801 4.504 10.5 10.512 10.5 6.465 0 11.109-4.758 11.109-10.758 0-6.046-5.055-10.101-10.863-10.101v-0.399l7.965-11.695-4.457-3.058-11.11 16.757c-1.652 2.543-3.156 5.45-3.156 8.754zm10.711 5.344c-3.004 0-5.406-2.402-5.406-5.543 0-3.105 2.25-5.309 5.312-5.309 3.145 0 5.61 2.45 5.61 5.403 0 3-2.465 5.449-5.516 5.449zm48.551-20.344c0-5.801-4.504-10.511-10.512-10.511-6.453 0-11.109 4.757-11.109 10.757 0 6.047 5.054 10.102 10.863 10.102v0.398l-7.965 11.696 4.457 3.058 11.121-16.758c1.641-2.543 3.145-5.449 3.145-8.742zm-10.711-5.355c3.004 0 5.406 2.402 5.406 5.554 0 3.094-2.25 5.297-5.301 5.297-3.156 0-5.609-2.449-5.609-5.402 0-3 2.453-5.449 5.504-5.449zm32.933 14.097c1.961-2.402 3.204-5.449 3.204-8.742 0-5.801-4.551-10.511-10.711-10.511-6.559 0-11.309 4.757-11.309 10.757 0 6.047 5.164 10.102 10.91 10.102v0.398l-11.262 14.25h21.375v-5.004h-11.214zm-13.359-8.648c0-3.047 2.496-5.496 5.652-5.496 3.11 0 5.563 2.391 5.563 5.601 0 3.141-2.301 5.344-5.457 5.344-3.262 0-5.758-2.449-5.758-5.449zm34.336 24.902h5.652v-35.754l-5.652 1.747zm28.437-18.597c3.602-1.852 4.551-5.004 4.551-7.559 0-5.648-4.75-9.351-10.019-9.351-5.301 0-10.055 3.703-10.055 9.351 0 2.555 0.953 5.707 4.555 7.559v0.14c-4.059 2.051-5.352 5.461-5.352 8.555 0 6.199 5.059 10.348 10.852 10.348 5.761 0 10.816-4.149 10.816-10.348 0-3.094-1.348-6.445-5.348-8.555zm-5.468-11.754c2.605 0 4.41 2.144 4.41 4.699s-1.805 4.5-4.41 4.5c-2.653 0-4.446-1.945-4.446-4.5s1.793-4.699 4.446-4.699zm0 25.699c-3.203 0-5.395-2.344-5.395-5.449 0-3.094 2.192-5.696 5.395-5.696 3.156 0 5.363 2.602 5.363 5.696 0 3.105-2.207 5.449-5.363 5.449zm30.992-25.348h13.711l0.047 0.153-1.301 1.746-15.766 26.297 4.856 2.554 21.527-35.754h-23.074zm39.234-5.004h-5.504l-18.277 28.559h18.277v6.445h5.504v-6.445h4.657v-4.711h-4.657zm-15.168 23.848 9.664-15.75v15.75zm39.09-23.848h16.563v5.004h-11.461l-0.996 10.793 0.199 0.106c0.598-0.305 1.949-0.645 3.402-0.645 4.856 0 9.469 3.75 9.469 9.844 0 6.152-4.965 10.406-10.863 10.406-6.559 0-9.715-4.804-10.571-9.058l4.762-1.149c0.949 2.801 2.746 5.203 5.809 5.203 3.097 0 5.101-2.449 5.101-5.05 0-2.754-2.16-5.145-5.207-5.145-1.656 0-2.851 0.691-3.508 1.289h-4.445zm20.824 25.008c0 5.801 4.504 10.5 10.508 10.5 6.465 0 11.11-4.758 11.11-10.758 0-6.046-5.055-10.101-10.86-10.101v-0.399l7.965-11.695-4.461-3.058-11.109 16.757c-1.653 2.543-3.153 5.45-3.153 8.754zm10.711 5.344c-3.004 0-5.41-2.402-5.41-5.543 0-3.105 2.254-5.309 5.313-5.309 3.144 0 5.609 2.45 5.609 5.403 0 3-2.465 5.449-5.512 5.449zm20.516 6.902v-40.207h-7.402v-4.746h12.562v49.699h-12.762v-4.746zm33.133-42.597c-3.598 0-7.047 3.34-7.047 7.043 0 5.004 2.051 6.902 2.051 10.851 0 3.199-2.957 3.856-4.961 3.75v3.457c1.898-0.105 4.961 0.34 4.961 3.692 0 4.148-2.051 5.953-2.051 11.004 0 4.347 3.601 6.902 7.156 6.902 2.004 0 4.153-0.902 5.207-2.25l-2.207-3.598c-0.504 0.446-1.5 0.949-2.402 0.949-1.352 0-2.5-0.949-2.5-2.953 0-2.953 2.148-7.3 2.148-9.996 0-2.859-2.101-5.25-4.355-5.402v-0.199c2.254-0.106 4.308-1.957 4.308-4.5 0-3.106-2.101-8.66-2.101-10.957 0-1.899 1.043-2.895 2.5-2.895 1.148 0 2.004 0.598 2.402 0.996l2.254-3.551c-0.551-0.843-2.559-2.343-5.363-2.343zm37.945 4.84c2.559 15.855-5.254 28.652-14.969 35.507h-4.351l-11.367-33.949 5.664-1.453 9.656 29.156c5.808-4.207 12.012-15.105 10.019-28.16zm20.82 36.011c9.821 0 17.68-7.851 17.68-18 0-10.16-7.859-18.011-17.68-18.011-9.808 0-17.668 7.851-17.668 18.011 0 10.149 7.86 18 17.668 18zm0-5.109c-6.253 0-12.058-4.899-12.058-12.891 0-8.004 5.805-12.902 12.058-12.902 6.266 0 12.071 4.898 12.071 12.902 0 7.992-5.805 12.891-12.071 12.891zm22.926 4.605h23.625v-35.004h-5.5v12.352c0 4.102-3.402 6.656-6.758 6.656-3.859 0-7.062-3.211-7.062-7.101l-0.047-11.907h-5.512l0.059 11.907c0.047 7.101 5.453 12 11.859 12 3.25 0 5.758-1.207 7.157-2.157h0.304v8.25h-18.125zm47.957-30v8.696h-0.258c-1.3-1.196-3.894-2.696-7.308-2.696-6.758 0-12.258 5.45-12.258 12.246 0 6.75 5.453 12.258 12.258 12.258 3.906 0 6.558-2.156 7.262-3.258h0.304v2.754h5.5v-35.004h-23.179v5.004zm-7.367 25.395c-4.047 0-7.25-3.246-7.25-7.301 0-4.043 3.156-7.301 7.25-7.301 4.012 0 7.215 3.258 7.215 7.254 0 4.102-3.203 7.348-7.215 7.348zm44.352-3.551c-1.946 2.461-5.407 3.656-8.856 3.656-7.015 0-12.519-5.8-12.519-12.949 0-7.406 5.504-13.055 12.519-13.055 4.246 0 8.258 2.297 10.559 5.801l4.351-2.449c-2.957-5.004-8.609-8.355-14.91-8.355-10.019 0-18.125 8.109-18.125 18.058 0 10.149 8.012 18.047 17.727 18.047 6.25 0 11.906-2.742 14.757-7.5v-10.805h-14.91v5.004h9.407zm10.66 8.156h24.027v-5.004h-18.523v-8.25l0.152-0.152c1.547 1.16 4.059 2.309 7.063 2.309 6.558 0 12.105-5.203 12.105-11.953 0-6.797-5.453-12.457-12.258-12.457-5.363 0-12.719 3.75-12.672 14.203zm12.367-30.351c3.953 0 7.203 3.246 7.203 7.301 0 3.949-3.25 7.195-7.203 7.195s-7.156-3.246-7.156-7.195c0-4.055 3.203-7.301 7.156-7.301zm27.582 0.199c-0.305-0.105-1.008-0.199-1.457-0.199-2.707 0-4.305 1.945-4.305 3.844 0 1.71 0.848 2.8 2.149 3.609l7.261 4.547c3.309 2.051 5.102 4.547 5.102 8.25 0 6.504-5.699 10.605-10.957 10.605-5.606 0-9.207-3.504-10.664-7.5l4.308-2.554c1.102 2.097 2.555 4.898 6.356 4.898 3.098 0 5.351-1.945 5.351-4.652 0-2.051-0.796-3.493-2.453-4.5l-7.648-4.547c-2.465-1.453-4.106-3.996-4.106-7.606 0-6.445 5.7-9.55 9.762-9.55 0.949 0 1.945 0.152 2.449 0.304zm16.105-10.195c-2.804 0-4.796 1.5-5.347 2.343l2.25 3.551c0.398-0.398 1.246-0.996 2.406-0.996 1.441 0 2.5 0.996 2.5 2.895 0 2.297-2.102 7.851-2.102 10.957 0 2.543 2.055 4.394 4.305 4.5v0.199c-2.25 0.152-4.363 2.543-4.363 5.402 0 2.696 2.16 7.043 2.16 9.996 0 2.004-1.152 2.953-2.5 2.953-0.902 0-1.91-0.503-2.406-0.949l-2.203 3.598c1.054 1.348 3.203 2.25 5.207 2.25 3.554 0 7.156-2.555 7.156-6.902 0-5.051-2.051-6.856-2.051-11.004 0-3.352 3.047-3.797 4.949-3.692v-3.457c-1.996 0.106-4.949-0.551-4.949-3.75 0-3.949 2.051-5.847 2.051-10.851 0-3.703-3.461-7.043-7.063-7.043zm-611.04 82.902c0 9.949 8.106 18.047 18.125 18.047 6.301 0 11.953-3.352 14.91-8.344l-4.351-2.449c-2.301 3.398-6.313 5.695-10.559 5.695-7.015 0-12.515-5.554-12.515-12.949 0-7.406 5.5-12.953 12.515-12.953 4.246 0 8.258 2.297 10.559 5.699l4.351-2.449c-2.957-5.008-8.609-8.359-14.91-8.359-10.019 0-18.125 8.109-18.125 18.062zm53.457 17.953c9.817 0 17.68-7.851 17.68-18 0-10.164-7.863-18.015-17.68-18.015-9.808 0-17.668 7.851-17.668 18.015 0 10.149 7.86 18 17.668 18zm0-5.109c-6.254 0-12.062-4.899-12.062-12.891 0-8.004 5.808-12.906 12.062-12.906 6.262 0 12.071 4.902 12.071 12.906 0 7.992-5.809 12.891-12.071 12.891zm45.098-5.449 0.352 1.898-0.094 0.059-16.473-26.911h-6.711v35.008h5.504v-25.547l-0.293-1.359 0.152-0.051 16.364 26.957h6.711v-35.008h-5.512zm36.793-24.954h-28.035v5.004h11.261v30.004h5.512v-30.004h11.262zm21.574 5.004v8.7h-0.258c-1.304-1.196-3.894-2.696-7.308-2.696-6.758 0-12.258 5.449-12.258 12.246 0 6.75 5.453 12.258 12.258 12.258 3.906 0 6.558-2.156 7.261-3.258h0.305v2.754h5.5v-35.008h-23.18v5.004zm-7.367 25.399c-4.047 0-7.25-3.246-7.25-7.301 0-4.043 3.156-7.301 7.25-7.301 4.012 0 7.215 3.258 7.215 7.254 0 4.102-3.203 7.348-7.215 7.348zm17.371-12.844c0 9.949 8.106 18.047 18.125 18.047 6.297 0 11.953-3.352 14.91-8.344l-4.351-2.449c-2.301 3.398-6.313 5.695-10.559 5.695-7.016 0-12.519-5.554-12.519-12.949 0-7.406 5.503-12.953 12.519-12.953 4.246 0 8.258 2.297 10.559 5.699l4.351-2.449c-2.957-5.008-8.613-8.359-14.91-8.359-10.019 0-18.125 8.109-18.125 18.062zm62.57-17.559h-28.039v5.004h11.262v30.004h5.516v-30.004h11.261zm19.368 30.754c-6.864 0-12.457-6.047-12.457-13.453 0-6.949 5.253-12.953 13.562-12.953h4.703v5.406h-0.305c-0.894-0.644-2.195-1.347-4.398-1.347-4.812 0-9.363 3.504-9.363 8.894 0 5.156 3.754 9.352 8.961 9.352 3.297 0 5.199-1.547 5.457-2.344h0.152v1.594h4.152v-26.5h-9.867c-11.508 0-18.219 8.699-18.219 17.898 0 9.809 6.911 18.305 17.118 18.305h11.414v-4.852zm1.058-8.941c-2.512 0-4.461-2.004-4.461-4.512 0-2.496 2.008-4.5 4.508-4.5 2.496 0 4.551 2.004 4.551 4.5 0 2.508-2.102 4.512-4.598 4.512zm31.875 13.699c9.82 0 17.68-7.851 17.68-18 0-10.164-7.86-18.015-17.68-18.015-9.808 0-17.668 7.851-17.668 18.015 0 10.149 7.86 18 17.668 18zm0-5.109c-6.254 0-12.058-4.899-12.058-12.891 0-8.004 5.804-12.906 12.058-12.906 6.266 0 12.07 4.902 12.07 12.906 0 7.992-5.804 12.891-12.07 12.891zm22.176-30.449h22.277v5.003h-16.777v9.602h15.273v4.992h-15.273v15.457h-5.5zm30.574 6.351c2.207 0 3.953-1.758 3.953-3.902 0-2.203-1.746-3.949-3.953-3.949-2.191 0-3.953 1.746-3.953 3.949 0 2.144 1.762 3.902 3.953 3.902zm-2.742 2.699h5.5v26.004h-5.5zm29.43 11.004v-5.051h-18.875v5.051zm20.164 15.504c9.82 0 17.679-7.851 17.679-18 0-10.164-7.859-18.015-17.679-18.015-9.805 0-17.668 7.851-17.668 18.015 0 10.149 7.863 18 17.668 18zm0-5.109c-6.25 0-12.059-4.899-12.059-12.891 0-8.004 5.809-12.906 12.059-12.906 6.265 0 12.074 4.902 12.074 12.906 0 7.992-5.809 12.891-12.074 12.891zm20.675-12.844c0 9.949 8.106 18.047 18.122 18.047 6.3 0 11.957-3.352 14.91-8.344l-4.352-2.449c-2.297 3.398-6.308 5.695-10.558 5.695-7.012 0-12.516-5.554-12.516-12.949 0-7.406 5.504-12.953 12.516-12.953 4.25 0 8.261 2.297 10.558 5.699l4.352-2.449c-2.953-5.008-8.61-8.359-14.91-8.359-10.016 0-18.122 8.109-18.122 18.062zm35.786 0c0 9.949 8.109 18.047 18.125 18.047 6.3 0 11.957-3.352 14.91-8.344l-4.352-2.449c-2.297 3.398-6.308 5.695-10.558 5.695-7.016 0-12.516-5.554-12.516-12.949 0-7.406 5.5-12.953 12.516-12.953 4.25 0 8.261 2.297 10.558 5.699l4.352-2.449c-2.953-5.008-8.61-8.359-14.91-8.359-10.016 0-18.125 8.109-18.125 18.062zm41.093-11.254c2.204 0 3.954-1.758 3.954-3.902 0-2.203-1.75-3.949-3.954-3.949-2.195 0-3.953 1.746-3.953 3.949 0 2.144 1.758 3.902 3.953 3.902zm-2.746 2.699h5.504v26.004h-5.504zm37.84-9.004h-28.039v5.004h11.262v30.004h5.515v-30.004h11.262zm21.574 5.004v8.7h-0.257c-1.305-1.196-3.899-2.696-7.309-2.696-6.758 0-12.262 5.449-12.262 12.246 0 6.75 5.457 12.258 12.262 12.258 3.906 0 6.555-2.156 7.262-3.258h0.304v2.754h5.5v-35.008h-23.179v5.004zm-7.367 25.399c-4.047 0-7.25-3.246-7.25-7.301 0-4.043 3.156-7.301 7.25-7.301 4.012 0 7.215 3.258 7.215 7.254 0 4.102-3.203 7.348-7.215 7.348zm41.797-5.449 0.352 1.898-0.094 0.059-16.469-26.911h-6.711v35.008h5.5v-25.547l-0.293-1.359 0.153-0.051 16.367 26.957h6.707v-35.008h-5.512zm13.461 11.8c2.16 0 3.965-1.793 3.965-3.949 0-2.191-1.805-3.996-3.965-3.996-2.148 0-3.953 1.805-3.953 3.996 0 2.156 1.805 3.949 3.953 3.949zm7.562-1.746h24.028v-5.004h-18.524v-8.25l0.153-0.152c1.547 1.16 4.058 2.309 7.062 2.309 6.559 0 12.106-5.204 12.106-11.954 0-6.8-5.453-12.46-12.258-12.46-5.363 0-12.719 3.75-12.672 14.207zm12.368-30.355c3.953 0 7.203 3.246 7.203 7.304 0 3.95-3.25 7.196-7.203 7.196s-7.157-3.246-7.157-7.196c0-4.058 3.204-7.304 7.157-7.304zm42.289 15.859c0.152 10.899-5.653 15-12.914 15-7.25 0-13.059-4.101-12.918-15v-20.512h5.515v20.512c-0.105 6.492 2.696 9.891 7.403 9.891 4.855 0 7.507-3.399 7.414-9.891v-20.512h5.5zm-579.06 64.5c0 5.801 4.504 10.5 10.512 10.5 6.461 0 11.109-4.758 11.109-10.758 0-6.047-5.058-10.101-10.863-10.101v-0.399l7.965-11.695-4.457-3.059-11.11 16.758c-1.656 2.543-3.156 5.449-3.156 8.754zm10.711 5.344c-3.004 0-5.41-2.402-5.41-5.543 0-3.106 2.254-5.309 5.316-5.309 3.145 0 5.606 2.45 5.606 5.403 0 3-2.461 5.449-5.512 5.449zm63.668-8.754c1.551 1.16 4.059 2.309 7.063 2.309 6.558 0 12.109-5.204 12.109-11.954 0-6.796-5.457-12.457-12.262-12.457-3.754 0-8.515 1.852-10.969 6.61-3.203-4.055-8.152-6.61-13.757-6.61-9.809 0-17.668 7.852-17.668 18.012 0 10.149 7.859 18 17.668 18 4.703 0 9.007-1.805 12.164-4.851v4.347h23.824v-5.004h-18.324v-8.25zm-17.816 8.801c-6.254 0-12.063-4.899-12.063-12.891 0-8.004 5.75-12.902 12.063-12.902 6.25 0 12.058 4.898 12.058 12.902 0 7.992-5.808 12.891-12.058 12.891zm24.422-25.594c3.906 0 7.062 3.199 7.062 7.148 0 3.844-3.156 7.055-7.062 7.055-3.848 0-7.004-3.211-7.004-7.055 0-3.949 3.156-7.148 7.004-7.148zm41.543 15.703c0.152 10.899-5.653 15-12.915 15-7.25 0-13.058-4.101-12.918-15v-20.508h5.516v20.508c-0.105 6.492 2.695 9.891 7.402 9.891 4.856 0 7.508-3.399 7.415-9.891v-20.508h5.5zm5.503-20.555h22.278v5.004h-16.774v9.598h15.274v4.992h-15.274v15.457h-5.504zm37.399 4.899c-0.305-0.106-1.012-0.199-1.457-0.199-2.707 0-4.305 1.945-4.305 3.843 0 1.711 0.844 2.801 2.149 3.61l7.261 4.547c3.309 2.05 5.102 4.547 5.102 8.25 0 6.504-5.699 10.605-10.957 10.605-5.606 0-9.207-3.504-10.664-7.5l4.304-2.555c1.106 2.098 2.559 4.899 6.36 4.899 3.097 0 5.351-1.945 5.351-4.652 0-2.051-0.8-3.493-2.453-4.5l-7.648-4.547c-2.465-1.453-4.106-3.996-4.106-7.606 0-6.445 5.7-9.551 9.758-9.551 0.953 0 1.949 0.153 2.453 0.305zm26.269-4.899h22.278v5.004h-16.774v9.598h15.274v4.992h-15.274v15.457h-5.504zm52.016 10.395c0-5.742-4.66-10.348-10.371-10.348h-15.016v35.004h5.512v-14.203h6.605l8.305 14.649 4.551-2.649-7.199-12.398c4.398-1.196 7.613-5.25 7.613-10.055zm-10.77-5.344c2.954 0 5.254 2.449 5.254 5.403 0 2.941-2.347 5.39-5.254 5.39h-9.105v-10.793zm33.84 0v8.696h-0.257c-1.301-1.196-3.895-2.696-7.309-2.696-6.758 0-12.258 5.449-12.258 12.246 0 6.75 5.453 12.258 12.258 12.258 3.906 0 6.559-2.156 7.262-3.258h0.304v2.754h5.504v-35.004h-23.183v5.004zm-7.367 25.395c-4.047 0-7.25-3.246-7.25-7.301 0-4.043 3.156-7.301 7.25-7.301 4.012 0 7.215 3.258 7.215 7.254 0 4.102-3.203 7.348-7.215 7.348zm22.672-24.094c2.207 0 3.957-1.758 3.957-3.902 0-2.203-1.75-3.95-3.957-3.95-2.191 0-3.953 1.747-3.953 3.95 0 2.144 1.762 3.902 3.953 3.902zm-2.742 2.695h5.5v26.004h-5.5zm23.176-4.148c-0.305-0.106-1.008-0.199-1.454-0.199-2.71 0-4.304 1.945-4.304 3.843 0 1.711 0.844 2.801 2.144 3.61l7.262 4.547c3.309 2.05 5.106 4.547 5.106 8.25 0 6.504-5.704 10.605-10.958 10.605-5.609 0-9.21-3.504-10.664-7.5l4.305-2.555c1.102 2.098 2.559 4.899 6.359 4.899 3.094 0 5.348-1.945 5.348-4.652 0-2.051-0.797-3.493-2.453-4.5l-7.648-4.547c-2.461-1.453-4.106-3.996-4.106-7.606 0-6.445 5.703-9.551 9.762-9.551 0.949 0 1.945 0.153 2.453 0.305zm27.023 30.152h5.656v-35.754l-5.656 1.746zm15.016-6.105c-0.246-0.047-0.504-0.094-0.797-0.094h-0.153c-2.253 0-3.859 1.594-3.953 3.797-0.105 2.156 1.547 3.949 3.707 4.148-0.609 2.86-3.156 4.453-4.211 4.957l1.653 2.145c4.551-2.145 7.308-5.602 7.308-9.492 0-3.211-1.394-4.957-3.554-5.461zm25.972-10.149c1.961-2.402 3.203-5.449 3.203-8.742 0-5.801-4.55-10.512-10.71-10.512-6.559 0-11.309 4.758-11.309 10.758 0 6.047 5.16 10.102 10.91 10.102v0.398l-11.262 14.25h21.375v-5.004h-11.214zm-13.363-8.648c0-3.047 2.5-5.496 5.656-5.496 3.11 0 5.559 2.39 5.559 5.601 0 3.141-2.297 5.344-5.453 5.344-3.262 0-5.762-2.449-5.762-5.449zm44.957 20.508c-4.766 0-8.812-2.602-10.922-6.551h12.317v-4.008h-13.715c-0.153-0.797-0.199-1.652-0.199-2.496 0-0.352 0-0.656 0.046-1.008h16.368v-4.5h-15.309c1.945-4.5 6.297-7.547 11.414-7.547 4.246 0 8.258 2.297 10.555 5.801l4.355-2.449c-2.957-5.004-8.613-8.356-14.91-8.356-8.062 0-14.922 5.309-17.269 12.551h-3.356v4.5h2.547c-0.047 0.352-0.047 0.656-0.047 1.008 0 0.844 0.047 1.699 0.152 2.496h-2.652v4.008h3.695c2.664 6.75 9.219 11.543 16.93 11.543 6.297 0 11.953-3.352 14.91-8.344l-4.355-2.449c-2.297 3.492-6.309 5.801-10.555 5.801zm30.426 3.644 11.918-35.004 4.906 1.547-11.664 35.004zm35.09 0.75h5.652v-35.754l-5.652 1.746zm42.746-27h-12.516v-3h12.516v-5.004h-30.489v5.004h12.622v3h-12.622v5.004h12.622v21.996h5.351v-21.996h12.516zm0 8.004h-5.102v18.996h5.102zm-2.559 22.195c-1.64 0-3.047 1.348-3.047 3.047 0 1.653 1.407 3 3.047 3 1.703 0 3.063-1.347 3.063-3 0-1.699-1.36-3.047-3.063-3.047zm-467.89 21.293c2.558 15.856-5.258 28.653-14.969 35.508h-4.352l-11.367-33.949 5.664-1.453 9.656 29.156c5.805-4.207 12.012-15.105 10.016-28.16zm22.976 5.508v8.696h-0.258c-1.3-1.196-3.894-2.696-7.308-2.696-6.758 0-12.258 5.449-12.258 12.246 0 6.75 5.453 12.258 12.258 12.258 3.906 0 6.558-2.156 7.261-3.258h0.305v2.754h5.504v-35.004h-23.18v5.004zm-7.367 25.395c-4.047 0-7.25-3.246-7.25-7.301 0-4.043 3.156-7.301 7.25-7.301 4.012 0 7.215 3.258 7.215 7.254 0 4.102-3.203 7.348-7.215 7.348zm37.391-7.547v12.152h-5.5v-35.004h12.867c6.359 0 11.414 5.051 11.414 11.403 0 6.304-5.113 11.449-11.414 11.449zm6.968-5.004c3.403 0 6.207-2.941 6.207-6.398 0-3.493-2.757-6.446-6.207-6.446h-6.968v12.844zm40.336-14.801v6.61h-0.199c-0.844-1.36-3.094-2.707-5.852-2.707-5.457 0-9.867 4.347-9.867 9.855 0 5.402 4.364 9.844 9.563 9.844 3.062 0 5.511-2.145 6.109-3.141h0.246v2.742h5.41v-28.101h-18.523v4.898zm-19.414-3.047v30.153h19.922v4.851h-25.281v-35.004zm13.656 21.75c-2.851 0-5.105-2.203-5.105-5.05 0-2.895 2.16-5.098 5.105-5.098 2.957 0 5.114 2.203 5.114 5.004 0 2.941-2.157 5.144-5.114 5.144zm38.29 3.2 0.351 1.898-0.094 0.059-16.468-26.907h-6.711v35.004h5.5v-25.547l-0.293-1.359 0.152-0.047 16.367 26.953h6.711v-35.004h-5.515zm42.55-17.344c0-5.309-4.304-9.551-9.562-9.551-5.254 0-9.61 4.242-9.61 9.551 0 4.652 3.555 7.898 8.016 8.496-1.363 1.5-2.312 3.305-2.312 5.754 0 1.453 0.304 2.847 1.808 5.051l4.152-1.957c-0.648-0.891-1-1.793-1-3.352 0-6.293 8.508-7.043 8.508-13.992zm-13.82-0.199c0-2.309 1.852-4.254 4.258-4.254 2.359 0 4.211 1.945 4.211 4.254 0 2.296-1.852 4.242-4.211 4.242-2.406 0-4.258-1.946-4.258-4.242zm3.754 29.543c2.16 0 3.965-1.793 3.965-3.95 0-2.191-1.805-3.996-3.965-3.996-2.149 0-3.953 1.805-3.953 3.996 0 2.157 1.804 3.95 3.953 3.95zm14.367-36.95v25.758h5.055v-25.758zm2.008 36.95c2.144 0 3.953-1.793 3.953-3.95 0-2.191-1.809-3.996-3.953-3.996-2.16 0-3.953 1.805-3.953 3.996 0 2.157 1.793 3.95 3.953 3.95zm26.824-30 2.957-1.7-2.008-3.445-2.953 1.699-3.051 3.094 1.196-4.195v-3.399h-4v3.399l1.195 4.195-3.051-3.094-2.953-1.699-1.996 3.445 2.957 1.7 4.246 1.054-4.246 1.102-2.957 1.699 1.996 3.445 2.953-1.699 3.051-3.094-1.195 4.196v3.398h4v-3.398l-1.196-4.196 3.051 3.094 2.953 1.699 2.008-3.445-2.957-1.699-4.258-1.102zm22.426-6.153 4.902-1.547 11.918 35.004-5.16 1.547zm51.754 6.153 2.957-1.7-2.008-3.445-2.957 1.699-3.047 3.094 1.195-4.195v-3.399h-4v3.399l1.196 4.195-3.051-3.094-2.957-1.699-1.992 3.445 2.957 1.7 4.246 1.054-4.246 1.102-2.957 1.699 1.992 3.445 2.957-1.699 3.051-3.094-1.196 4.196v3.398h4v-3.398l-1.195-4.196 3.047 3.094 2.957 1.699 2.008-3.445-2.957-1.699-4.258-1.102zm29.527 28.957s2.453 0.996 2.453 4.101c0 2.402-1.902 4.992-5.703 4.992-2.207 0-3.906-0.644-4.351-1.09l0.949-4.453s1.453 1.243 3.355 1.243c1.793 0 2.746-0.598 2.746-1.793 0-2.098-3.449-2.801-7.507-4.407-4.801-1.945-11.309-6.902-11.309-16.453 0-10.699 7.66-18.797 17.922-18.797 6.758 0 11.558 3.399 14.711 8.801l-4.551 2.707c-2.051-4.16-5.512-6.609-10.16-6.609-7.461 0-12.668 6-12.668 13.406 0 7.254 5.254 13.301 12.668 13.301 6.008 0 8.859-4.055 10.16-6.598l4.551 2.695c-3.047 5.403-8.153 8.555-13.266 8.696zm35.543-30.903v8.696h-0.258c-1.301-1.196-3.894-2.696-7.308-2.696-6.754 0-12.258 5.449-12.258 12.246 0 6.75 5.457 12.258 12.258 12.258 3.906 0 6.558-2.156 7.261-3.258h0.305v2.754h5.504v-35.004h-23.18v5.004zm-7.367 25.395c-4.047 0-7.25-3.246-7.25-7.301 0-4.043 3.156-7.301 7.25-7.301 4.016 0 7.215 3.258 7.215 7.254 0 4.102-3.199 7.348-7.215 7.348zm60.973-30.903c2.554 15.856-5.258 28.653-14.969 35.508h-4.356l-11.367-33.949 5.668-1.453 9.656 29.156c5.805-4.207 12.012-15.105 10.016-28.16zm22.976 5.508v8.696h-0.258c-1.3-1.196-3.894-2.696-7.308-2.696-6.758 0-12.258 5.449-12.258 12.246 0 6.75 5.453 12.258 12.258 12.258 3.906 0 6.558-2.156 7.261-3.258h0.305v2.754h5.504v-35.004h-23.184v5.004zm-7.367 25.395c-4.047 0-7.25-3.246-7.25-7.301 0-4.043 3.156-7.301 7.25-7.301 4.012 0 7.215 3.258 7.215 7.254 0 4.102-3.203 7.348-7.215 7.348zm49.906-22.793c0-5.309-4.304-9.551-9.558-9.551-5.258 0-9.61 4.242-9.61 9.551 0 4.652 3.555 7.898 8.012 8.496-1.359 1.5-2.309 3.305-2.309 5.754 0 1.453 0.305 2.847 1.805 5.051l4.152-1.957c-0.644-0.891-0.996-1.793-0.996-3.352 0-6.293 8.504-7.043 8.504-13.992zm-13.816-0.199c0-2.309 1.851-4.254 4.258-4.254 2.355 0 4.211 1.945 4.211 4.254 0 2.296-1.856 4.242-4.211 4.242-2.407 0-4.258-1.946-4.258-4.242zm3.754 29.543c2.156 0 3.965-1.793 3.965-3.95 0-2.191-1.809-3.996-3.965-3.996-2.149 0-3.953 1.805-3.953 3.996 0 2.157 1.804 3.95 3.953 3.95zm14.367-36.95v25.758h5.055v-25.758zm2.004 36.95c2.148 0 3.953-1.793 3.953-3.95 0-2.191-1.805-3.996-3.953-3.996-2.156 0-3.953 1.805-3.953 3.996 0 2.157 1.797 3.95 3.953 3.95zm-618.45 49.898c-1.946 2.461-5.407 3.656-8.856 3.656-7.016 0-12.519-5.801-12.519-12.949 0-7.406 5.503-13.055 12.519-13.055 4.246 0 8.258 2.297 10.559 5.801l4.351-2.449c-2.957-5.004-8.613-8.356-14.91-8.356-10.019 0-18.125 8.11-18.125 18.059 0 10.148 8.012 18.047 17.727 18.047 6.25 0 11.906-2.742 14.757-7.5v-10.805h-14.91v5.004h9.407zm29.382-21.844v8.696h-0.261c-1.301-1.196-3.895-2.696-7.305-2.696-6.758 0-12.262 5.449-12.262 12.246 0 6.75 5.457 12.258 12.262 12.258 3.906 0 6.555-2.156 7.258-3.258h0.308v2.754h5.5v-35.004h-23.179v5.004zm-7.367 25.395c-4.051 0-7.25-3.246-7.25-7.301 0-4.043 3.153-7.301 7.25-7.301 4.012 0 7.215 3.258 7.215 7.254 0 4.102-3.203 7.348-7.215 7.348zm64.824-15.492h-9.312c-1.504-6.2-4.508-10.911-9.809-15.551l-3.8 3.398c7.003 6.199 9.652 13.149 9.312 24.246h5.457c0-2.543-0.105-4.945-0.351-7.101h8.503v15.105h5.504v-35.004h-5.504zm-45.949-14.907v35.004h5.5v-27l-0.14-1.054 0.093-0.047 15.414 28.101 17.176 0.047v-5.051h-13.515l-16.469-30zm29.738 21.399c0-1.899-1.503-3.399-3.414-3.399-1.902 0-3.402 1.5-3.402 3.399 0 1.851 1.5 3.351 3.402 3.351 1.911 0 3.414-1.5 3.414-3.351zm30.77-20.543 18.523 4.945 1.254-4.851-18.523-4.946zm9.008 34.652c7.508 0 13.574-5.953 13.574-13.758 0-7.793-6.066-13.746-13.574-13.746s-13.559 5.953-13.559 13.746c0 7.805 6.051 13.758 13.559 13.758zm0-5.051c-4.399 0-8.258-3.351-8.258-8.707 0-5.343 3.859-8.695 8.258-8.695 4.414 0 8.262 3.352 8.262 8.695 0 5.356-3.848 8.707-8.262 8.707zm43.308-20.109c0-5.742-4.656-10.348-10.367-10.348h-15.015v35.004h5.511v-14.203h6.606l8.304 14.649 4.551-2.649-7.203-12.398c4.399-1.196 7.613-5.25 7.613-10.055zm-10.769-5.344c2.957 0 5.258 2.449 5.258 5.403 0 2.941-2.348 5.39-5.258 5.39h-9.102v-10.793zm33.387 30.903s2.449 0.996 2.449 4.101c0 2.402-1.899 4.992-5.699 4.992-2.207 0-3.907-0.644-4.352-1.09l0.949-4.453s1.453 1.243 3.356 1.243c1.793 0 2.746-0.598 2.746-1.793 0-2.098-3.449-2.801-7.508-4.407-4.801-1.945-11.313-6.902-11.313-16.453 0-10.699 7.665-18.797 17.926-18.797 6.758 0 11.555 3.399 14.711 8.801l-4.551 2.707c-2.05-4.16-5.511-6.609-10.16-6.609-7.461 0-12.668 6-12.668 13.406 0 7.254 5.254 13.301 12.668 13.301 6.008 0 8.86-4.055 10.16-6.598l4.551 2.695c-3.051 5.403-8.152 8.555-13.265 8.696zm35.543-30.903v8.696h-0.262c-1.301-1.196-3.895-2.696-7.305-2.696-6.758 0-12.262 5.449-12.262 12.246 0 6.75 5.457 12.258 12.262 12.258 3.906 0 6.555-2.156 7.258-3.258h0.309v2.754h5.5v-35.004h-23.18v5.004zm-7.368 25.395c-4.05 0-7.25-3.246-7.25-7.301 0-4.043 3.153-7.301 7.25-7.301 4.012 0 7.215 3.258 7.215 7.254 0 4.102-3.203 7.348-7.215 7.348zm74.082-15.492h-11.765c-0.246-5.356-1.547-10.653-4-15.809l-5.406 2.051c4.058 8.801 5.054 17.554 2.296 26.707l-15.261-27.856h-8.059v35.004h5.5v-27l-0.141-1.054 0.094-0.047 15.418 28.101 5.254 0.047c2.406-4.992 3.813-10.101 4.211-15.152h11.859v15.105h5.504v-35.004h-5.504zm29.836-9.903v8.696h-0.257c-1.301-1.196-3.895-2.696-7.309-2.696-6.758 0-12.258 5.449-12.258 12.246 0 6.75 5.453 12.258 12.258 12.258 3.906 0 6.559-2.156 7.262-3.258h0.304v2.754h5.504v-35.004h-23.183v5.004zm-7.367 25.395c-4.047 0-7.25-3.246-7.25-7.301 0-4.043 3.156-7.301 7.25-7.301 4.012 0 7.215 3.258 7.215 7.254 0 4.102-3.203 7.348-7.215 7.348zm17.375-12.844c0 9.949 8.106 18.047 18.125 18.047 6.297 0 11.953-3.352 14.91-8.344l-4.351-2.449c-2.301 3.398-6.313 5.695-10.559 5.695-7.015 0-12.519-5.554-12.519-12.949 0-7.406 5.504-12.949 12.519-12.949 4.246 0 8.258 2.297 10.559 5.695l4.351-2.449c-2.957-5.004-8.613-8.356-14.91-8.356-10.019 0-18.125 8.11-18.125 18.059zm55.61-12.551v8.696h-0.258c-1.301-1.196-3.895-2.696-7.309-2.696-6.758 0-12.258 5.449-12.258 12.246 0 6.75 5.453 12.258 12.258 12.258 3.906 0 6.559-2.156 7.262-3.258h0.305v2.754h5.503v-35.004h-23.179v5.004zm-7.368 25.395c-4.047 0-7.25-3.246-7.25-7.301 0-4.043 3.157-7.301 7.25-7.301 4.012 0 7.215 3.258 7.215 7.254 0 4.102-3.203 7.348-7.215 7.348zm31.793-30.903c-5.363 0-9.715 1.606-12.918 3.961v31.547h20.473c8.164-4.5 10.313-10.746 10.313-17.097 0-10.36-6.711-18.411-17.868-18.411zm-7.414 30.504v-23.543c1.91-1.254 4.41-1.957 7.414-1.957 7.356 0 12.258 5.356 12.258 13.407 0 5.449-1.851 9.246-6.297 12.093zm49.313-24.996v8.696h-0.258c-1.305-1.196-3.895-2.696-7.309-2.696-6.757 0-12.261 5.449-12.261 12.246 0 6.75 5.457 12.258 12.261 12.258 3.907 0 6.555-2.156 7.262-3.258h0.305v2.754h5.5v-35.004h-23.18v5.004zm-7.367 25.395c-4.047 0-7.25-3.246-7.25-7.301 0-4.043 3.156-7.301 7.25-7.301 4.011 0 7.214 3.258 7.214 7.254 0 4.102-3.203 7.348-7.214 7.348zm37.39-30.446v30.047h15.766v5.004h-21.27v-35.051zm22.184-2.05c-0.258-0.047-0.508-0.106-0.813-0.106h-0.152c-2.25 0-3.848 1.606-3.953 3.809-0.094 2.144 1.562 3.949 3.707 4.148-0.598 2.848-3.156 4.453-4.199 4.946l1.644 2.156c4.563-2.156 7.309-5.602 7.309-9.504 0-3.199-1.399-4.945-3.543-5.449zm6.851 3 1.246 4.851 18.524-4.957-1.258-4.851zm0.75 34.148h17.621v-4.898h-12.316v-5.25l0.152-0.153c1.196 1.254 2.746 1.758 4.246 1.758 5.055 0 9.266-4.055 9.266-9.258 0-5.25-4.211-9.644-9.359-9.644-4.106 0-9.668 2.894-9.668 10.851zm9.364-22.5c2.5 0 4.55 2.051 4.55 4.606 0 2.449-2.05 4.5-4.55 4.5-2.465 0-4.457-2.051-4.457-4.5 0-2.555 1.992-4.606 4.457-4.606zm40.039-12.551h-28.035v5.004h11.261v30h5.512v-30h11.262zm2.054 0.903 1.243 4.851 18.523-4.957-1.254-4.851zm0.75 34.148h17.621v-4.898h-12.316v-5.25l0.152-0.153c1.196 1.254 2.743 1.758 4.247 1.758 5.054 0 9.265-4.055 9.265-9.258 0-5.25-4.211-9.644-9.359-9.644-4.106 0-9.668 2.894-9.668 10.851zm9.364-22.5c2.496 0 4.55 2.051 4.55 4.606 0 2.449-2.054 4.5-4.55 4.5-2.465 0-4.457-2.051-4.457-4.5 0-2.555 1.992-4.606 4.457-4.606zm46.097-7.547v8.696h-0.257c-1.305-1.196-3.895-2.696-7.309-2.696-6.758 0-12.262 5.449-12.262 12.246 0 6.75 5.457 12.258 12.262 12.258 3.906 0 6.555-2.156 7.262-3.258h0.304v2.754h5.5v-35.004h-23.179v5.004zm-7.367 25.395c-4.047 0-7.25-3.246-7.25-7.301 0-4.043 3.156-7.301 7.25-7.301 4.012 0 7.215 3.258 7.215 7.254 0 4.102-3.203 7.348-7.215 7.348zm44.106-20.051c0-5.742-4.657-10.348-10.372-10.348h-15.015v35.004h5.512v-14.203h6.605l8.309 14.649 4.55-2.649-7.203-12.398c4.399-1.196 7.614-5.25 7.614-10.055zm-10.77-5.344c2.957 0 5.254 2.449 5.254 5.403 0 2.941-2.344 5.39-5.254 5.39h-9.105v-10.793zm40.75 5.344c0-5.742-4.656-10.348-10.371-10.348h-15.016v35.004h5.516v-14.203h6.605l8.305 14.649 4.551-2.649-7.203-12.398c4.398-1.196 7.613-5.25 7.613-10.055zm-10.769-5.344c2.957 0 5.257 2.449 5.257 5.403 0 2.941-2.347 5.39-5.257 5.39h-9.102v-10.793zm19.32 1.301c2.203 0 3.953-1.758 3.953-3.902 0-2.203-1.75-3.95-3.953-3.95-2.195 0-3.953 1.747-3.953 3.95 0 2.144 1.758 3.902 3.953 3.902zm-2.746 2.695h5.5v26.004h-5.5zm41.64-9.504c2.555 15.856-5.257 28.653-14.968 35.508h-4.352l-11.371-33.949 5.668-1.453 9.656 29.156c5.805-4.207 12.012-15.105 10.016-28.16zm4.254 35.508h24.028v-5.004h-18.524v-8.25l0.153-0.152c1.546 1.16 4.058 2.309 7.062 2.309 6.555 0 12.106-5.204 12.106-11.954 0-6.796-5.458-12.457-12.258-12.457-5.364 0-12.719 3.75-12.672 14.204zm12.364-30.351c3.957 0 7.203 3.246 7.203 7.3 0 3.95-3.246 7.196-7.203 7.196-3.954 0-7.153-3.246-7.153-7.196 0-4.054 3.199-7.3 7.153-7.3zm-666.36 78.199v12.152h-5.5v-35.004h12.867c6.36 0 11.414 5.051 11.414 11.403 0 6.304-5.113 11.449-11.414 11.449zm6.969-5.004c3.402 0 6.207-2.941 6.207-6.398 0-3.493-2.758-6.446-6.207-6.446h-6.969v12.844zm33.887-12.844v8.696h-0.258c-1.305-1.196-3.895-2.696-7.309-2.696-6.758 0-12.258 5.449-12.258 12.246 0 6.75 5.454 12.258 12.258 12.258 3.906 0 6.559-2.156 7.262-3.258h0.305v2.754h5.5v-35.004h-23.18v5.004zm-7.368 25.395c-4.046 0-7.25-3.246-7.25-7.301 0-4.043 3.157-7.301 7.25-7.301 4.012 0 7.215 3.258 7.215 7.254 0 4.102-3.203 7.348-7.215 7.348zm22.672-24.094c2.207 0 3.953-1.758 3.953-3.902 0-2.203-1.746-3.95-3.953-3.95-2.191 0-3.953 1.747-3.953 3.95 0 2.144 1.762 3.902 3.953 3.902zm-2.742 2.695h5.5v26.004h-5.5zm37.793 1.348c0-5.742-4.656-10.348-10.371-10.348h-15.016v35.004h5.516v-14.203h6.602l8.308 14.649 4.551-2.649-7.203-12.398c4.398-1.196 7.613-5.25 7.613-10.055zm-10.769-5.344c2.957 0 5.257 2.449 5.257 5.403 0 2.941-2.347 5.39-5.257 5.39h-9.102v-10.793zm15.117 30h24.027v-5.004h-18.523v-8.25l0.152-0.152c1.547 1.16 4.059 2.309 7.063 2.309 6.558 0 12.105-5.204 12.105-11.954 0-6.796-5.453-12.457-12.258-12.457-5.363 0-12.719 3.75-12.672 14.204zm12.367-30.351c3.953 0 7.203 3.246 7.203 7.3 0 3.95-3.25 7.196-7.203 7.196s-7.156-3.246-7.156-7.196c0-4.054 3.203-7.3 7.156-7.3zm55.902 7.851c0 4.793-0.8 8.555-3.554 12.047l-6.852-7.945c3.297-1.653 6.297-4.559 6.297-8.356 0-5.402-3.645-8.754-9.055-8.754-5.008 0-9.054 4.254-9.054 8.954 0 2.753 2.05 5.25 3.601 6.855-4.308 1.5-9.211 4.852-9.211 9.902 0 4.547 3.848 9.797 12.059 9.797 4.566 0 8.215-1.301 11.168-3.445l3.156 3.644 4.094-3.503-3.344-3.493c4.203-4.453 5.457-9.703 5.551-15.656zm-12.965-8.051c2.055 0 3.661 1.5 3.661 3.551 0 2.004-2.11 3.75-4.61 4.746-1.304-1.547-2.652-2.894-2.652-4.746 0-2.051 1.551-3.551 3.601-3.551zm-9.406 20.25c0-3.246 3.047-4.746 6.754-5.906l7.957 9.211c-2.195 1.149-4.847 1.84-7.91 1.84-3.449 0-6.801-1.547-6.801-5.145zm47.149-24.703h5.504v14.907h16.175v-14.907h5.5v35.004h-5.5v-15.105h-16.175v15.105h-5.504zm36.984 6.305c2.207 0 3.953-1.758 3.953-3.902 0-2.203-1.746-3.95-3.953-3.95-2.191 0-3.953 1.747-3.953 3.95 0 2.144 1.762 3.902 3.953 3.902zm-2.742 2.695h5.5v26.004h-5.5zm43.492 5.907h-9.316c-1.5-6.2-4.504-10.911-9.805-15.551l-3.801 3.398c7 6.199 9.653 13.149 9.301 24.246h5.469c0-2.543-0.106-4.945-0.356-7.101h8.508v15.105h5.5v-35.004h-5.5zm-30.937-14.954v35.051h25.785v-5.004h-20.282v-30.047zm55.062 35.051h24.023v-5.004h-18.523v-8.25l0.152-0.152c1.551 1.16 4.059 2.309 7.063 2.309 6.558 0 12.105-5.204 12.105-11.954 0-6.796-5.453-12.457-12.257-12.457-5.36 0-12.715 3.75-12.668 14.204zm12.363-30.351c3.953 0 7.203 3.246 7.203 7.3 0 3.95-3.25 7.196-7.203 7.196s-7.156-3.246-7.156-7.196c0-4.054 3.203-7.3 7.156-7.3zm33.731-4.149v20.555h13.621v4.992h-19.629v-25.547zm-10.758 3.492v26.004h17.867v5.004h-23.875v-31.008zm27.48 31.008h24.024v-5.004h-18.524v-8.25l0.157-0.152c1.547 1.16 4.058 2.309 7.058 2.309 6.559 0 12.11-5.204 12.11-11.954 0-6.796-5.457-12.457-12.262-12.457-5.359 0-12.715 3.75-12.668 14.204zm12.364-30.351c3.953 0 7.203 3.246 7.203 7.3 0 3.95-3.25 7.196-7.203 7.196s-7.157-3.246-7.157-7.196c0-4.054 3.204-7.3 7.157-7.3zm29.582 30.351h24.023v-5.004h-18.523v-8.25l0.152-0.152c1.551 1.16 4.059 2.309 7.063 2.309 6.558 0 12.109-5.204 12.109-11.954 0-6.796-5.457-12.457-12.262-12.457-5.359 0-12.715 3.75-12.668 14.204zm12.363-30.351c3.953 0 7.203 3.246 7.203 7.3 0 3.95-3.25 7.196-7.203 7.196s-7.156-3.246-7.156-7.196c0-4.054 3.203-7.3 7.156-7.3zm27.383 21.445h17.617v-4.898h-12.316v-6.247l0.152-0.152c1.195 1.254 2.746 1.746 4.246 1.746 5.059 0 9.27-4.043 9.27-9.246 0-5.25-4.211-9.644-9.364-9.644-4.105 0-9.664 2.894-9.664 10.839zm-5.012-26.145v30.153h19.875v4.898h-25.281v-35.051zm14.36 2.649c2.511 0 4.562 2.051 4.562 4.605 0 2.45-2.051 4.5-4.562 4.5-2.454 0-4.446-2.05-4.446-4.5 0-2.554 1.992-4.605 4.446-4.605zm31.632 19.301 10.969-21.903h6.254v35.004h-5.504v-26.402h-0.199l-9.512 20.203h-4.308l-9.512-20.203h-0.199v26.402h-5.504v-35.004h6.207l11.109 21.903zm22.832 13.101h24.024v-5.004h-18.524v-8.25l0.157-0.152c1.546 1.16 4.058 2.309 7.058 2.309 6.559 0 12.11-5.204 12.11-11.954 0-6.796-5.457-12.457-12.262-12.457-5.36 0-12.715 3.75-12.668 14.204zm12.364-30.351c3.953 0 7.203 3.246 7.203 7.3 0 3.95-3.25 7.196-7.203 7.196-3.954 0-7.157-3.246-7.157-7.196 0-4.054 3.203-7.3 7.157-7.3zm39.886 20.297 0.352 1.898-0.094 0.059-16.469-26.907h-6.711v35.004h5.5v-25.547l-0.292-1.359 0.152-0.047 16.367 26.953h6.711v-35.004h-5.516zm36.797-24.95h-28.039v5.004h11.262v30h5.512v-30h11.265zm-606.19 95.008h24.023v-5.004h-18.523v-8.25l0.152-0.152c1.551 1.16 4.059 2.308 7.063 2.308 6.558 0 12.105-5.203 12.105-11.953 0-6.797-5.453-12.461-12.258-12.461-5.359 0-12.715 3.754-12.668 14.207zm12.363-30.351c3.953 0 7.203 3.246 7.203 7.3 0 3.95-3.25 7.196-7.203 7.196s-7.156-3.246-7.156-7.196c0-4.054 3.203-7.3 7.156-7.3zm22.465 18.199v12.152h-5.5v-35.008h12.867c6.359 0 11.414 5.055 11.414 11.407 0 6.304-5.113 11.449-11.414 11.449zm6.969-5.004c3.402 0 6.207-2.942 6.207-6.399 0-3.492-2.758-6.445-6.207-6.445h-6.969v12.844zm26.179-12.996c-0.308-0.106-1.011-0.199-1.457-0.199-2.711 0-4.304 1.945-4.304 3.843 0 1.711 0.843 2.801 2.148 3.61l7.262 4.547c3.305 2.05 5.101 4.546 5.101 8.25 0 6.503-5.703 10.605-10.957 10.605-5.609 0-9.211-3.504-10.664-7.5l4.305-2.555c1.105 2.098 2.559 4.899 6.359 4.899 3.098 0 5.348-1.946 5.348-4.653 0-2.05-0.797-3.492-2.449-4.5l-7.649-4.546c-2.465-1.454-4.105-3.997-4.105-7.606 0-6.445 5.699-9.555 9.758-9.555 0.949 0 1.949 0.153 2.453 0.305zm17.055 1.453c2.207 0 3.953-1.758 3.953-3.902 0-2.207-1.746-3.954-3.953-3.954-2.191 0-3.953 1.747-3.953 3.954 0 2.144 1.762 3.902 3.953 3.902zm-2.746 2.695h5.504v26.004h-5.504zm42.945 8.098c-5.148 0-9.254-3.996-9.254-9.246 0-5.297 4.106-9.356 9.254-9.356 5.164 0 9.258 4.059 9.258 9.356 0 5.25-4.094 9.246-9.258 9.246zm-13.617-16.598v20.559h13.617v4.992h-19.625v-25.551zm13.617 2.606c-2.25 0-4.351 1.898-4.351 4.699 0 2.848 2.101 4.652 4.351 4.652 2.254 0 4.352-1.804 4.352-4.652 0-2.801-2.098-4.699-4.352-4.699zm-24.375 0.89v26.004h17.864v5.004h-23.872v-31.008zm60.309 20.953 0.351 1.899-0.093 0.058-16.469-26.91h-6.711v35.008h5.5v-25.547l-0.293-1.359 0.152-0.047 16.368 26.953h6.707v-35.008h-5.512zm47.453 0 0.352 1.899-0.094 0.058-16.473-26.91h-6.707v35.008h5.5v-25.547l-0.293-1.359 0.152-0.047 16.364 26.953h6.711v-35.008h-5.512zm27.676 10.559c9.82 0 17.679-7.852 17.679-18 0-10.16-7.859-18.016-17.679-18.016-9.809 0-17.668 7.856-17.668 18.016 0 10.148 7.859 18 17.668 18zm0-5.109c-6.254 0-12.059-4.899-12.059-12.891 0-8.004 5.805-12.902 12.059-12.902 6.265 0 12.07 4.898 12.07 12.902 0 7.992-5.805 12.891-12.07 12.891zm24.629-26.649c2.207 0 3.953-1.75 3.953-3.906 0-2.191-1.746-3.949-3.953-3.949-2.203 0-3.953 1.758-3.953 3.949 0 2.156 1.75 3.906 3.953 3.906zm14.523 0c2.195 0 3.953-1.75 3.953-3.906 0-2.191-1.758-3.949-3.953-3.949-2.207 0-3.965 1.758-3.965 3.949 0 2.156 1.758 3.906 3.965 3.906zm-17.328 31.301h17.621v-4.898h-12.316v-5.25l0.152-0.153c1.207 1.254 2.758 1.758 4.258 1.758 5.055 0 9.254-4.055 9.254-9.258 0-5.25-4.199-9.644-9.36-9.644-4.093 0-9.656 2.894-9.656 10.851zm9.363-22.5c2.5 0 4.551 2.051 4.551 4.605 0 2.45-2.051 4.5-4.551 4.5-2.453 0-4.457-2.05-4.457-4.5 0-2.554 2.004-4.605 4.457-4.605zm21.918-12.602v30.051h15.766v5.004h-21.27v-35.055zm54.66 27.204c7.567 0 13.618-5.954 13.618-13.805 0-7.793-6.051-13.856-13.618-13.856-7.449 0-13.515 6.063-13.515 13.856 0 7.851 6.066 13.805 13.515 13.805zm-17.011-27.204v30.051h17.761v5.004h-23.273v-35.055zm17.011 22.352c-4.152 0-8.105-3.551-8.105-8.953 0-5.391 3.953-9.047 8.105-9.047 4.211 0 8.164 3.656 8.164 9.047 0 5.402-3.953 8.953-8.164 8.953zm19.422-18.504c2.207 0 3.953-1.75 3.953-3.894 0-2.204-1.746-3.961-3.953-3.961-2.203 0-3.953 1.757-3.953 3.961 0 2.144 1.75 3.894 3.953 3.894zm14.512 0c2.207 0 3.953-1.75 3.953-3.894 0-2.204-1.746-3.961-3.953-3.961-2.203 0-3.953 1.757-3.953 3.961 0 2.144 1.75 3.894 3.953 3.894zm2.605 31.207h-19.074v-4.699h14.02v-6h-0.25c-0.399 0.75-2.801 2.098-4.809 2.098-5.054 0-9.16-4.102-9.16-9.2v-8.203h5.055v8.356c0 2.496 1.961 4.394 4.504 4.394 2.406 0 4.304-1.898 4.304-4.347v-8.403h5.41zm17.223-30.152c-0.305-0.106-1.008-0.199-1.453-0.199-2.711 0-4.305 1.945-4.305 3.843 0 1.711 0.844 2.801 2.145 3.61l7.262 4.547c3.308 2.05 5.105 4.546 5.105 8.25 0 6.503-5.703 10.605-10.957 10.605-5.609 0-9.211-3.504-10.664-7.5l4.305-2.555c1.101 2.098 2.558 4.899 6.359 4.899 3.098 0 5.348-1.946 5.348-4.653 0-2.05-0.797-3.492-2.453-4.5l-7.649-4.546c-2.461-1.454-4.105-3.997-4.105-7.606 0-6.445 5.703-9.555 9.761-9.555 0.95 0 1.946 0.153 2.453 0.305zm51.051-1.805v6.609h-0.199c-0.848-1.359-3.098-2.707-5.856-2.707-5.457 0-9.867 4.348-9.867 9.856 0 5.402 4.363 9.844 9.563 9.844 3.062 0 5.511-2.145 6.113-3.141h0.246v2.742h5.406v-28.105h-18.523v4.902zm-19.418-3.051v30.157h19.922v4.851h-25.281v-35.008zm13.656 21.754c-2.851 0-5.101-2.203-5.101-5.051 0-2.894 2.156-5.097 5.101-5.097 2.957 0 5.113 2.203 5.113 5.004 0 2.941-2.156 5.144-5.113 5.144zm44.453-22.258c2.555 15.86-5.258 28.657-14.968 35.512h-4.352l-11.371-33.953 5.668-1.453 9.656 29.16c5.805-4.207 12.012-15.105 10.016-28.164zm22.977 5.512v8.695h-0.258c-1.301-1.195-3.894-2.695-7.309-2.695-6.757 0-12.257 5.449-12.257 12.246 0 6.75 5.453 12.258 12.257 12.258 3.907 0 6.559-2.156 7.262-3.258h0.305v2.754h5.504v-35.008h-23.184v5.008zm-7.367 25.395c-4.047 0-7.25-3.246-7.25-7.301 0-4.043 3.156-7.301 7.25-7.301 4.011 0 7.215 3.258 7.215 7.254 0 4.102-3.204 7.348-7.215 7.348zm41.8-5.45 0.352 1.899-0.094 0.058-16.472-26.91h-6.711v35.008h5.504v-25.547l-0.293-1.359 0.152-0.047 16.363 26.953h6.711v-35.008h-5.512zm24.426-25.457c-5.363 0-9.715 1.606-12.918 3.965v31.547h20.473c8.164-4.5 10.312-10.746 10.312-17.098 0-10.359-6.711-18.414-17.867-18.414zm-7.414 30.508v-23.543c1.91-1.254 4.41-1.957 7.414-1.957 7.356 0 12.258 5.356 12.258 13.406 0 5.45-1.852 9.247-6.301 12.094zm30.59 5.004h24.023v-5.004h-18.523v-8.25l0.152-0.152c1.551 1.16 4.059 2.308 7.063 2.308 6.558 0 12.105-5.203 12.105-11.953 0-6.797-5.453-12.461-12.257-12.461-5.36 0-12.715 3.754-12.668 14.207zm12.363-30.351c3.953 0 7.203 3.246 7.203 7.3 0 3.95-3.25 7.196-7.203 7.196s-7.156-3.246-7.156-7.196c0-4.054 3.203-7.3 7.156-7.3z" clip-path="url(#clipPath55)"/>
 </g>
</svg>
