<!-- Created with Inkscape (http://www.inkscape.org/) -->
<svg id="svg1" width="1274.7" height="904" sodipodi:docname="pdb_presentation_biarnesa_mde.pdf" version="1.1" viewBox="0 0 1274.7 904" xmlns="http://www.w3.org/2000/svg" xmlns:inkscape="http://www.inkscape.org/namespaces/inkscape" xmlns:sodipodi="http://sodipodi.sourceforge.net/DTD/sodipodi-0.dtd" xmlns:xlink="http://www.w3.org/1999/xlink">
 <defs id="defs1">
  <clipPath id="clipPath91">
   <path id="path91" transform="matrix(1 0 0 -1.001 -2.5e-5 0)" d="m0 0h956v678h-956z"/>
  </clipPath>
  <clipPath id="clipPath93">
   <path id="path93" transform="matrix(1.3333 0 0 1.3333 9062.7 0)" d="m50.938 213.07h842.78v426.1h-842.78z"/>
  </clipPath>
  <clipPath id="clipPath95">
   <path id="path95" transform="matrix(1 0 0 -1.001 -2.5e-5 0)" d="m50.938 213.07h842.78v426.1h-842.78z"/>
  </clipPath>
  <clipPath id="clipPath97">
   <path id="path97" transform="matrix(1 0 0 -1.001 -2.5e-5 0)" d="m50.938 213.07h842.78v426.1h-842.78z"/>
  </clipPath>
  <clipPath id="clipPath99">
   <path id="path99" transform="matrix(1 0 0 -1.001 -2.5e-5 0)" d="m50.938 213.07h842.78v426.1h-842.78z"/>
  </clipPath>
  <clipPath id="clipPath101">
   <path id="path101" transform="matrix(1 0 0 -1.001 -2.5e-5 0)" d="m50.938 213.07h842.78v426.1h-842.78z"/>
  </clipPath>
  <clipPath id="clipPath102">
   <path id="path102" transform="matrix(1 0 0 -1.001 -2.5e-5 0)" d="m0 0h956v678h-956z"/>
  </clipPath>
  <clipPath id="clipPath104">
   <path id="path104" transform="matrix(1.3333 0 0 1.3333 9062.7 0)" d="m50.938 213.07h842.78v426.1h-842.78z"/>
  </clipPath>
  <clipPath id="clipPath105">
   <path id="path105" transform="matrix(1 0 0 -1.001 -2.5e-5 0)" d="m0 0h956v678h-956z"/>
  </clipPath>
  <clipPath id="clipPath107">
   <path id="path107" transform="matrix(1.3333 0 0 1.3333 9062.7 0)" d="m50.938 213.07h842.78v426.1h-842.78z"/>
  </clipPath>
  <clipPath id="clipPath108">
   <path id="path108" transform="matrix(1 0 0 -1.001 -2.5e-5 0)" d="m0 0h956v678h-956z"/>
  </clipPath>
  <clipPath id="clipPath110">
   <path id="path110" transform="matrix(1.3333 0 0 1.3333 9062.7 0)" d="m50.938 213.07h842.78v426.1h-842.78z"/>
  </clipPath>
  <clipPath id="clipPath111">
   <path id="path111" transform="matrix(1 0 0 -1.001 -2.5e-5 0)" d="m0 0h956v678h-956z"/>
  </clipPath>
  <clipPath id="clipPath113">
   <path id="path113" transform="matrix(1.3333 0 0 1.3333 9062.7 0)" d="m50.938 213.07h842.78v426.1h-842.78z"/>
  </clipPath>
  <clipPath id="clipPath114">
   <path id="path114" transform="matrix(1 0 0 -1.001 -2.5e-5 0)" d="m0 0h956v678h-956z"/>
  </clipPath>
  <clipPath id="clipPath116">
   <path id="path116" transform="matrix(1.3333 0 0 1.3333 9062.7 0)" d="m50.938 213.07h842.78v426.1h-842.78z"/>
  </clipPath>
  <clipPath id="clipPath117">
   <path id="path117" transform="matrix(1 0 0 -1.001 -2.5e-5 0)" d="m0 0h956v678h-956z"/>
  </clipPath>
  <clipPath id="clipPath119">
   <path id="path119" transform="matrix(1.3333 0 0 1.3333 9062.7 0)" d="m50.938 213.07h842.78v426.1h-842.78z"/>
  </clipPath>
  <clipPath id="clipPath120">
   <path id="path120" transform="matrix(1 0 0 -1.001 -2.5e-5 0)" d="m0 0h956v678h-956z"/>
  </clipPath>
  <clipPath id="clipPath122">
   <path id="path122" transform="matrix(1.3333 0 0 1.3333 9062.7 0)" d="m50.938 213.07h842.78v426.1h-842.78z"/>
  </clipPath>
  <clipPath id="clipPath123">
   <path id="path123" transform="matrix(1 0 0 -1.001 -2.5e-5 0)" d="m0 0h956v678h-956z"/>
  </clipPath>
  <clipPath id="clipPath125">
   <path id="path125" transform="matrix(1.3333 0 0 1.3333 9062.7 0)" d="m50.938 213.07h842.78v426.1h-842.78z"/>
  </clipPath>
  <clipPath id="clipPath126">
   <path id="path126" transform="matrix(1 0 0 -1.001 -2.5e-5 0)" d="m0 0h956v678h-956z"/>
  </clipPath>
  <clipPath id="clipPath128">
   <path id="path128" transform="matrix(1.3333 0 0 1.3333 9062.7 0)" d="m50.938 213.07h842.78v426.1h-842.78z"/>
  </clipPath>
  <clipPath id="clipPath130">
   <path id="path130" transform="matrix(1 0 0 -1.001 -2.5e-5 0)" d="m50.938 213.07h842.78v426.1h-842.78z"/>
  </clipPath>
 </defs>
 <sodipodi:namedview id="namedview1" bordercolor="#666666" borderopacity="1.0" inkscape:deskcolor="#d1d1d1" inkscape:pagecheckerboard="0" inkscape:pageopacity="0.0" inkscape:showpageshadow="2" pagecolor="#ffffff">
  <inkscape:page id="page87" x="0" y="0" width="1274.6667" height="904" bleed="0" inkscape:label="44" margin="0"/>
 </sodipodi:namedview>
 <g id="g87" transform="translate(-9062.7)" inkscape:groupmode="layer" inkscape:label="44">
  <rect id="rect232-3-7-5" x="9062.7" y="-1.13e-5" width="1274.7" height="904" fill="#fff" stroke-dashoffset="34.016" stroke-linecap="round" stroke-linejoin="round" stroke-width="1.1792" style="paint-order:markers stroke fill"/>
  <path id="path88" transform="matrix(1.3333 0 0 1.3333 9062.7 0)" d="m32.18 21.742-10.414-10.402-10.414 10.402 1.488 1.485 8.926-8.915 7.437 7.43-7.437 7.43-1.489-1.484 5.95-5.946-1.489-1.484-5.949 5.941-1.488-1.484 5.953-5.945-1.488-1.485-7.438 7.43 7.438 7.43z" fill="#323232"/>
  <path id="path90" transform="matrix(1.3333 0 0 1.3333 9062.7 0)" d="m220.05 243.98v30.047h15.765v5.004h-21.265v-35.051zm22.183-2.05c-0.257-0.047-0.503-0.106-0.808-0.106h-0.152c-2.254 0-3.848 1.606-3.954 3.809-0.093 2.144 1.559 3.949 3.707 4.148-0.597 2.848-3.156 4.453-4.199 4.946l1.641 2.156c4.562-2.156 7.308-5.602 7.308-9.504 0-3.199-1.394-4.945-3.543-5.449zm6.856 3 1.242 4.851 18.524-4.957-1.254-4.851zm0.75 34.148h17.621v-4.898h-12.32v-5.25l0.152-0.153c1.199 1.254 2.746 1.758 4.246 1.758 5.059 0 9.27-4.055 9.27-9.258 0-5.25-4.211-9.644-9.364-9.644-4.105 0-9.664 2.894-9.664 10.851zm9.359-22.5c2.5 0 4.555 2.051 4.555 4.606 0 2.449-2.055 4.5-4.555 4.5-2.461 0-4.457-2.051-4.457-4.5 0-2.555 1.996-4.606 4.457-4.606zm20.266 10.301v12.152h-5.504v-35.004h12.871c6.356 0 11.414 5.051 11.414 11.403 0 6.304-5.117 11.449-11.414 11.449zm6.965-5.004c3.402 0 6.207-2.941 6.207-6.398 0-3.493-2.758-6.446-6.207-6.446h-6.965v12.844zm15.558-17.848h5.504v14.907h16.176v-14.907h5.504v35.004h-5.504v-15.105h-16.176v15.105h-5.504zm33.387 0.352 18.524 4.945 1.253-4.84-18.523-4.957zm-0.644 34.699h17.617v-4.898h-12.317v-5.25l0.153-0.153c1.195 1.254 2.746 1.758 4.246 1.758 5.058 0 9.269-4.055 9.269-9.258 0-5.25-4.211-9.644-9.363-9.644-4.105 0-9.664 2.894-9.664 10.851zm9.359-22.5c2.5 0 4.551 2.051 4.551 4.606 0 2.449-2.051 4.5-4.551 4.5-2.465 0-4.457-2.051-4.457-4.5 0-2.555 1.992-4.606 4.457-4.606zm33.629 3.399c3.105-1.102 5.055-3.493 5.055-7.149 0-5.601-4.247-8.801-10.454-8.801h-12.668v35.004h14.465c6.203 0 10.91-4.301 10.91-10.453 0-4.242-2.652-7.348-7.308-8.601zm-5.703-10.946c2.652 0 5.258 1.102 5.304 4.395-0.046 3.304-2.652 4.652-5.304 4.652h-6.864v-9.047zm-6.864 24.996v-10.945h8.965c2.953 0 5.559 1.898 5.559 5.496 0 3.352-2.606 5.449-5.559 5.449zm25.082 5.004h24.024v-5.004h-18.524v-8.25l0.157-0.152c1.547 1.16 4.058 2.309 7.058 2.309 6.559 0 12.11-5.204 12.11-11.954 0-6.796-5.457-12.457-12.262-12.457-5.359 0-12.715 3.75-12.668 14.204zm12.364-30.351c3.953 0 7.203 3.246 7.203 7.3 0 3.95-3.25 7.196-7.203 7.196s-7.156-3.246-7.156-7.196c0-4.054 3.203-7.3 7.156-7.3zm47.496 17.25 10.969-21.903h6.25v35.004h-5.5v-26.402h-0.2l-9.515 20.203h-4.305l-9.516-20.203h-0.199v26.402h-5.5v-35.004h6.207l11.11 21.903zm39.39 13.605c9.821 0 17.68-7.851 17.68-18 0-10.16-7.859-18.012-17.68-18.012-9.804 0-17.664 7.852-17.664 18.012 0 10.149 7.86 18 17.664 18zm0-5.109c-6.25 0-12.058-4.899-12.058-12.891 0-8.004 5.808-12.902 12.058-12.902 6.266 0 12.075 4.898 12.075 12.902 0 7.992-5.809 12.891-12.075 12.891zm22.926 4.605h23.629v-35.004h-5.504v12.352c0 4.101-3.402 6.656-6.758 6.656-3.859 0-7.062-3.211-7.062-7.101l-0.047-11.907h-5.512l0.059 11.907c0.047 7.101 5.453 12 11.859 12 3.25 0 5.762-1.207 7.157-2.157h0.304v8.25h-18.125zm29.235 0h24.027v-5.004h-18.523v-8.25l0.152-0.152c1.547 1.16 4.058 2.309 7.062 2.309 6.555 0 12.106-5.204 12.106-11.954 0-6.796-5.457-12.457-12.258-12.457-5.363 0-12.719 3.75-12.672 14.204zm12.363-30.351c3.957 0 7.203 3.246 7.203 7.3 0 3.95-3.246 7.196-7.203 7.196-3.953 0-7.152-3.246-7.152-7.196 0-4.054 3.199-7.3 7.152-7.3zm39.887 20.297 0.351 1.898-0.094 0.059-16.468-26.907h-6.711v35.004h5.504v-25.547l-0.297-1.359 0.152-0.047 16.367 26.953h6.711v-35.004h-5.515zm28.382-4.946v-5.051h-18.875v5.051zm2.504-19.054 2.098 4.605 10.16-4.207 10.172 4.207 2.098-4.605-12.27-5.004zm16.164 10.851v6.551h-0.199c-0.844-1.195-3.097-2.555-5.851-2.555-5.457 0-9.868 4.36-9.868 9.856 0 5.402 4.364 9.855 9.559 9.855 3.063 0 5.516-2.156 6.113-3h0.246v2.496h5.411v-28.101h-18.524v4.898zm-5.898 18.656c-2.758 0-4.965-2.156-4.965-4.898 0-2.801 2.113-4.957 4.965-4.957 2.695 0 4.797 2.156 4.797 4.851 0 2.848-2.102 5.004-4.797 5.004zm45.246-3.609c-1.949 2.461-5.41 3.656-8.859 3.656-7.012 0-12.516-5.801-12.516-12.949 0-7.406 5.504-13.055 12.516-13.055 4.25 0 8.261 2.297 10.558 5.801l4.352-2.449c-2.953-5.004-8.61-8.356-14.91-8.356-10.016 0-18.121 8.11-18.121 18.059 0 10.148 8.011 18.047 17.722 18.047 6.254 0 11.91-2.742 14.758-7.5v-10.805h-14.91v5.004h9.41zm10.66 8.156h24.024v-5.004h-18.524v-8.25l0.153-0.152c1.55 1.16 4.062 2.309 7.062 2.309 6.559 0 12.109-5.204 12.109-11.954 0-6.796-5.457-12.457-12.261-12.457-5.36 0-12.715 3.75-12.668 14.204zm12.363-30.351c3.954 0 7.204 3.246 7.204 7.3 0 3.95-3.25 7.196-7.204 7.196-3.953 0-7.156-3.246-7.156-7.196 0-4.054 3.203-7.3 7.156-7.3zm35.336 2.297 2.957-1.7-2.007-3.445-2.957 1.699-3.051 3.094 1.199-4.195v-3.399h-4v3.399l1.195 4.195-3.05-3.094-2.957-1.699-1.993 3.445 2.957 1.7 4.247 1.054-4.247 1.102-2.957 1.699 1.993 3.445 2.957-1.699 3.05-3.094-1.195 4.196v3.398h4v-3.398l-1.199-4.196 3.051 3.094 2.957 1.699 2.007-3.445-2.957-1.699-4.257-1.102zm-515.9 78.062c0 5.801 4.508 10.5 10.512 10.5 6.465 0 11.109-4.758 11.109-10.758 0-6.047-5.055-10.101-10.863-10.101v-0.399l7.965-11.695-4.457-3.059-11.11 16.758c-1.652 2.543-3.156 5.449-3.156 8.754zm10.711 5.344c-3.004 0-5.406-2.403-5.406-5.543 0-3.106 2.25-5.309 5.312-5.309 3.145 0 5.61 2.449 5.61 5.403 0 3-2.465 5.449-5.516 5.449zm63.676-8.754c1.547 1.16 4.058 2.309 7.062 2.309 6.555 0 12.106-5.204 12.106-11.954 0-6.796-5.457-12.457-12.262-12.457-3.754 0-8.516 1.852-10.965 6.61-3.203-4.055-8.156-6.61-13.762-6.61-9.808 0-17.668 7.852-17.668 18.012 0 10.149 7.86 18 17.668 18 4.704 0 9.008-1.805 12.164-4.851v4.347h23.829v-5.004h-18.325v-8.25zm-17.821 8.801c-6.254 0-12.058-4.899-12.058-12.891 0-8.004 5.746-12.902 12.058-12.902 6.254 0 12.059 4.898 12.059 12.902 0 7.992-5.805 12.891-12.059 12.891zm24.422-25.594c3.907 0 7.063 3.199 7.063 7.148 0 3.844-3.156 7.055-7.063 7.055-3.847 0-7-3.211-7-7.055 0-3.949 3.153-7.148 7-7.148zm41.543 15.703c0.153 10.899-5.652 15-12.914 15-7.25 0-13.058-4.101-12.918-15v-20.508h5.516v20.508c-0.106 6.492 2.699 9.891 7.402 9.891 4.856 0 7.508-3.399 7.414-9.891v-20.508h5.5zm5.508-20.555h22.277v5.004h-16.777v9.598h15.273v4.992h-15.273v15.457h-5.5zm37.395 4.899c-0.305-0.106-1.008-0.199-1.454-0.199-2.71 0-4.308 1.945-4.308 3.843 0 1.711 0.848 2.801 2.148 3.61l7.262 4.547c3.309 2.05 5.102 4.546 5.102 8.25 0 6.504-5.7 10.605-10.957 10.605-5.606 0-9.207-3.504-10.665-7.5l4.309-2.555c1.102 2.098 2.555 4.899 6.356 4.899 3.097 0 5.351-1.945 5.351-4.653 0-2.05-0.797-3.492-2.453-4.5l-7.648-4.546c-2.465-1.454-4.106-3.996-4.106-7.606 0-6.445 5.703-9.551 9.762-9.551 0.949 0 1.945 0.153 2.449 0.305zm26.273-4.899h22.277v5.004h-16.777v9.598h15.273v4.992h-15.273v15.457h-5.5zm52.008 10.395c0-5.742-4.656-10.348-10.371-10.348h-15.016v35.004h5.516v-14.203h6.605l8.305 14.648 4.551-2.648-7.203-12.398c4.398-1.196 7.613-5.25 7.613-10.055zm-10.77-5.344c2.957 0 5.258 2.449 5.258 5.403 0 2.941-2.348 5.39-5.258 5.39h-9.101v-10.793zm33.844 0v8.695h-0.262c-1.3-1.195-3.894-2.695-7.304-2.695-6.758 0-12.262 5.449-12.262 12.246 0 6.75 5.457 12.258 12.262 12.258 3.906 0 6.554-2.156 7.257-3.258h0.309v2.754h5.5v-35.004h-23.18v5.004zm-7.367 25.395c-4.051 0-7.25-3.246-7.25-7.301 0-4.043 3.152-7.301 7.25-7.301 4.012 0 7.215 3.258 7.215 7.254 0 4.102-3.203 7.348-7.215 7.348zm22.676-24.094c2.203 0 3.953-1.758 3.953-3.902 0-2.204-1.75-3.95-3.953-3.95-2.196 0-3.953 1.746-3.953 3.95 0 2.144 1.757 3.902 3.953 3.902zm-2.746 2.695h5.5v26.004h-5.5zm23.175-4.148c-0.304-0.106-1.011-0.199-1.457-0.199-2.707 0-4.304 1.945-4.304 3.843 0 1.711 0.843 2.801 2.148 3.61l7.262 4.547c3.308 2.05 5.101 4.546 5.101 8.25 0 6.504-5.699 10.605-10.957 10.605-5.605 0-9.207-3.504-10.664-7.5l4.305-2.555c1.105 2.098 2.559 4.899 6.359 4.899 3.098 0 5.352-1.945 5.352-4.653 0-2.05-0.801-3.492-2.453-4.5l-7.649-4.546c-2.465-1.454-4.105-3.996-4.105-7.606 0-6.445 5.699-9.551 9.758-9.551 0.953 0 1.949 0.153 2.453 0.305zm27.02 30.152h5.656v-35.754l-5.656 1.746zm15.019-6.105c-0.25-0.047-0.507-0.094-0.8-0.094h-0.153c-2.25 0-3.859 1.594-3.953 3.797-0.105 2.156 1.551 3.949 3.707 4.148-0.609 2.86-3.156 4.453-4.211 4.957l1.656 2.145c4.551-2.145 7.309-5.602 7.309-9.492 0-3.211-1.398-4.957-3.555-5.461zm25.973-10.149c1.961-2.402 3.203-5.449 3.203-8.742 0-5.801-4.551-10.512-10.711-10.512-6.554 0-11.308 4.758-11.308 10.758 0 6.047 5.164 10.102 10.91 10.102v0.398l-11.262 14.25h21.375v-5.004h-11.215zm-13.359-8.648c0-3.047 2.496-5.496 5.652-5.496 3.109 0 5.563 2.39 5.563 5.601 0 3.141-2.301 5.344-5.457 5.344-3.262 0-5.758-2.449-5.758-5.449zm44.953 20.508c-4.762 0-8.813-2.602-10.922-6.551h12.316v-4.008h-13.711c-0.156-0.797-0.203-1.652-0.203-2.496 0-0.352 0-0.656 0.047-1.008h16.367v-4.5h-15.308c1.945-4.5 6.297-7.547 11.414-7.547 4.246 0 8.258 2.297 10.558 5.801l4.352-2.449c-2.957-5.004-8.609-8.356-14.91-8.356-8.059 0-14.922 5.309-17.27 12.551h-3.355v4.5h2.547c-0.047 0.352-0.047 0.656-0.047 1.008 0 0.844 0.047 1.699 0.152 2.496h-2.652v4.008h3.695c2.664 6.75 9.223 11.543 16.93 11.543 6.301 0 11.953-3.352 14.91-8.344l-4.352-2.449c-2.3 3.492-6.312 5.801-10.558 5.801zm30.426 3.644 11.921-35.004 4.903 1.547-11.66 35.004zm35.086 0.75h5.656v-35.754l-5.656 1.746zm42.75-27h-12.52v-3h12.52v-5.004h-30.493v5.004h12.625v3h-12.625v5.004h12.625v21.996h5.348v-21.996h12.52zm0 8.004h-5.106v18.996h5.106zm-2.559 22.195c-1.645 0-3.051 1.348-3.051 3.047 0 1.653 1.406 3 3.051 3 1.699 0 3.062-1.347 3.062-3 0-1.699-1.363-3.047-3.062-3.047zm-461.28 108.64c-1.946 2.461-5.407 3.656-8.856 3.656-7.015 0-12.515-5.801-12.515-12.949 0-7.406 5.5-13.055 12.515-13.055 4.246 0 8.258 2.297 10.559 5.801l4.351-2.449c-2.957-5.004-8.609-8.356-14.91-8.356-10.019 0-18.125 8.11-18.125 18.059 0 10.148 8.012 18.047 17.727 18.047 6.254 0 11.906-2.742 14.758-7.5v-10.805h-14.911v5.004h9.407zm29.383-21.844v8.695h-0.258c-1.305-1.195-3.895-2.695-7.309-2.695-6.758 0-12.262 5.449-12.262 12.246 0 6.75 5.457 12.258 12.262 12.258 3.906 0 6.559-2.156 7.262-3.258h0.305v2.754h5.5v-35.004h-23.18v5.004zm-7.368 25.395c-4.047 0-7.25-3.246-7.25-7.301 0-4.043 3.157-7.301 7.25-7.301 4.012 0 7.215 3.258 7.215 7.254 0 4.102-3.203 7.348-7.215 7.348zm64.825-15.492h-9.313c-1.504-6.2-4.504-10.911-9.809-15.551l-3.8 3.398c7.004 6.199 9.656 13.149 9.316 24.246h5.453c0-2.543-0.105-4.945-0.351-7.101h8.504v15.105h5.503v-35.004h-5.503zm-45.95-14.907v35.004h5.5v-27l-0.14-1.055 0.093-0.046 15.418 28.101 17.172 0.047v-5.051h-13.511l-16.473-30zm29.739 21.399c0-1.899-1.5-3.399-3.414-3.399-1.903 0-3.403 1.5-3.403 3.399 0 1.851 1.5 3.351 3.403 3.351 1.914 0 3.414-1.5 3.414-3.351zm30.769-20.543 18.524 4.945 1.257-4.852-18.523-4.945zm9.012 34.652c7.508 0 13.57-5.953 13.57-13.758 0-7.793-6.062-13.746-13.57-13.746s-13.563 5.953-13.563 13.746c0 7.805 6.055 13.758 13.563 13.758zm0-5.051c-4.403 0-8.262-3.351-8.262-8.707 0-5.343 3.859-8.695 8.262-8.695 4.41 0 8.258 3.352 8.258 8.695 0 5.356-3.848 8.707-8.258 8.707zm43.308-20.109c0-5.742-4.66-10.348-10.371-10.348h-15.015v35.004h5.511v-14.203h6.606l8.305 14.648 4.55-2.648-7.199-12.398c4.399-1.196 7.613-5.25 7.613-10.055zm-10.769-5.344c2.953 0 5.254 2.449 5.254 5.403 0 2.941-2.348 5.39-5.254 5.39h-9.106v-10.793zm33.383 30.903s2.453 0.996 2.453 4.101c0 2.402-1.902 4.992-5.703 4.992-2.207 0-3.907-0.644-4.352-1.09l0.949-4.453s1.457 1.242 3.356 1.242c1.797 0 2.746-0.597 2.746-1.792 0-2.098-3.449-2.801-7.508-4.407-4.801-1.945-11.308-6.902-11.308-16.453 0-10.699 7.66-18.797 17.925-18.797 6.754 0 11.555 3.399 14.711 8.801l-4.554 2.707c-2.051-4.16-5.512-6.609-10.157-6.609-7.461 0-12.672 6-12.672 13.406 0 7.254 5.258 13.301 12.672 13.301 6.004 0 8.856-4.055 10.157-6.598l4.554 2.695c-3.051 5.403-8.156 8.555-13.269 8.696zm35.543-30.903v8.695h-0.258c-1.305-1.195-3.895-2.695-7.309-2.695-6.758 0-12.261 5.449-12.261 12.246 0 6.75 5.457 12.258 12.261 12.258 3.907 0 6.559-2.156 7.262-3.258h0.305v2.754h5.5v-35.004h-23.18v5.004zm-7.368 25.395c-4.046 0-7.25-3.246-7.25-7.301 0-4.043 3.157-7.301 7.25-7.301 4.012 0 7.215 3.258 7.215 7.254 0 4.102-3.203 7.348-7.215 7.348zm74.086-15.492h-11.769c-0.246-5.356-1.547-10.653-4-15.809l-5.406 2.051c4.058 8.8 5.054 17.554 2.297 26.707l-15.262-27.856h-8.059v35.004h5.504v-27l-0.141-1.055 0.094-0.046 15.414 28.101 5.254 0.047c2.406-4.992 3.813-10.102 4.211-15.152h11.863v15.105h5.5v-35.004h-5.5zm29.832-9.903v8.695h-0.257c-1.301-1.195-3.895-2.695-7.309-2.695-6.758 0-12.258 5.449-12.258 12.246 0 6.75 5.453 12.258 12.258 12.258 3.906 0 6.559-2.156 7.262-3.258h0.304v2.754h5.504v-35.004h-23.179v5.004zm-7.367 25.395c-4.047 0-7.25-3.246-7.25-7.301 0-4.043 3.157-7.301 7.25-7.301 4.012 0 7.215 3.258 7.215 7.254 0 4.102-3.203 7.348-7.215 7.348zm17.375-12.844c0 9.949 8.106 18.047 18.125 18.047 6.301 0 11.953-3.352 14.91-8.344l-4.351-2.449c-2.301 3.398-6.313 5.695-10.559 5.695-7.015 0-12.515-5.555-12.515-12.949 0-7.406 5.5-12.949 12.515-12.949 4.246 0 8.258 2.297 10.559 5.695l4.351-2.449c-2.957-5.004-8.609-8.356-14.91-8.356-10.019 0-18.125 8.11-18.125 18.059zm55.614-12.551v8.695h-0.258c-1.305-1.195-3.899-2.695-7.309-2.695-6.758 0-12.262 5.449-12.262 12.246 0 6.75 5.457 12.258 12.262 12.258 3.906 0 6.555-2.156 7.258-3.258h0.309v2.754h5.5v-35.004h-23.18v5.004zm-7.368 25.395c-4.05 0-7.25-3.246-7.25-7.301 0-4.043 3.153-7.301 7.25-7.301 4.012 0 7.215 3.258 7.215 7.254 0 4.102-3.203 7.348-7.215 7.348zm31.789-30.903c-5.359 0-9.711 1.606-12.914 3.961v31.547h20.469c8.164-4.5 10.313-10.746 10.313-17.097 0-10.36-6.711-18.411-17.868-18.411zm-7.414 30.504v-23.543c1.914-1.254 4.411-1.957 7.414-1.957 7.356 0 12.258 5.356 12.258 13.407 0 5.449-1.851 9.246-6.297 12.093zm49.313-24.996v8.695h-0.258c-1.301-1.195-3.894-2.695-7.309-2.695-6.757 0-12.257 5.449-12.257 12.246 0 6.75 5.453 12.258 12.257 12.258 3.907 0 6.559-2.156 7.262-3.258h0.305v2.754h5.5v-35.004h-23.18v5.004zm-7.367 25.395c-4.047 0-7.25-3.246-7.25-7.301 0-4.043 3.156-7.301 7.25-7.301 4.011 0 7.215 3.258 7.215 7.254 0 4.102-3.204 7.348-7.215 7.348zm-512.59 52.453v12.152h-5.504v-35.004h12.871c6.356 0 11.414 5.051 11.414 11.403 0 6.304-5.117 11.449-11.414 11.449zm6.969-5.004c3.398 0 6.203-2.941 6.203-6.399 0-3.492-2.758-6.445-6.203-6.445h-6.969v12.844zm33.878-12.844v8.695h-0.257c-1.301-1.195-3.895-2.695-7.309-2.695-6.754 0-12.258 5.449-12.258 12.246 0 6.75 5.457 12.258 12.258 12.258 3.906 0 6.559-2.156 7.262-3.258h0.304v2.754h5.504v-35.004h-23.179v5.004zm-7.367 25.395c-4.047 0-7.25-3.246-7.25-7.301 0-4.043 3.157-7.301 7.25-7.301 4.016 0 7.215 3.258 7.215 7.254 0 4.102-3.199 7.348-7.215 7.348zm22.68-24.094c2.203 0 3.953-1.758 3.953-3.902 0-2.204-1.75-3.95-3.953-3.95-2.195 0-3.957 1.746-3.957 3.95 0 2.144 1.762 3.902 3.957 3.902zm-2.746 2.695h5.5v26.004h-5.5zm37.793 1.348c0-5.742-4.66-10.348-10.371-10.348h-15.016v35.004h5.512v-14.203h6.605l8.305 14.648 4.551-2.648-7.203-12.398c4.402-1.196 7.617-5.25 7.617-10.055zm-10.77-5.344c2.953 0 5.254 2.449 5.254 5.403 0 2.941-2.347 5.39-5.254 5.39h-9.105v-10.793zm15.118 30h24.023v-5.004h-18.523v-8.25l0.152-0.152c1.551 1.16 4.062 2.309 7.062 2.309 6.559 0 12.11-5.204 12.11-11.954 0-6.796-5.457-12.457-12.262-12.457-5.359 0-12.715 3.75-12.668 14.203zm12.363-30.351c3.953 0 7.203 3.246 7.203 7.3 0 3.95-3.25 7.196-7.203 7.196s-7.156-3.246-7.156-7.196c0-4.054 3.203-7.3 7.156-7.3zm55.906 7.851c0 4.793-0.797 8.555-3.555 12.047l-6.851-7.945c3.297-1.653 6.301-4.559 6.301-8.356 0-5.402-3.649-8.754-9.059-8.754-5.008 0-9.055 4.254-9.055 8.953 0 2.754 2.051 5.25 3.602 6.856-4.305 1.5-9.211 4.852-9.211 9.902 0 4.547 3.848 9.797 12.062 9.797 4.563 0 8.211-1.301 11.168-3.445l3.153 3.644 4.097-3.504-3.343-3.492c4.199-4.453 5.453-9.703 5.547-15.656zm-12.965-8.051c2.055 0 3.66 1.5 3.66 3.551 0 2.004-2.109 3.75-4.609 4.746-1.301-1.547-2.652-2.894-2.652-4.746 0-2.051 1.55-3.551 3.601-3.551zm-9.406 20.25c0-3.246 3.051-4.746 6.758-5.906l7.953 9.211c-2.195 1.149-4.848 1.84-7.906 1.84-3.45 0-6.805-1.547-6.805-5.145zm47.148-24.703h5.504v14.907h16.176v-14.907h5.504v35.004h-5.504v-15.105h-16.176v15.105h-5.504zm36.989 6.305c2.203 0 3.953-1.758 3.953-3.902 0-2.204-1.75-3.95-3.953-3.95-2.196 0-3.957 1.746-3.957 3.95 0 2.144 1.761 3.902 3.957 3.902zm-2.746 2.695h5.5v26.004h-5.5zm43.492 5.907h-9.313c-1.504-6.2-4.508-10.911-9.808-15.551l-3.801 3.398c7.004 6.199 9.652 13.149 9.301 24.246h5.468c0-2.543-0.105-4.945-0.351-7.101h8.504v15.105h5.504v-35.004h-5.504zm-30.934-14.954v35.051h25.785v-5.004h-20.285v-30.047zm55.059 35.051h24.027v-5.004h-18.523v-8.25l0.152-0.152c1.547 1.16 4.059 2.309 7.059 2.309 6.558 0 12.109-5.204 12.109-11.954 0-6.796-5.457-12.457-12.262-12.457-5.359 0-12.715 3.75-12.668 14.203zm12.363-30.351c3.953 0 7.203 3.246 7.203 7.3 0 3.95-3.25 7.196-7.203 7.196s-7.156-3.246-7.156-7.196c0-4.054 3.203-7.3 7.156-7.3zm33.727-4.149v20.555h13.621v4.992h-19.625v-25.547zm-10.754 3.492v26.004h17.863v5.004h-23.871v-31.008zm27.48 31.008h24.028v-5.004h-18.524v-8.25l0.152-0.152c1.547 1.16 4.059 2.309 7.063 2.309 6.555 0 12.105-5.204 12.105-11.954 0-6.796-5.457-12.457-12.257-12.457-5.364 0-12.719 3.75-12.672 14.203zm12.367-30.351c3.953 0 7.203 3.246 7.203 7.3 0 3.95-3.25 7.196-7.203 7.196s-7.156-3.246-7.156-7.196c0-4.054 3.203-7.3 7.156-7.3zm29.575 30.351h24.027v-5.004h-18.523v-8.25l0.152-0.152c1.547 1.16 4.058 2.309 7.062 2.309 6.559 0 12.106-5.204 12.106-11.954 0-6.796-5.453-12.457-12.258-12.457-5.363 0-12.719 3.75-12.672 14.203zm12.367-30.351c3.953 0 7.203 3.246 7.203 7.3 0 3.95-3.25 7.196-7.203 7.196s-7.156-3.246-7.156-7.196c0-4.054 3.203-7.3 7.156-7.3zm27.383 21.445h17.621v-4.899h-12.321v-6.246l0.153-0.152c1.199 1.254 2.746 1.746 4.246 1.746 5.058 0 9.269-4.043 9.269-9.246 0-5.25-4.211-9.644-9.363-9.644-4.105 0-9.664 2.894-9.664 10.839zm-5.012-26.145v30.153h19.875v4.898h-25.281v-35.051zm14.359 2.649c2.512 0 4.567 2.051 4.567 4.605 0 2.45-2.055 4.5-4.567 4.5-2.449 0-4.445-2.05-4.445-4.5 0-2.554 1.996-4.605 4.445-4.605zm31.633 19.301 10.969-21.903h6.254v35.004h-5.5v-26.402h-0.203l-9.512 20.203h-4.305l-9.515-20.203h-0.2v26.402h-5.5v-35.004h6.203l11.11 21.903zm22.832 13.101h24.024v-5.004h-18.524v-8.25l0.152-0.152c1.547 1.16 4.059 2.309 7.063 2.309 6.559 0 12.105-5.204 12.105-11.954 0-6.796-5.453-12.457-12.257-12.457-5.364 0-12.719 3.75-12.672 14.203zm12.363-30.351c3.953 0 7.203 3.246 7.203 7.3 0 3.95-3.25 7.196-7.203 7.196s-7.156-3.246-7.156-7.196c0-4.054 3.203-7.3 7.156-7.3zm39.887 20.296 0.352 1.899-0.094 0.059-16.469-26.907h-6.711v35.004h5.504v-25.547l-0.293-1.359 0.153-0.047 16.363 26.953h6.711v-35.004h-5.516zm36.797-24.949h-28.039v5.004h11.262v30h5.515v-30h11.262zm-606.19 95.004h24.023v-5.004h-18.523v-8.25l0.152-0.152c1.551 1.16 4.062 2.309 7.062 2.309 6.559 0 12.11-5.204 12.11-11.954 0-6.796-5.457-12.457-12.262-12.457-5.359 0-12.715 3.75-12.668 14.203zm12.363-30.351c3.953 0 7.203 3.246 7.203 7.3 0 3.95-3.25 7.196-7.203 7.196s-7.156-3.246-7.156-7.196c0-4.054 3.203-7.3 7.156-7.3zm22.465 18.199v12.152h-5.5v-35.004h12.867c6.359 0 11.414 5.051 11.414 11.403 0 6.304-5.113 11.449-11.414 11.449zm6.968-5.004c3.403 0 6.207-2.941 6.207-6.399 0-3.492-2.757-6.445-6.207-6.445h-6.968v12.844zm26.176-12.996c-0.304-0.106-1.008-0.199-1.453-0.199-2.711 0-4.309 1.945-4.309 3.843 0 1.711 0.848 2.801 2.149 3.61l7.262 4.547c3.308 2.05 5.101 4.546 5.101 8.25 0 6.504-5.699 10.605-10.957 10.605-5.605 0-9.207-3.504-10.66-7.5l4.305-2.555c1.101 2.098 2.554 4.899 6.355 4.899 3.098 0 5.352-1.945 5.352-4.653 0-2.05-0.797-3.492-2.453-4.5l-7.649-4.546c-2.465-1.454-4.105-3.996-4.105-7.606 0-6.445 5.703-9.551 9.761-9.551 0.95 0 1.946 0.153 2.45 0.305zm17.059 1.453c2.207 0 3.953-1.758 3.953-3.902 0-2.204-1.746-3.95-3.953-3.95-2.192 0-3.953 1.746-3.953 3.95 0 2.144 1.761 3.902 3.953 3.902zm-2.742 2.695h5.5v26.004h-5.5zm42.941 8.098c-5.152 0-9.258-3.996-9.258-9.246 0-5.297 4.106-9.352 9.258-9.352 5.16 0 9.254 4.055 9.254 9.352 0 5.25-4.094 9.246-9.254 9.246zm-13.621-16.594v20.555h13.621v4.992h-19.629v-25.547zm13.621 2.602c-2.254 0-4.352 1.898-4.352 4.699 0 2.848 2.098 4.652 4.352 4.652 2.25 0 4.352-1.804 4.352-4.652 0-2.801-2.102-4.699-4.352-4.699zm-24.379 0.89v26.004h17.867v5.004h-23.871v-31.008zm60.313 20.953 0.351 1.899-0.094 0.059-16.468-26.907h-6.711v35.004h5.5v-25.547l-0.293-1.359 0.152-0.047 16.367 26.953h6.711v-35.004h-5.515zm47.449 0 0.351 1.899-0.093 0.059-16.469-26.907h-6.711v35.004h5.504v-25.547l-0.297-1.359 0.156-0.047 16.364 26.953h6.71v-35.004h-5.515zm27.68 10.559c9.82 0 17.679-7.851 17.679-18 0-10.16-7.859-18.012-17.679-18.012-9.805 0-17.668 7.852-17.668 18.012 0 10.149 7.863 18 17.668 18zm0-5.109c-6.25 0-12.059-4.899-12.059-12.891 0-8.004 5.809-12.902 12.059-12.902 6.265 0 12.07 4.898 12.07 12.902 0 7.992-5.805 12.891-12.07 12.891zm24.628-26.649c2.204 0 3.954-1.746 3.954-3.902 0-2.191-1.75-3.949-3.954-3.949-2.207 0-3.953 1.758-3.953 3.949 0 2.156 1.746 3.902 3.953 3.902zm14.524 0c2.191 0 3.953-1.746 3.953-3.902 0-2.191-1.762-3.949-3.953-3.949-2.207 0-3.969 1.758-3.969 3.949 0 2.156 1.762 3.902 3.969 3.902zm-17.328 31.301h17.621v-4.898h-12.32v-5.25l0.152-0.153c1.211 1.254 2.758 1.758 4.258 1.758 5.058 0 9.258-4.055 9.258-9.258 0-5.25-4.2-9.644-9.364-9.644-4.094 0-9.652 2.894-9.652 10.851zm9.359-22.5c2.5 0 4.555 2.051 4.555 4.606 0 2.449-2.055 4.5-4.555 4.5-2.449 0-4.457-2.051-4.457-4.5 0-2.555 2.008-4.606 4.457-4.606zm21.922-12.598v30.047h15.766v5.004h-21.27v-35.051zm54.656 27.2c7.567 0 13.621-5.954 13.621-13.805 0-7.793-6.054-13.852-13.621-13.852-7.449 0-13.511 6.059-13.511 13.852 0 7.851 6.062 13.805 13.511 13.805zm-17.008-27.2v30.047h17.758v5.004h-23.273v-35.051zm17.008 22.348c-4.152 0-8.105-3.551-8.105-8.953 0-5.391 3.953-9.047 8.105-9.047 4.211 0 8.164 3.656 8.164 9.047 0 5.402-3.953 8.953-8.164 8.953zm19.43-18.504c2.203 0 3.953-1.746 3.953-3.89 0-2.204-1.75-3.961-3.953-3.961-2.207 0-3.957 1.757-3.957 3.961 0 2.144 1.75 3.89 3.957 3.89zm14.508 0c2.207 0 3.957-1.746 3.957-3.89 0-2.204-1.75-3.961-3.957-3.961-2.203 0-3.953 1.757-3.953 3.961 0 2.144 1.75 3.89 3.953 3.89zm2.605 31.207h-19.074v-4.699h14.02v-6h-0.247c-0.398 0.75-2.804 2.098-4.812 2.098-5.055 0-9.16-4.102-9.16-9.2v-8.203h5.054v8.356c0 2.496 1.961 4.394 4.508 4.394 2.403 0 4.305-1.898 4.305-4.347v-8.403h5.406zm17.227-30.152c-0.309-0.106-1.012-0.199-1.457-0.199-2.711 0-4.305 1.945-4.305 3.843 0 1.711 0.844 2.801 2.148 3.61l7.262 4.547c3.305 2.05 5.102 4.546 5.102 8.25 0 6.504-5.703 10.605-10.957 10.605-5.61 0-9.211-3.504-10.664-7.5l4.304-2.555c1.106 2.098 2.559 4.899 6.36 4.899 3.097 0 5.347-1.945 5.347-4.653 0-2.05-0.796-3.492-2.449-4.5l-7.648-4.546c-2.465-1.454-4.106-3.996-4.106-7.606 0-6.445 5.699-9.551 9.758-9.551 0.949 0 1.949 0.153 2.453 0.305zm51.047-1.805v6.61h-0.2c-0.843-1.36-3.097-2.708-5.855-2.708-5.453 0-9.863 4.348-9.863 9.856 0 5.402 4.363 9.844 9.558 9.844 3.063 0 5.516-2.145 6.114-3.141h0.246v2.742h5.406v-28.101h-18.524v4.898zm-19.414-3.047v30.153h19.918v4.851h-25.282v-35.004zm13.652 21.75c-2.848 0-5.102-2.203-5.102-5.051 0-2.894 2.157-5.097 5.102-5.097 2.957 0 5.117 2.203 5.117 5.004 0 2.941-2.16 5.144-5.117 5.144zm44.453-22.254c2.559 15.856-5.254 28.653-14.969 35.508h-4.351l-11.367-33.949 5.664-1.453 9.656 29.156c5.805-4.207 12.012-15.105 10.019-28.16zm22.977 5.508v8.695h-0.258c-1.301-1.195-3.895-2.695-7.309-2.695-6.754 0-12.258 5.449-12.258 12.246 0 6.75 5.457 12.258 12.258 12.258 3.906 0 6.559-2.156 7.262-3.258h0.305v2.754h5.504v-35.004h-23.18v5.004zm-7.368 25.395c-4.046 0-7.246-3.246-7.246-7.301 0-4.043 3.153-7.301 7.246-7.301 4.016 0 7.215 3.258 7.215 7.254 0 4.102-3.199 7.348-7.215 7.348zm41.797-5.45 0.352 1.899-0.094 0.059-16.469-26.907h-6.711v35.004h5.5v-25.547l-0.293-1.359 0.153-0.047 16.367 26.953h6.711v-35.004h-5.516zm24.43-25.453c-5.359 0-9.715 1.606-12.914 3.961v31.547h20.469c8.164-4.5 10.312-10.746 10.312-17.097 0-10.36-6.711-18.411-17.867-18.411zm-7.414 30.504v-23.543c1.914-1.254 4.41-1.957 7.414-1.957 7.355 0 12.258 5.356 12.258 13.407 0 5.449-1.852 9.246-6.297 12.093zm30.59 5.004h24.023v-5.004h-18.523v-8.25l0.152-0.152c1.551 1.16 4.059 2.309 7.063 2.309 6.558 0 12.109-5.204 12.109-11.954 0-6.796-5.457-12.457-12.262-12.457-5.359 0-12.715 3.75-12.668 14.203zm12.363-30.351c3.953 0 7.203 3.246 7.203 7.3 0 3.95-3.25 7.196-7.203 7.196s-7.156-3.246-7.156-7.196c0-4.054 3.203-7.3 7.156-7.3z"/>
  <g id="g92" clip-path="url(#clipPath93)">
   <path id="path92" transform="matrix(1.3333 0 0 -1.3319 9062.7 0)" d="m269.43-236.3-17.954-4.755c0.219 4.259-3.394 7.586-7.585 7.586-4.188 0-7.586-3.394-7.586-7.586" clip-path="url(#clipPath91)" fill="none" stroke="#a1171b" stroke-width="1.0011"/>
  </g>
  <path id="path94" transform="matrix(1.3333 0 0 -1.3319 9062.7 0)" d="m338.11-235.65 17.953-4.751" clip-path="url(#clipPath95)" fill="none" stroke="#a1171b" stroke-width="1.0011"/>
  <path id="path96" transform="matrix(1.3333 0 0 -1.3319 9062.7 0)" d="m372.43-417.47 17.953-4.751" clip-path="url(#clipPath97)" fill="none" stroke="#a1171b" stroke-width="1.0011"/>
  <path id="path98" transform="matrix(1.3333 0 0 -1.3319 9062.7 0)" d="m635.97-235.65 17.953-4.751" clip-path="url(#clipPath99)" fill="none" stroke="#a1171b" stroke-width="1.0011"/>
  <path id="path100" transform="matrix(1.3333 0 0 -1.3319 9062.7 0)" d="m636.29-235.65-17.953-4.751" clip-path="url(#clipPath101)" fill="none" stroke="#a1171b" stroke-width="1.0011"/>
  <g id="g103" clip-path="url(#clipPath104)">
   <path id="path103" transform="matrix(1.3333 0 0 -1.3319 9062.7 0)" d="m557.39-346.07c-0.215-4.259 3.398-7.59 7.586-7.59 4.191 0 7.589 3.398 7.589 7.59" clip-path="url(#clipPath102)" fill="none" stroke="#a1171b" stroke-width="1.0011"/>
  </g>
  <g id="g106" clip-path="url(#clipPath107)">
   <path id="path106" transform="matrix(1.3333 0 0 -1.3319 9062.7 0)" d="m434.53-465.25c-0.218-4.254 3.395-7.586 7.586-7.586 4.192 0 7.59 3.394 7.59 7.586" clip-path="url(#clipPath105)" fill="none" stroke="#a1171b" stroke-width="1.0011"/>
  </g>
  <g id="g109" clip-path="url(#clipPath110)">
   <path id="path109" transform="matrix(1.3333 0 0 -1.3319 9062.7 0)" d="m436.49-539.64c0.117 2.381-1.871 4.251-4.18 4.251-2.308 0-4.179-1.905-4.179-4.251" clip-path="url(#clipPath108)" fill="none" stroke="#a1171b" stroke-width="1.0011"/>
  </g>
  <g id="g112" clip-path="url(#clipPath113)">
   <path id="path112" transform="matrix(1.3333 0 0 -1.3319 9062.7 0)" d="m538.64-539.64c0.121 2.381-1.872 4.251-4.176 4.251-2.309 0-4.18-1.905-4.18-4.251" clip-path="url(#clipPath111)" fill="none" stroke="#a1171b" stroke-width="1.0011"/>
  </g>
  <g id="g115" clip-path="url(#clipPath116)">
   <path id="path115" transform="matrix(1.3333 0 0 -1.3319 9062.7 0)" d="m451.11-539.64c0.121 2.381-1.871 4.251-4.179 4.251-2.305 0-4.176-1.905-4.176-4.251" clip-path="url(#clipPath114)" fill="none" stroke="#a1171b" stroke-width="1.0011"/>
  </g>
  <g id="g118" clip-path="url(#clipPath119)">
   <path id="path118" transform="matrix(1.3333 0 0 -1.3319 9062.7 0)" d="m553.27-539.64c0.117 2.381-1.872 4.251-4.18 4.251-2.309 0-4.18-1.905-4.18-4.251" clip-path="url(#clipPath117)" fill="none" stroke="#a1171b" stroke-width="1.0011"/>
  </g>
  <g id="g121" clip-path="url(#clipPath122)">
   <path id="path121" transform="matrix(1.3333 0 0 -1.3319 9062.7 0)" d="m305.15-542.4c-0.972 3.105-3.859 5.823-8.621 5.823-4.761 0-7.879-2.659-8.621-5.823" clip-path="url(#clipPath120)" fill="none" stroke="#a1171b" stroke-width="1.0011"/>
  </g>
  <g id="g124" clip-path="url(#clipPath125)">
   <path id="path124" transform="matrix(1.3333 0 0 -1.3319 9062.7 0)" d="m644.28-483.37c-1.066 3.359-4.242 6.295-9.476 6.295-5.231 0-8.657-2.874-9.473-6.295" clip-path="url(#clipPath123)" fill="none" stroke="#a1171b" stroke-width="1.0011"/>
  </g>
  <g id="g127" clip-path="url(#clipPath128)">
   <path id="path127" transform="matrix(1.3333 0 0 -1.3319 9062.7 0)" d="m723.26-346.07c-0.219-4.259 3.394-7.59 7.586-7.59 4.191 0 7.586 3.398 7.586 7.59" clip-path="url(#clipPath126)" fill="none" stroke="#a1171b" stroke-width="1.0011"/>
  </g>
  <path id="path129" transform="matrix(1.3333 0 0 -1.3319 9062.7 0)" d="m600.02-541.7h4.964v4.427h17.594" clip-path="url(#clipPath130)" fill="none" stroke="#a1171b" stroke-width="1.0011"/>
 </g>
</svg>
